%TF.GenerationSoftware,KiCad,Pcbnew,8.0.4*%
%TF.CreationDate,2024-09-15T22:50:30-03:00*%
%TF.ProjectId,panelized_TA65,70616e65-6c69-47a6-9564-5f544136352e,rev?*%
%TF.SameCoordinates,Original*%
%TF.FileFunction,Legend,Top*%
%TF.FilePolarity,Positive*%
%FSLAX46Y46*%
G04 Gerber Fmt 4.6, Leading zero omitted, Abs format (unit mm)*
G04 Created by KiCad (PCBNEW 8.0.4) date 2024-09-15 22:50:30*
%MOMM*%
%LPD*%
G01*
G04 APERTURE LIST*
%ADD10C,0.120000*%
G04 APERTURE END LIST*
D10*
%TO.C,U1*%
X153090000Y-92320500D02*
X153090000Y-102600500D01*
X153090000Y-102600500D02*
X163490000Y-102600500D01*
X153150000Y-94810500D02*
X153150000Y-96460500D01*
X153150000Y-98460500D02*
X153150000Y-100110500D01*
X153150000Y-100110500D02*
X163430000Y-100110500D01*
X163430000Y-94810500D02*
X153150000Y-94810500D01*
X163430000Y-100110500D02*
X163430000Y-94810500D01*
X163490000Y-92320500D02*
X153090000Y-92320500D01*
X163490000Y-102600500D02*
X163490000Y-92320500D01*
X153150000Y-96460500D02*
G75*
G02*
X153150000Y-98460500I0J-1000000D01*
G01*
X153090000Y-43920500D02*
X153090000Y-54200500D01*
X153090000Y-54200500D02*
X163490000Y-54200500D01*
X153150000Y-46410500D02*
X153150000Y-48060500D01*
X153150000Y-50060500D02*
X153150000Y-51710500D01*
X153150000Y-51710500D02*
X163430000Y-51710500D01*
X163430000Y-46410500D02*
X153150000Y-46410500D01*
X163430000Y-51710500D02*
X163430000Y-46410500D01*
X163490000Y-43920500D02*
X153090000Y-43920500D01*
X163490000Y-54200500D02*
X163490000Y-43920500D01*
X153150000Y-48060500D02*
G75*
G02*
X153150000Y-50060500I0J-1000000D01*
G01*
%TO.C,U2*%
X153090000Y-57800500D02*
X153090000Y-68080500D01*
X153090000Y-68080500D02*
X163490000Y-68080500D01*
X153150000Y-60290500D02*
X153150000Y-61940500D01*
X153150000Y-63940500D02*
X153150000Y-65590500D01*
X153150000Y-65590500D02*
X163430000Y-65590500D01*
X163430000Y-60290500D02*
X153150000Y-60290500D01*
X163430000Y-65590500D02*
X163430000Y-60290500D01*
X163490000Y-57800500D02*
X153090000Y-57800500D01*
X163490000Y-68080500D02*
X163490000Y-57800500D01*
X153150000Y-61940500D02*
G75*
G02*
X153150000Y-63940500I0J-1000000D01*
G01*
%TO.C,U1*%
X133790000Y-43920500D02*
X133790000Y-54200500D01*
X133790000Y-54200500D02*
X144190000Y-54200500D01*
X133850000Y-46410500D02*
X133850000Y-48060500D01*
X133850000Y-50060500D02*
X133850000Y-51710500D01*
X133850000Y-51710500D02*
X144130000Y-51710500D01*
X144130000Y-46410500D02*
X133850000Y-46410500D01*
X144130000Y-51710500D02*
X144130000Y-46410500D01*
X144190000Y-43920500D02*
X133790000Y-43920500D01*
X144190000Y-54200500D02*
X144190000Y-43920500D01*
X133850000Y-48060500D02*
G75*
G02*
X133850000Y-50060500I0J-1000000D01*
G01*
X133790000Y-92320500D02*
X133790000Y-102600500D01*
X133790000Y-102600500D02*
X144190000Y-102600500D01*
X133850000Y-94810500D02*
X133850000Y-96460500D01*
X133850000Y-98460500D02*
X133850000Y-100110500D01*
X133850000Y-100110500D02*
X144130000Y-100110500D01*
X144130000Y-94810500D02*
X133850000Y-94810500D01*
X144130000Y-100110500D02*
X144130000Y-94810500D01*
X144190000Y-92320500D02*
X133790000Y-92320500D01*
X144190000Y-102600500D02*
X144190000Y-92320500D01*
X133850000Y-96460500D02*
G75*
G02*
X133850000Y-98460500I0J-1000000D01*
G01*
%TO.C,U2*%
X153090000Y-33600500D02*
X153090000Y-43880500D01*
X153090000Y-43880500D02*
X163490000Y-43880500D01*
X153150000Y-36090500D02*
X153150000Y-37740500D01*
X153150000Y-39740500D02*
X153150000Y-41390500D01*
X153150000Y-41390500D02*
X163430000Y-41390500D01*
X163430000Y-36090500D02*
X153150000Y-36090500D01*
X163430000Y-41390500D02*
X163430000Y-36090500D01*
X163490000Y-33600500D02*
X153090000Y-33600500D01*
X163490000Y-43880500D02*
X163490000Y-33600500D01*
X153150000Y-37740500D02*
G75*
G02*
X153150000Y-39740500I0J-1000000D01*
G01*
%TO.C,U1*%
X153090000Y-68120500D02*
X153090000Y-78400500D01*
X153090000Y-78400500D02*
X163490000Y-78400500D01*
X153150000Y-70610500D02*
X153150000Y-72260500D01*
X153150000Y-74260500D02*
X153150000Y-75910500D01*
X153150000Y-75910500D02*
X163430000Y-75910500D01*
X163430000Y-70610500D02*
X153150000Y-70610500D01*
X163430000Y-75910500D02*
X163430000Y-70610500D01*
X163490000Y-68120500D02*
X153090000Y-68120500D01*
X163490000Y-78400500D02*
X163490000Y-68120500D01*
X153150000Y-72260500D02*
G75*
G02*
X153150000Y-74260500I0J-1000000D01*
G01*
%TO.C,U2*%
X133790000Y-82000500D02*
X133790000Y-92280500D01*
X133790000Y-92280500D02*
X144190000Y-92280500D01*
X133850000Y-84490500D02*
X133850000Y-86140500D01*
X133850000Y-88140500D02*
X133850000Y-89790500D01*
X133850000Y-89790500D02*
X144130000Y-89790500D01*
X144130000Y-84490500D02*
X133850000Y-84490500D01*
X144130000Y-89790500D02*
X144130000Y-84490500D01*
X144190000Y-82000500D02*
X133790000Y-82000500D01*
X144190000Y-92280500D02*
X144190000Y-82000500D01*
X133850000Y-86140500D02*
G75*
G02*
X133850000Y-88140500I0J-1000000D01*
G01*
X133790000Y-57800500D02*
X133790000Y-68080500D01*
X133790000Y-68080500D02*
X144190000Y-68080500D01*
X133850000Y-60290500D02*
X133850000Y-61940500D01*
X133850000Y-63940500D02*
X133850000Y-65590500D01*
X133850000Y-65590500D02*
X144130000Y-65590500D01*
X144130000Y-60290500D02*
X133850000Y-60290500D01*
X144130000Y-65590500D02*
X144130000Y-60290500D01*
X144190000Y-57800500D02*
X133790000Y-57800500D01*
X144190000Y-68080500D02*
X144190000Y-57800500D01*
X133850000Y-61940500D02*
G75*
G02*
X133850000Y-63940500I0J-1000000D01*
G01*
X133790000Y-33600500D02*
X133790000Y-43880500D01*
X133790000Y-43880500D02*
X144190000Y-43880500D01*
X133850000Y-36090500D02*
X133850000Y-37740500D01*
X133850000Y-39740500D02*
X133850000Y-41390500D01*
X133850000Y-41390500D02*
X144130000Y-41390500D01*
X144130000Y-36090500D02*
X133850000Y-36090500D01*
X144130000Y-41390500D02*
X144130000Y-36090500D01*
X144190000Y-33600500D02*
X133790000Y-33600500D01*
X144190000Y-43880500D02*
X144190000Y-33600500D01*
X133850000Y-37740500D02*
G75*
G02*
X133850000Y-39740500I0J-1000000D01*
G01*
%TO.C,U1*%
X133790000Y-68120500D02*
X133790000Y-78400500D01*
X133790000Y-78400500D02*
X144190000Y-78400500D01*
X133850000Y-70610500D02*
X133850000Y-72260500D01*
X133850000Y-74260500D02*
X133850000Y-75910500D01*
X133850000Y-75910500D02*
X144130000Y-75910500D01*
X144130000Y-70610500D02*
X133850000Y-70610500D01*
X144130000Y-75910500D02*
X144130000Y-70610500D01*
X144190000Y-68120500D02*
X133790000Y-68120500D01*
X144190000Y-78400500D02*
X144190000Y-68120500D01*
X133850000Y-72260500D02*
G75*
G02*
X133850000Y-74260500I0J-1000000D01*
G01*
%TO.C,U2*%
X153090000Y-82000500D02*
X153090000Y-92280500D01*
X153090000Y-92280500D02*
X163490000Y-92280500D01*
X153150000Y-84490500D02*
X153150000Y-86140500D01*
X153150000Y-88140500D02*
X153150000Y-89790500D01*
X153150000Y-89790500D02*
X163430000Y-89790500D01*
X163430000Y-84490500D02*
X153150000Y-84490500D01*
X163430000Y-89790500D02*
X163430000Y-84490500D01*
X163490000Y-82000500D02*
X153090000Y-82000500D01*
X163490000Y-92280500D02*
X163490000Y-82000500D01*
X153150000Y-86140500D02*
G75*
G02*
X153150000Y-88140500I0J-1000000D01*
G01*
%TD*%
M02*
