%TF.GenerationSoftware,KiCad,Pcbnew,8.0.4*%
%TF.CreationDate,2024-09-15T22:50:30-03:00*%
%TF.ProjectId,panelized_TA65,70616e65-6c69-47a6-9564-5f544136352e,rev?*%
%TF.SameCoordinates,Original*%
%TF.FileFunction,Copper,L1,Top*%
%TF.FilePolarity,Positive*%
%FSLAX46Y46*%
G04 Gerber Fmt 4.6, Leading zero omitted, Abs format (unit mm)*
G04 Created by KiCad (PCBNEW 8.0.4) date 2024-09-15 22:50:30*
%MOMM*%
%LPD*%
G01*
G04 APERTURE LIST*
G04 Aperture macros list*
%AMRoundRect*
0 Rectangle with rounded corners*
0 $1 Rounding radius*
0 $2 $3 $4 $5 $6 $7 $8 $9 X,Y pos of 4 corners*
0 Add a 4 corners polygon primitive as box body*
4,1,4,$2,$3,$4,$5,$6,$7,$8,$9,$2,$3,0*
0 Add four circle primitives for the rounded corners*
1,1,$1+$1,$2,$3*
1,1,$1+$1,$4,$5*
1,1,$1+$1,$6,$7*
1,1,$1+$1,$8,$9*
0 Add four rect primitives between the rounded corners*
20,1,$1+$1,$2,$3,$4,$5,0*
20,1,$1+$1,$4,$5,$6,$7,0*
20,1,$1+$1,$6,$7,$8,$9,0*
20,1,$1+$1,$8,$9,$2,$3,0*%
G04 Aperture macros list end*
%TA.AperFunction,SMDPad,CuDef*%
%ADD10R,1.600000X1.600000*%
%TD*%
%TA.AperFunction,ComponentPad*%
%ADD11RoundRect,0.250000X0.850000X0.750000X-0.850000X0.750000X-0.850000X-0.750000X0.850000X-0.750000X0*%
%TD*%
%TA.AperFunction,ComponentPad*%
%ADD12O,2.200000X2.000000*%
%TD*%
%TA.AperFunction,ViaPad*%
%ADD13C,0.600000*%
%TD*%
%TA.AperFunction,Conductor*%
%ADD14C,0.304800*%
%TD*%
G04 APERTURE END LIST*
D10*
%TO.P,U1,1,IN1*%
%TO.N,Board_5-/IN_A1*%
X154480000Y-101270500D03*
%TO.P,U1,2,IN2*%
%TO.N,Board_5-/IN_A2*%
X157020000Y-101270500D03*
%TO.P,U1,3,GND*%
%TO.N,Board_5-GND*%
X159560000Y-101270500D03*
%TO.P,U1,4,VM*%
%TO.N,Board_5-/VM*%
X162100000Y-101270500D03*
%TO.P,U1,5,OUT1*%
%TO.N,Board_5-/OUT_A1*%
X162100000Y-93650500D03*
%TO.P,U1,6,OUT1*%
X159560000Y-93650500D03*
%TO.P,U1,7,OUT2*%
%TO.N,Board_5-/OUT_A2*%
X157020000Y-93650500D03*
%TO.P,U1,8,OUT2*%
X154480000Y-93650500D03*
%TD*%
%TO.P,U1,1,IN1*%
%TO.N,Board_1-/IN_A1*%
X154480000Y-52870500D03*
%TO.P,U1,2,IN2*%
%TO.N,Board_1-/IN_A2*%
X157020000Y-52870500D03*
%TO.P,U1,3,GND*%
%TO.N,Board_1-GND*%
X159560000Y-52870500D03*
%TO.P,U1,4,VM*%
%TO.N,Board_1-/VM*%
X162100000Y-52870500D03*
%TO.P,U1,5,OUT1*%
%TO.N,Board_1-/OUT_A1*%
X162100000Y-45250500D03*
%TO.P,U1,6,OUT1*%
X159560000Y-45250500D03*
%TO.P,U1,7,OUT2*%
%TO.N,Board_1-/OUT_A2*%
X157020000Y-45250500D03*
%TO.P,U1,8,OUT2*%
X154480000Y-45250500D03*
%TD*%
%TO.P,U2,1,IN1*%
%TO.N,Board_3-/IN_B1*%
X154480000Y-66750500D03*
%TO.P,U2,2,IN2*%
%TO.N,Board_3-/IN_B2*%
X157020000Y-66750500D03*
%TO.P,U2,3,GND*%
%TO.N,Board_3-GND*%
X159560000Y-66750500D03*
%TO.P,U2,4,VM*%
%TO.N,Board_3-/VM*%
X162100000Y-66750500D03*
%TO.P,U2,5,OUT1*%
%TO.N,Board_3-/OUT_B1*%
X162100000Y-59130500D03*
%TO.P,U2,6,OUT1*%
X159560000Y-59130500D03*
%TO.P,U2,7,OUT2*%
%TO.N,Board_3-/OUT_B2*%
X157020000Y-59130500D03*
%TO.P,U2,8,OUT2*%
X154480000Y-59130500D03*
%TD*%
%TO.P,U1,1,IN1*%
%TO.N,Board_0-/IN_A1*%
X135180000Y-52870500D03*
%TO.P,U1,2,IN2*%
%TO.N,Board_0-/IN_A2*%
X137720000Y-52870500D03*
%TO.P,U1,3,GND*%
%TO.N,Board_0-GND*%
X140260000Y-52870500D03*
%TO.P,U1,4,VM*%
%TO.N,Board_0-/VM*%
X142800000Y-52870500D03*
%TO.P,U1,5,OUT1*%
%TO.N,Board_0-/OUT_A1*%
X142800000Y-45250500D03*
%TO.P,U1,6,OUT1*%
X140260000Y-45250500D03*
%TO.P,U1,7,OUT2*%
%TO.N,Board_0-/OUT_A2*%
X137720000Y-45250500D03*
%TO.P,U1,8,OUT2*%
X135180000Y-45250500D03*
%TD*%
%TO.P,U1,1,IN1*%
%TO.N,Board_4-/IN_A1*%
X135180000Y-101270500D03*
%TO.P,U1,2,IN2*%
%TO.N,Board_4-/IN_A2*%
X137720000Y-101270500D03*
%TO.P,U1,3,GND*%
%TO.N,Board_4-GND*%
X140260000Y-101270500D03*
%TO.P,U1,4,VM*%
%TO.N,Board_4-/VM*%
X142800000Y-101270500D03*
%TO.P,U1,5,OUT1*%
%TO.N,Board_4-/OUT_A1*%
X142800000Y-93650500D03*
%TO.P,U1,6,OUT1*%
X140260000Y-93650500D03*
%TO.P,U1,7,OUT2*%
%TO.N,Board_4-/OUT_A2*%
X137720000Y-93650500D03*
%TO.P,U1,8,OUT2*%
X135180000Y-93650500D03*
%TD*%
%TO.P,U2,1,IN1*%
%TO.N,Board_1-/IN_B1*%
X154480000Y-42550500D03*
%TO.P,U2,2,IN2*%
%TO.N,Board_1-/IN_B2*%
X157020000Y-42550500D03*
%TO.P,U2,3,GND*%
%TO.N,Board_1-GND*%
X159560000Y-42550500D03*
%TO.P,U2,4,VM*%
%TO.N,Board_1-/VM*%
X162100000Y-42550500D03*
%TO.P,U2,5,OUT1*%
%TO.N,Board_1-/OUT_B1*%
X162100000Y-34930500D03*
%TO.P,U2,6,OUT1*%
X159560000Y-34930500D03*
%TO.P,U2,7,OUT2*%
%TO.N,Board_1-/OUT_B2*%
X157020000Y-34930500D03*
%TO.P,U2,8,OUT2*%
X154480000Y-34930500D03*
%TD*%
%TO.P,U1,1,IN1*%
%TO.N,Board_3-/IN_A1*%
X154480000Y-77070500D03*
%TO.P,U1,2,IN2*%
%TO.N,Board_3-/IN_A2*%
X157020000Y-77070500D03*
%TO.P,U1,3,GND*%
%TO.N,Board_3-GND*%
X159560000Y-77070500D03*
%TO.P,U1,4,VM*%
%TO.N,Board_3-/VM*%
X162100000Y-77070500D03*
%TO.P,U1,5,OUT1*%
%TO.N,Board_3-/OUT_A1*%
X162100000Y-69450500D03*
%TO.P,U1,6,OUT1*%
X159560000Y-69450500D03*
%TO.P,U1,7,OUT2*%
%TO.N,Board_3-/OUT_A2*%
X157020000Y-69450500D03*
%TO.P,U1,8,OUT2*%
X154480000Y-69450500D03*
%TD*%
%TO.P,U2,1,IN1*%
%TO.N,Board_4-/IN_B1*%
X135180000Y-90950500D03*
%TO.P,U2,2,IN2*%
%TO.N,Board_4-/IN_B2*%
X137720000Y-90950500D03*
%TO.P,U2,3,GND*%
%TO.N,Board_4-GND*%
X140260000Y-90950500D03*
%TO.P,U2,4,VM*%
%TO.N,Board_4-/VM*%
X142800000Y-90950500D03*
%TO.P,U2,5,OUT1*%
%TO.N,Board_4-/OUT_B1*%
X142800000Y-83330500D03*
%TO.P,U2,6,OUT1*%
X140260000Y-83330500D03*
%TO.P,U2,7,OUT2*%
%TO.N,Board_4-/OUT_B2*%
X137720000Y-83330500D03*
%TO.P,U2,8,OUT2*%
X135180000Y-83330500D03*
%TD*%
%TO.P,U2,1,IN1*%
%TO.N,Board_2-/IN_B1*%
X135180000Y-66750500D03*
%TO.P,U2,2,IN2*%
%TO.N,Board_2-/IN_B2*%
X137720000Y-66750500D03*
%TO.P,U2,3,GND*%
%TO.N,Board_2-GND*%
X140260000Y-66750500D03*
%TO.P,U2,4,VM*%
%TO.N,Board_2-/VM*%
X142800000Y-66750500D03*
%TO.P,U2,5,OUT1*%
%TO.N,Board_2-/OUT_B1*%
X142800000Y-59130500D03*
%TO.P,U2,6,OUT1*%
X140260000Y-59130500D03*
%TO.P,U2,7,OUT2*%
%TO.N,Board_2-/OUT_B2*%
X137720000Y-59130500D03*
%TO.P,U2,8,OUT2*%
X135180000Y-59130500D03*
%TD*%
%TO.P,U2,1,IN1*%
%TO.N,Board_0-/IN_B1*%
X135180000Y-42550500D03*
%TO.P,U2,2,IN2*%
%TO.N,Board_0-/IN_B2*%
X137720000Y-42550500D03*
%TO.P,U2,3,GND*%
%TO.N,Board_0-GND*%
X140260000Y-42550500D03*
%TO.P,U2,4,VM*%
%TO.N,Board_0-/VM*%
X142800000Y-42550500D03*
%TO.P,U2,5,OUT1*%
%TO.N,Board_0-/OUT_B1*%
X142800000Y-34930500D03*
%TO.P,U2,6,OUT1*%
X140260000Y-34930500D03*
%TO.P,U2,7,OUT2*%
%TO.N,Board_0-/OUT_B2*%
X137720000Y-34930500D03*
%TO.P,U2,8,OUT2*%
X135180000Y-34930500D03*
%TD*%
%TO.P,U1,1,IN1*%
%TO.N,Board_2-/IN_A1*%
X135180000Y-77070500D03*
%TO.P,U1,2,IN2*%
%TO.N,Board_2-/IN_A2*%
X137720000Y-77070500D03*
%TO.P,U1,3,GND*%
%TO.N,Board_2-GND*%
X140260000Y-77070500D03*
%TO.P,U1,4,VM*%
%TO.N,Board_2-/VM*%
X142800000Y-77070500D03*
%TO.P,U1,5,OUT1*%
%TO.N,Board_2-/OUT_A1*%
X142800000Y-69450500D03*
%TO.P,U1,6,OUT1*%
X140260000Y-69450500D03*
%TO.P,U1,7,OUT2*%
%TO.N,Board_2-/OUT_A2*%
X137720000Y-69450500D03*
%TO.P,U1,8,OUT2*%
X135180000Y-69450500D03*
%TD*%
%TO.P,U2,1,IN1*%
%TO.N,Board_5-/IN_B1*%
X154480000Y-90950500D03*
%TO.P,U2,2,IN2*%
%TO.N,Board_5-/IN_B2*%
X157020000Y-90950500D03*
%TO.P,U2,3,GND*%
%TO.N,Board_5-GND*%
X159560000Y-90950500D03*
%TO.P,U2,4,VM*%
%TO.N,Board_5-/VM*%
X162100000Y-90950500D03*
%TO.P,U2,5,OUT1*%
%TO.N,Board_5-/OUT_B1*%
X162100000Y-83330500D03*
%TO.P,U2,6,OUT1*%
X159560000Y-83330500D03*
%TO.P,U2,7,OUT2*%
%TO.N,Board_5-/OUT_B2*%
X157020000Y-83330500D03*
%TO.P,U2,8,OUT2*%
X154480000Y-83330500D03*
%TD*%
D11*
%TO.P,J2,1,Pin_1*%
%TO.N,Board_5-GND*%
X164900000Y-83550500D03*
D12*
%TO.P,J2,2,Pin_2*%
%TO.N,Board_5-/OUT_B1*%
X164900000Y-86090500D03*
%TO.P,J2,3,Pin_3*%
%TO.N,Board_5-/OUT_B2*%
X164900000Y-88630500D03*
%TO.P,J2,4,Pin_4*%
%TO.N,Board_5-/VM*%
X164900000Y-91170500D03*
%TO.P,J2,5,Pin_5*%
%TO.N,Board_5-/OUT_A1*%
X164900000Y-93710500D03*
%TO.P,J2,6,Pin_6*%
%TO.N,Board_5-/OUT_A2*%
X164900000Y-96250500D03*
%TO.P,J2,7,Pin_7*%
%TO.N,Board_5-/VM*%
X164900000Y-98790500D03*
%TD*%
D11*
%TO.P,J1,1,Pin_1*%
%TO.N,Board_0-GND*%
X132200000Y-35150500D03*
D12*
%TO.P,J1,2,Pin_2*%
%TO.N,Board_0-/IN_B2*%
X132200000Y-37690500D03*
%TO.P,J1,3,Pin_3*%
%TO.N,Board_0-/IN_B1*%
X132200000Y-40230500D03*
%TO.P,J1,5,Pin_5*%
%TO.N,Board_0-/IN_A2*%
X132200000Y-45310500D03*
%TO.P,J1,6,Pin_6*%
%TO.N,Board_0-/IN_A1*%
X132200000Y-47850500D03*
%TO.P,J1,7,Pin_7*%
%TO.N,Board_0-GND*%
X132200000Y-50390500D03*
%TD*%
D11*
%TO.P,J2,1,Pin_1*%
%TO.N,Board_3-GND*%
X164900000Y-59350500D03*
D12*
%TO.P,J2,2,Pin_2*%
%TO.N,Board_3-/OUT_B1*%
X164900000Y-61890500D03*
%TO.P,J2,3,Pin_3*%
%TO.N,Board_3-/OUT_B2*%
X164900000Y-64430500D03*
%TO.P,J2,4,Pin_4*%
%TO.N,Board_3-/VM*%
X164900000Y-66970500D03*
%TO.P,J2,5,Pin_5*%
%TO.N,Board_3-/OUT_A1*%
X164900000Y-69510500D03*
%TO.P,J2,6,Pin_6*%
%TO.N,Board_3-/OUT_A2*%
X164900000Y-72050500D03*
%TO.P,J2,7,Pin_7*%
%TO.N,Board_3-/VM*%
X164900000Y-74590500D03*
%TD*%
D11*
%TO.P,J2,1,Pin_1*%
%TO.N,Board_1-GND*%
X164900000Y-35150500D03*
D12*
%TO.P,J2,2,Pin_2*%
%TO.N,Board_1-/OUT_B1*%
X164900000Y-37690500D03*
%TO.P,J2,3,Pin_3*%
%TO.N,Board_1-/OUT_B2*%
X164900000Y-40230500D03*
%TO.P,J2,4,Pin_4*%
%TO.N,Board_1-/VM*%
X164900000Y-42770500D03*
%TO.P,J2,5,Pin_5*%
%TO.N,Board_1-/OUT_A1*%
X164900000Y-45310500D03*
%TO.P,J2,6,Pin_6*%
%TO.N,Board_1-/OUT_A2*%
X164900000Y-47850500D03*
%TO.P,J2,7,Pin_7*%
%TO.N,Board_1-/VM*%
X164900000Y-50390500D03*
%TD*%
D11*
%TO.P,J2,1,Pin_1*%
%TO.N,Board_4-GND*%
X145600000Y-83550500D03*
D12*
%TO.P,J2,2,Pin_2*%
%TO.N,Board_4-/OUT_B1*%
X145600000Y-86090500D03*
%TO.P,J2,3,Pin_3*%
%TO.N,Board_4-/OUT_B2*%
X145600000Y-88630500D03*
%TO.P,J2,4,Pin_4*%
%TO.N,Board_4-/VM*%
X145600000Y-91170500D03*
%TO.P,J2,5,Pin_5*%
%TO.N,Board_4-/OUT_A1*%
X145600000Y-93710500D03*
%TO.P,J2,6,Pin_6*%
%TO.N,Board_4-/OUT_A2*%
X145600000Y-96250500D03*
%TO.P,J2,7,Pin_7*%
%TO.N,Board_4-/VM*%
X145600000Y-98790500D03*
%TD*%
D11*
%TO.P,J1,1,Pin_1*%
%TO.N,Board_2-GND*%
X132200000Y-59350500D03*
D12*
%TO.P,J1,2,Pin_2*%
%TO.N,Board_2-/IN_B2*%
X132200000Y-61890500D03*
%TO.P,J1,3,Pin_3*%
%TO.N,Board_2-/IN_B1*%
X132200000Y-64430500D03*
%TO.P,J1,5,Pin_5*%
%TO.N,Board_2-/IN_A2*%
X132200000Y-69510500D03*
%TO.P,J1,6,Pin_6*%
%TO.N,Board_2-/IN_A1*%
X132200000Y-72050500D03*
%TO.P,J1,7,Pin_7*%
%TO.N,Board_2-GND*%
X132200000Y-74590500D03*
%TD*%
D11*
%TO.P,J2,1,Pin_1*%
%TO.N,Board_2-GND*%
X145600000Y-59350500D03*
D12*
%TO.P,J2,2,Pin_2*%
%TO.N,Board_2-/OUT_B1*%
X145600000Y-61890500D03*
%TO.P,J2,3,Pin_3*%
%TO.N,Board_2-/OUT_B2*%
X145600000Y-64430500D03*
%TO.P,J2,4,Pin_4*%
%TO.N,Board_2-/VM*%
X145600000Y-66970500D03*
%TO.P,J2,5,Pin_5*%
%TO.N,Board_2-/OUT_A1*%
X145600000Y-69510500D03*
%TO.P,J2,6,Pin_6*%
%TO.N,Board_2-/OUT_A2*%
X145600000Y-72050500D03*
%TO.P,J2,7,Pin_7*%
%TO.N,Board_2-/VM*%
X145600000Y-74590500D03*
%TD*%
D11*
%TO.P,J1,1,Pin_1*%
%TO.N,Board_4-GND*%
X132200000Y-83550500D03*
D12*
%TO.P,J1,2,Pin_2*%
%TO.N,Board_4-/IN_B2*%
X132200000Y-86090500D03*
%TO.P,J1,3,Pin_3*%
%TO.N,Board_4-/IN_B1*%
X132200000Y-88630500D03*
%TO.P,J1,5,Pin_5*%
%TO.N,Board_4-/IN_A2*%
X132200000Y-93710500D03*
%TO.P,J1,6,Pin_6*%
%TO.N,Board_4-/IN_A1*%
X132200000Y-96250500D03*
%TO.P,J1,7,Pin_7*%
%TO.N,Board_4-GND*%
X132200000Y-98790500D03*
%TD*%
D11*
%TO.P,J1,1,Pin_1*%
%TO.N,Board_3-GND*%
X151500000Y-59350500D03*
D12*
%TO.P,J1,2,Pin_2*%
%TO.N,Board_3-/IN_B2*%
X151500000Y-61890500D03*
%TO.P,J1,3,Pin_3*%
%TO.N,Board_3-/IN_B1*%
X151500000Y-64430500D03*
%TO.P,J1,5,Pin_5*%
%TO.N,Board_3-/IN_A2*%
X151500000Y-69510500D03*
%TO.P,J1,6,Pin_6*%
%TO.N,Board_3-/IN_A1*%
X151500000Y-72050500D03*
%TO.P,J1,7,Pin_7*%
%TO.N,Board_3-GND*%
X151500000Y-74590500D03*
%TD*%
D11*
%TO.P,J1,1,Pin_1*%
%TO.N,Board_1-GND*%
X151500000Y-35150500D03*
D12*
%TO.P,J1,2,Pin_2*%
%TO.N,Board_1-/IN_B2*%
X151500000Y-37690500D03*
%TO.P,J1,3,Pin_3*%
%TO.N,Board_1-/IN_B1*%
X151500000Y-40230500D03*
%TO.P,J1,5,Pin_5*%
%TO.N,Board_1-/IN_A2*%
X151500000Y-45310500D03*
%TO.P,J1,6,Pin_6*%
%TO.N,Board_1-/IN_A1*%
X151500000Y-47850500D03*
%TO.P,J1,7,Pin_7*%
%TO.N,Board_1-GND*%
X151500000Y-50390500D03*
%TD*%
D11*
%TO.P,J1,1,Pin_1*%
%TO.N,Board_5-GND*%
X151500000Y-83550500D03*
D12*
%TO.P,J1,2,Pin_2*%
%TO.N,Board_5-/IN_B2*%
X151500000Y-86090500D03*
%TO.P,J1,3,Pin_3*%
%TO.N,Board_5-/IN_B1*%
X151500000Y-88630500D03*
%TO.P,J1,5,Pin_5*%
%TO.N,Board_5-/IN_A2*%
X151500000Y-93710500D03*
%TO.P,J1,6,Pin_6*%
%TO.N,Board_5-/IN_A1*%
X151500000Y-96250500D03*
%TO.P,J1,7,Pin_7*%
%TO.N,Board_5-GND*%
X151500000Y-98790500D03*
%TD*%
D11*
%TO.P,J2,1,Pin_1*%
%TO.N,Board_0-GND*%
X145600000Y-35150500D03*
D12*
%TO.P,J2,2,Pin_2*%
%TO.N,Board_0-/OUT_B1*%
X145600000Y-37690500D03*
%TO.P,J2,3,Pin_3*%
%TO.N,Board_0-/OUT_B2*%
X145600000Y-40230500D03*
%TO.P,J2,4,Pin_4*%
%TO.N,Board_0-/VM*%
X145600000Y-42770500D03*
%TO.P,J2,5,Pin_5*%
%TO.N,Board_0-/OUT_A1*%
X145600000Y-45310500D03*
%TO.P,J2,6,Pin_6*%
%TO.N,Board_0-/OUT_A2*%
X145600000Y-47850500D03*
%TO.P,J2,7,Pin_7*%
%TO.N,Board_0-/VM*%
X145600000Y-50390500D03*
%TD*%
D13*
%TO.N,Board_0-/OUT_A1*%
X142800000Y-45250500D03*
X141525000Y-45250500D03*
X140250000Y-45250500D03*
%TO.N,Board_0-/OUT_A2*%
X143750000Y-47800500D03*
X135150000Y-45250500D03*
X137700000Y-46700500D03*
X136800000Y-47800500D03*
X137700000Y-45250500D03*
X135150000Y-46700500D03*
X141800000Y-47800500D03*
X136425000Y-45250500D03*
X139550000Y-47800500D03*
%TO.N,Board_0-/OUT_B1*%
X142800000Y-34950500D03*
X141525000Y-34950500D03*
X140250000Y-34950500D03*
X142000000Y-36450500D03*
X143150000Y-37550500D03*
%TO.N,Board_0-/OUT_B2*%
X136425000Y-34950500D03*
X135150000Y-34950500D03*
X140700000Y-39350500D03*
X137800000Y-36500500D03*
X139650000Y-38300500D03*
X138700000Y-37400500D03*
X137700000Y-34950500D03*
X143100000Y-40200500D03*
X141700000Y-40150500D03*
%TO.N,Board_0-/VM*%
X142050000Y-49900500D03*
X145950000Y-52250500D03*
X144000000Y-49900500D03*
X144050000Y-42550500D03*
X142800000Y-52870500D03*
X144000000Y-52250500D03*
X142800000Y-42550500D03*
X144000000Y-53550500D03*
X142050000Y-51200500D03*
X145950000Y-53550500D03*
X144000000Y-51200500D03*
%TO.N,Board_0-GND*%
X133550000Y-53300500D03*
X140250000Y-51200500D03*
X131550000Y-53300500D03*
X138250000Y-40100500D03*
X137150000Y-40900500D03*
X131550000Y-52300500D03*
X132550000Y-52300500D03*
X133850000Y-36550500D03*
X136150000Y-40100500D03*
X135350000Y-37250500D03*
X139250000Y-40900500D03*
X140260000Y-52870500D03*
X135100000Y-39050500D03*
X133550000Y-52300500D03*
X138300000Y-49900500D03*
X137200000Y-39050500D03*
X134150000Y-38150500D03*
X140260000Y-42550500D03*
X138300000Y-51200500D03*
X136250000Y-38150500D03*
X132550000Y-53300500D03*
X140250000Y-49900500D03*
%TO.N,Board_1-/OUT_A1*%
X162100000Y-45250500D03*
X160825000Y-45250500D03*
X159550000Y-45250500D03*
%TO.N,Board_1-/OUT_A2*%
X163050000Y-47800500D03*
X158850000Y-47800500D03*
X154450000Y-46700500D03*
X157000000Y-45250500D03*
X161100000Y-47800500D03*
X157000000Y-46700500D03*
X154450000Y-45250500D03*
X156100000Y-47800500D03*
X155725000Y-45250500D03*
%TO.N,Board_1-/OUT_B1*%
X159550000Y-34950500D03*
X162450000Y-37550500D03*
X160825000Y-34950500D03*
X162100000Y-34950500D03*
X161300000Y-36450500D03*
%TO.N,Board_1-/OUT_B2*%
X154450000Y-34950500D03*
X158950000Y-38300500D03*
X162400000Y-40200500D03*
X155725000Y-34950500D03*
X158000000Y-37400500D03*
X157100000Y-36500500D03*
X161000000Y-40150500D03*
X160000000Y-39350500D03*
X157000000Y-34950500D03*
%TO.N,Board_1-/VM*%
X161350000Y-51200500D03*
X165250000Y-53550500D03*
X162100000Y-42550500D03*
X162100000Y-52870500D03*
X163350000Y-42550500D03*
X161350000Y-49900500D03*
X163300000Y-53550500D03*
X163300000Y-51200500D03*
X165250000Y-52250500D03*
X163300000Y-49900500D03*
X163300000Y-52250500D03*
%TO.N,Board_1-GND*%
X157600000Y-49900500D03*
X156500000Y-39050500D03*
X159560000Y-42550500D03*
X151850000Y-52300500D03*
X158550000Y-40900500D03*
X156450000Y-40900500D03*
X154400000Y-39050500D03*
X152850000Y-52300500D03*
X150850000Y-53300500D03*
X154650000Y-37250500D03*
X153450000Y-38150500D03*
X152850000Y-53300500D03*
X150850000Y-52300500D03*
X155550000Y-38150500D03*
X159560000Y-52870500D03*
X157550000Y-40100500D03*
X153150000Y-36550500D03*
X159550000Y-51200500D03*
X155450000Y-40100500D03*
X151850000Y-53300500D03*
X159550000Y-49900500D03*
X157600000Y-51200500D03*
%TO.N,Board_2-/OUT_A1*%
X142800000Y-69450500D03*
X140250000Y-69450500D03*
X141525000Y-69450500D03*
%TO.N,Board_2-/OUT_A2*%
X143750000Y-72000500D03*
X139550000Y-72000500D03*
X141800000Y-72000500D03*
X135150000Y-70900500D03*
X136425000Y-69450500D03*
X135150000Y-69450500D03*
X137700000Y-69450500D03*
X136800000Y-72000500D03*
X137700000Y-70900500D03*
%TO.N,Board_2-/OUT_B1*%
X142800000Y-59150500D03*
X141525000Y-59150500D03*
X143150000Y-61750500D03*
X142000000Y-60650500D03*
X140250000Y-59150500D03*
%TO.N,Board_2-/OUT_B2*%
X139650000Y-62500500D03*
X140700000Y-63550500D03*
X143100000Y-64400500D03*
X138700000Y-61600500D03*
X136425000Y-59150500D03*
X137700000Y-59150500D03*
X141700000Y-64350500D03*
X137800000Y-60700500D03*
X135150000Y-59150500D03*
%TO.N,Board_2-/VM*%
X144000000Y-75400500D03*
X145950000Y-77750500D03*
X142800000Y-77070500D03*
X144000000Y-77750500D03*
X142050000Y-74100500D03*
X145950000Y-76450500D03*
X144000000Y-74100500D03*
X142050000Y-75400500D03*
X142800000Y-66750500D03*
X144000000Y-76450500D03*
X144050000Y-66750500D03*
%TO.N,Board_2-GND*%
X131550000Y-76500500D03*
X137200000Y-63250500D03*
X137150000Y-65100500D03*
X135350000Y-61450500D03*
X140260000Y-66750500D03*
X140260000Y-77070500D03*
X132550000Y-76500500D03*
X131550000Y-77500500D03*
X135100000Y-63250500D03*
X140250000Y-75400500D03*
X132550000Y-77500500D03*
X139250000Y-65100500D03*
X133850000Y-60750500D03*
X138250000Y-64300500D03*
X134150000Y-62350500D03*
X140250000Y-74100500D03*
X136150000Y-64300500D03*
X138300000Y-74100500D03*
X133550000Y-76500500D03*
X138300000Y-75400500D03*
X133550000Y-77500500D03*
X136250000Y-62350500D03*
%TO.N,Board_3-/OUT_A1*%
X162100000Y-69450500D03*
X160825000Y-69450500D03*
X159550000Y-69450500D03*
%TO.N,Board_3-/OUT_A2*%
X158850000Y-72000500D03*
X154450000Y-69450500D03*
X161100000Y-72000500D03*
X154450000Y-70900500D03*
X157000000Y-70900500D03*
X156100000Y-72000500D03*
X163050000Y-72000500D03*
X157000000Y-69450500D03*
X155725000Y-69450500D03*
%TO.N,Board_3-/OUT_B1*%
X159550000Y-59150500D03*
X161300000Y-60650500D03*
X162450000Y-61750500D03*
X160825000Y-59150500D03*
X162100000Y-59150500D03*
%TO.N,Board_3-/OUT_B2*%
X154450000Y-59150500D03*
X157000000Y-59150500D03*
X161000000Y-64350500D03*
X158950000Y-62500500D03*
X162400000Y-64400500D03*
X155725000Y-59150500D03*
X160000000Y-63550500D03*
X158000000Y-61600500D03*
X157100000Y-60700500D03*
%TO.N,Board_3-/VM*%
X163300000Y-75400500D03*
X163300000Y-77750500D03*
X163300000Y-76450500D03*
X161350000Y-75400500D03*
X165250000Y-76450500D03*
X162100000Y-77070500D03*
X162100000Y-66750500D03*
X163350000Y-66750500D03*
X161350000Y-74100500D03*
X165250000Y-77750500D03*
X163300000Y-74100500D03*
%TO.N,Board_3-GND*%
X159560000Y-66750500D03*
X151850000Y-76500500D03*
X156500000Y-63250500D03*
X158550000Y-65100500D03*
X153150000Y-60750500D03*
X154650000Y-61450500D03*
X156450000Y-65100500D03*
X159550000Y-75400500D03*
X157550000Y-64300500D03*
X155450000Y-64300500D03*
X152850000Y-77500500D03*
X157600000Y-74100500D03*
X159550000Y-74100500D03*
X155550000Y-62350500D03*
X154400000Y-63250500D03*
X152850000Y-76500500D03*
X150850000Y-77500500D03*
X150850000Y-76500500D03*
X159560000Y-77070500D03*
X157600000Y-75400500D03*
X151850000Y-77500500D03*
X153450000Y-62350500D03*
%TO.N,Board_4-/OUT_A1*%
X140250000Y-93650500D03*
X141525000Y-93650500D03*
X142800000Y-93650500D03*
%TO.N,Board_4-/OUT_A2*%
X139550000Y-96200500D03*
X137700000Y-93650500D03*
X135150000Y-93650500D03*
X143750000Y-96200500D03*
X137700000Y-95100500D03*
X136800000Y-96200500D03*
X135150000Y-95100500D03*
X136425000Y-93650500D03*
X141800000Y-96200500D03*
%TO.N,Board_4-/OUT_B1*%
X142000000Y-84850500D03*
X143150000Y-85950500D03*
X142800000Y-83350500D03*
X141525000Y-83350500D03*
X140250000Y-83350500D03*
%TO.N,Board_4-/OUT_B2*%
X138700000Y-85800500D03*
X140700000Y-87750500D03*
X137800000Y-84900500D03*
X136425000Y-83350500D03*
X141700000Y-88550500D03*
X135150000Y-83350500D03*
X139650000Y-86700500D03*
X143100000Y-88600500D03*
X137700000Y-83350500D03*
%TO.N,Board_4-/VM*%
X142050000Y-99600500D03*
X145950000Y-101950500D03*
X144000000Y-98300500D03*
X142800000Y-90950500D03*
X144000000Y-100650500D03*
X144000000Y-101950500D03*
X144050000Y-90950500D03*
X144000000Y-99600500D03*
X142050000Y-98300500D03*
X145950000Y-100650500D03*
X142800000Y-101270500D03*
%TO.N,Board_4-GND*%
X138300000Y-98300500D03*
X133550000Y-100700500D03*
X138250000Y-88500500D03*
X135100000Y-87450500D03*
X133850000Y-84950500D03*
X133550000Y-101700500D03*
X131550000Y-101700500D03*
X136250000Y-86550500D03*
X137200000Y-87450500D03*
X137150000Y-89300500D03*
X140260000Y-101270500D03*
X140250000Y-98300500D03*
X134150000Y-86550500D03*
X131550000Y-100700500D03*
X139250000Y-89300500D03*
X135350000Y-85650500D03*
X138300000Y-99600500D03*
X132550000Y-101700500D03*
X140250000Y-99600500D03*
X132550000Y-100700500D03*
X140260000Y-90950500D03*
X136150000Y-88500500D03*
%TO.N,Board_5-/OUT_A1*%
X162100000Y-93650500D03*
X160825000Y-93650500D03*
X159550000Y-93650500D03*
%TO.N,Board_5-/OUT_A2*%
X154450000Y-93650500D03*
X154450000Y-95100500D03*
X155725000Y-93650500D03*
X163050000Y-96200500D03*
X157000000Y-93650500D03*
X156100000Y-96200500D03*
X157000000Y-95100500D03*
X158850000Y-96200500D03*
X161100000Y-96200500D03*
%TO.N,Board_5-/OUT_B1*%
X162100000Y-83350500D03*
X162450000Y-85950500D03*
X160825000Y-83350500D03*
X161300000Y-84850500D03*
X159550000Y-83350500D03*
%TO.N,Board_5-/OUT_B2*%
X162400000Y-88600500D03*
X157000000Y-83350500D03*
X160000000Y-87750500D03*
X157100000Y-84900500D03*
X155725000Y-83350500D03*
X154450000Y-83350500D03*
X158950000Y-86700500D03*
X161000000Y-88550500D03*
X158000000Y-85800500D03*
%TO.N,Board_5-/VM*%
X162100000Y-101270500D03*
X162100000Y-90950500D03*
X165250000Y-101950500D03*
X165250000Y-100650500D03*
X163300000Y-99600500D03*
X163300000Y-101950500D03*
X161350000Y-98300500D03*
X161350000Y-99600500D03*
X163350000Y-90950500D03*
X163300000Y-98300500D03*
X163300000Y-100650500D03*
%TO.N,Board_5-GND*%
X155450000Y-88500500D03*
X152850000Y-101700500D03*
X150850000Y-101700500D03*
X154400000Y-87450500D03*
X156500000Y-87450500D03*
X159560000Y-101270500D03*
X155550000Y-86550500D03*
X159550000Y-98300500D03*
X150850000Y-100700500D03*
X153450000Y-86550500D03*
X157550000Y-88500500D03*
X152850000Y-100700500D03*
X151850000Y-100700500D03*
X154650000Y-85650500D03*
X151850000Y-101700500D03*
X157600000Y-98300500D03*
X158550000Y-89300500D03*
X159550000Y-99600500D03*
X159560000Y-90950500D03*
X156450000Y-89300500D03*
X157600000Y-99600500D03*
X153150000Y-84950500D03*
%TD*%
D14*
%TO.N,Board_0-/IN_A1*%
X132200000Y-47850500D02*
X132200000Y-47950500D01*
X132200000Y-47950500D02*
X135180000Y-50930500D01*
X135180000Y-50930500D02*
X135180000Y-52870500D01*
%TO.N,Board_0-/IN_A2*%
X133652400Y-48302900D02*
X137720000Y-52370500D01*
X132860182Y-46498100D02*
X133652400Y-47290318D01*
X132847600Y-46498100D02*
X132860182Y-46498100D01*
X132200000Y-45310500D02*
X132200000Y-45850500D01*
X133652400Y-47290318D02*
X133652400Y-48302900D01*
X132200000Y-45850500D02*
X132847600Y-46498100D01*
%TO.N,Board_0-/IN_B1*%
X134000000Y-42550500D02*
X135180000Y-42550500D01*
X132200000Y-40750500D02*
X134000000Y-42550500D01*
X132200000Y-40230500D02*
X132200000Y-40750500D01*
%TO.N,Board_0-/IN_B2*%
X132200000Y-37690500D02*
X133800000Y-39290500D01*
X133800000Y-40250500D02*
X134947600Y-41398100D01*
X134947600Y-41398100D02*
X136567600Y-41398100D01*
X136567600Y-41398100D02*
X137720000Y-42550500D01*
X133800000Y-39290500D02*
X133800000Y-40250500D01*
%TO.N,Board_1-/IN_A1*%
X151500000Y-47850500D02*
X151500000Y-47950500D01*
X151500000Y-47950500D02*
X154480000Y-50930500D01*
X154480000Y-50930500D02*
X154480000Y-52870500D01*
%TO.N,Board_1-/IN_A2*%
X152952400Y-48302900D02*
X157020000Y-52370500D01*
X151500000Y-45310500D02*
X151500000Y-45850500D01*
X152160182Y-46498100D02*
X152952400Y-47290318D01*
X152147600Y-46498100D02*
X152160182Y-46498100D01*
X151500000Y-45850500D02*
X152147600Y-46498100D01*
X152952400Y-47290318D02*
X152952400Y-48302900D01*
%TO.N,Board_1-/IN_B1*%
X153300000Y-42550500D02*
X154480000Y-42550500D01*
X151500000Y-40230500D02*
X151500000Y-40750500D01*
X151500000Y-40750500D02*
X153300000Y-42550500D01*
%TO.N,Board_1-/IN_B2*%
X155867600Y-41398100D02*
X157020000Y-42550500D01*
X154247600Y-41398100D02*
X155867600Y-41398100D01*
X153100000Y-40250500D02*
X154247600Y-41398100D01*
X151500000Y-37690500D02*
X153100000Y-39290500D01*
X153100000Y-39290500D02*
X153100000Y-40250500D01*
%TO.N,Board_2-/IN_A1*%
X132200000Y-72050500D02*
X132200000Y-72150500D01*
X132200000Y-72150500D02*
X135180000Y-75130500D01*
X135180000Y-75130500D02*
X135180000Y-77070500D01*
%TO.N,Board_2-/IN_A2*%
X132200000Y-69510500D02*
X132200000Y-70050500D01*
X132847600Y-70698100D02*
X132860182Y-70698100D01*
X133652400Y-71490318D02*
X133652400Y-72502900D01*
X133652400Y-72502900D02*
X137720000Y-76570500D01*
X132860182Y-70698100D02*
X133652400Y-71490318D01*
X132200000Y-70050500D02*
X132847600Y-70698100D01*
%TO.N,Board_2-/IN_B1*%
X132200000Y-64430500D02*
X132200000Y-64950500D01*
X132200000Y-64950500D02*
X134000000Y-66750500D01*
X134000000Y-66750500D02*
X135180000Y-66750500D01*
%TO.N,Board_2-/IN_B2*%
X134947600Y-65598100D02*
X136567600Y-65598100D01*
X133800000Y-63490500D02*
X133800000Y-64450500D01*
X132200000Y-61890500D02*
X133800000Y-63490500D01*
X133800000Y-64450500D02*
X134947600Y-65598100D01*
X136567600Y-65598100D02*
X137720000Y-66750500D01*
%TO.N,Board_3-/IN_A1*%
X154480000Y-75130500D02*
X154480000Y-77070500D01*
X151500000Y-72050500D02*
X151500000Y-72150500D01*
X151500000Y-72150500D02*
X154480000Y-75130500D01*
%TO.N,Board_3-/IN_A2*%
X151500000Y-69510500D02*
X151500000Y-70050500D01*
X152952400Y-71490318D02*
X152952400Y-72502900D01*
X152147600Y-70698100D02*
X152160182Y-70698100D01*
X151500000Y-70050500D02*
X152147600Y-70698100D01*
X152952400Y-72502900D02*
X157020000Y-76570500D01*
X152160182Y-70698100D02*
X152952400Y-71490318D01*
%TO.N,Board_3-/IN_B1*%
X151500000Y-64950500D02*
X153300000Y-66750500D01*
X151500000Y-64430500D02*
X151500000Y-64950500D01*
X153300000Y-66750500D02*
X154480000Y-66750500D01*
%TO.N,Board_3-/IN_B2*%
X154247600Y-65598100D02*
X155867600Y-65598100D01*
X153100000Y-64450500D02*
X154247600Y-65598100D01*
X151500000Y-61890500D02*
X153100000Y-63490500D01*
X155867600Y-65598100D02*
X157020000Y-66750500D01*
X153100000Y-63490500D02*
X153100000Y-64450500D01*
%TO.N,Board_4-/IN_A1*%
X132200000Y-96250500D02*
X132200000Y-96350500D01*
X132200000Y-96350500D02*
X135180000Y-99330500D01*
X135180000Y-99330500D02*
X135180000Y-101270500D01*
%TO.N,Board_4-/IN_A2*%
X132200000Y-94250500D02*
X132847600Y-94898100D01*
X132860182Y-94898100D02*
X133652400Y-95690318D01*
X132847600Y-94898100D02*
X132860182Y-94898100D01*
X133652400Y-95690318D02*
X133652400Y-96702900D01*
X132200000Y-93710500D02*
X132200000Y-94250500D01*
X133652400Y-96702900D02*
X137720000Y-100770500D01*
%TO.N,Board_4-/IN_B1*%
X134000000Y-90950500D02*
X135180000Y-90950500D01*
X132200000Y-88630500D02*
X132200000Y-89150500D01*
X132200000Y-89150500D02*
X134000000Y-90950500D01*
%TO.N,Board_4-/IN_B2*%
X136567600Y-89798100D02*
X137720000Y-90950500D01*
X133800000Y-88650500D02*
X134947600Y-89798100D01*
X133800000Y-87690500D02*
X133800000Y-88650500D01*
X134947600Y-89798100D02*
X136567600Y-89798100D01*
X132200000Y-86090500D02*
X133800000Y-87690500D01*
%TO.N,Board_5-/IN_A1*%
X151500000Y-96350500D02*
X154480000Y-99330500D01*
X154480000Y-99330500D02*
X154480000Y-101270500D01*
X151500000Y-96250500D02*
X151500000Y-96350500D01*
%TO.N,Board_5-/IN_A2*%
X152952400Y-95690318D02*
X152952400Y-96702900D01*
X151500000Y-94250500D02*
X152147600Y-94898100D01*
X152160182Y-94898100D02*
X152952400Y-95690318D01*
X151500000Y-93710500D02*
X151500000Y-94250500D01*
X152147600Y-94898100D02*
X152160182Y-94898100D01*
X152952400Y-96702900D02*
X157020000Y-100770500D01*
%TO.N,Board_5-/IN_B1*%
X151500000Y-88630500D02*
X151500000Y-89150500D01*
X153300000Y-90950500D02*
X154480000Y-90950500D01*
X151500000Y-89150500D02*
X153300000Y-90950500D01*
%TO.N,Board_5-/IN_B2*%
X151500000Y-86090500D02*
X153100000Y-87690500D01*
X155867600Y-89798100D02*
X157020000Y-90950500D01*
X153100000Y-88650500D02*
X154247600Y-89798100D01*
X154247600Y-89798100D02*
X155867600Y-89798100D01*
X153100000Y-87690500D02*
X153100000Y-88650500D01*
%TD*%
%TA.AperFunction,Conductor*%
%TO.N,Board_3-/VM*%
G36*
X166058691Y-73474907D02*
G01*
X166094655Y-73524407D01*
X166099500Y-73555000D01*
X166099500Y-78101000D01*
X166080593Y-78159191D01*
X166031093Y-78195155D01*
X166000500Y-78200000D01*
X160899000Y-78200000D01*
X160840809Y-78181093D01*
X160804845Y-78131593D01*
X160800000Y-78101000D01*
X160800000Y-73555000D01*
X160818907Y-73496809D01*
X160868407Y-73460845D01*
X160899000Y-73456000D01*
X166000500Y-73456000D01*
X166058691Y-73474907D01*
G37*
%TD.AperFunction*%
%TD*%
%TA.AperFunction,Conductor*%
%TO.N,Board_2-/VM*%
G36*
X146758691Y-65774907D02*
G01*
X146794655Y-65824407D01*
X146799500Y-65855000D01*
X146799500Y-67946000D01*
X146780593Y-68004191D01*
X146731093Y-68040155D01*
X146700500Y-68045000D01*
X141899000Y-68045000D01*
X141840809Y-68026093D01*
X141804845Y-67976593D01*
X141800000Y-67946000D01*
X141800000Y-65855000D01*
X141818907Y-65796809D01*
X141868407Y-65760845D01*
X141899000Y-65756000D01*
X146700500Y-65756000D01*
X146758691Y-65774907D01*
G37*
%TD.AperFunction*%
%TD*%
%TA.AperFunction,Conductor*%
%TO.N,Board_2-/OUT_B1*%
G36*
X143759191Y-58269407D02*
G01*
X143795155Y-58318907D01*
X143800000Y-58349500D01*
X143800000Y-60350500D01*
X144100000Y-60650500D01*
X144696809Y-60650500D01*
X144703933Y-60650926D01*
X144703940Y-60650823D01*
X144706895Y-60650999D01*
X144706898Y-60651000D01*
X144706901Y-60651000D01*
X146493099Y-60651000D01*
X146493102Y-60651000D01*
X146493104Y-60650999D01*
X146496060Y-60650823D01*
X146496066Y-60650926D01*
X146503191Y-60650500D01*
X146700500Y-60650500D01*
X146758691Y-60669407D01*
X146794655Y-60718907D01*
X146799500Y-60749500D01*
X146799500Y-62896000D01*
X146780593Y-62954191D01*
X146731093Y-62990155D01*
X146700500Y-62995000D01*
X142435508Y-62995000D01*
X142377317Y-62976093D01*
X142365504Y-62966004D01*
X139278996Y-59879496D01*
X139251219Y-59824979D01*
X139250000Y-59809492D01*
X139250000Y-58349500D01*
X139268907Y-58291309D01*
X139318407Y-58255345D01*
X139349000Y-58250500D01*
X143701000Y-58250500D01*
X143759191Y-58269407D01*
G37*
%TD.AperFunction*%
%TD*%
%TA.AperFunction,Conductor*%
%TO.N,Board_3-/OUT_A2*%
G36*
X158195734Y-68319407D02*
G01*
X158231698Y-68368907D01*
X158231698Y-68430093D01*
X158228474Y-68438648D01*
X158228357Y-68438919D01*
X158209451Y-68497103D01*
X158194500Y-68591504D01*
X158194500Y-70309481D01*
X158195442Y-70333469D01*
X158196664Y-70348994D01*
X158197294Y-70355972D01*
X158229015Y-70463670D01*
X158256792Y-70518187D01*
X158282662Y-70553794D01*
X158312970Y-70595511D01*
X158312972Y-70595513D01*
X158312975Y-70595517D01*
X158654983Y-70937525D01*
X158672601Y-70953811D01*
X158684414Y-70963900D01*
X158689831Y-70968419D01*
X158689837Y-70968422D01*
X158689842Y-70968426D01*
X158788409Y-71022139D01*
X158788411Y-71022140D01*
X158846604Y-71041048D01*
X158846601Y-71041048D01*
X158941005Y-71056000D01*
X158941008Y-71056000D01*
X164687396Y-71056000D01*
X164687401Y-71056000D01*
X164699395Y-71055764D01*
X164704180Y-71055576D01*
X164708066Y-71055500D01*
X165091934Y-71055500D01*
X165095820Y-71055576D01*
X165100605Y-71055764D01*
X165112599Y-71056000D01*
X165112604Y-71056000D01*
X166000500Y-71056000D01*
X166058691Y-71074907D01*
X166094655Y-71124407D01*
X166099500Y-71155000D01*
X166099500Y-73051500D01*
X166080593Y-73109691D01*
X166031093Y-73145655D01*
X166000500Y-73150500D01*
X155491008Y-73150500D01*
X155432817Y-73131593D01*
X155421004Y-73121504D01*
X153678996Y-71379496D01*
X153651219Y-71324979D01*
X153650000Y-71309492D01*
X153650000Y-68399500D01*
X153668907Y-68341309D01*
X153718407Y-68305345D01*
X153749000Y-68300500D01*
X158137543Y-68300500D01*
X158195734Y-68319407D01*
G37*
%TD.AperFunction*%
%TD*%
%TA.AperFunction,Conductor*%
%TO.N,Board_2-GND*%
G36*
X131079591Y-72858570D02*
G01*
X131079593Y-72858573D01*
X131108029Y-72897713D01*
X131108031Y-72897715D01*
X131108034Y-72897719D01*
X131252781Y-73042466D01*
X131252784Y-73042468D01*
X131252786Y-73042470D01*
X131418386Y-73162785D01*
X131418390Y-73162787D01*
X131600781Y-73255720D01*
X131795466Y-73318977D01*
X131795467Y-73318977D01*
X131795470Y-73318978D01*
X131997645Y-73351000D01*
X131997648Y-73351000D01*
X132402355Y-73351000D01*
X132604530Y-73318978D01*
X132604530Y-73318977D01*
X132604534Y-73318977D01*
X132640006Y-73307450D01*
X132701188Y-73307448D01*
X132740603Y-73331600D01*
X134698104Y-75289101D01*
X134725881Y-75343618D01*
X134727100Y-75359105D01*
X134727100Y-75871000D01*
X134708193Y-75929191D01*
X134658693Y-75965155D01*
X134628100Y-75970000D01*
X134335139Y-75970000D01*
X134335136Y-75970001D01*
X134310009Y-75972914D01*
X134207235Y-76018294D01*
X134127794Y-76097735D01*
X134082414Y-76200511D01*
X134079500Y-76225630D01*
X134079500Y-77915360D01*
X134079501Y-77915363D01*
X134082414Y-77940490D01*
X134105104Y-77991878D01*
X134127794Y-78043265D01*
X134127795Y-78043266D01*
X134129019Y-78045053D01*
X134129890Y-78048011D01*
X134131500Y-78051657D01*
X134131025Y-78051866D01*
X134146305Y-78103746D01*
X134125791Y-78161390D01*
X134075312Y-78195967D01*
X134047343Y-78200000D01*
X130999500Y-78200000D01*
X130941309Y-78181093D01*
X130905345Y-78131593D01*
X130900500Y-78101000D01*
X130900500Y-72916763D01*
X130919407Y-72858572D01*
X130968907Y-72822608D01*
X131030093Y-72822608D01*
X131079591Y-72858570D01*
G37*
%TD.AperFunction*%
%TA.AperFunction,Conductor*%
G36*
X134274301Y-71706843D02*
G01*
X135904983Y-73337525D01*
X135922601Y-73353811D01*
X135934414Y-73363900D01*
X135939831Y-73368419D01*
X135939837Y-73368422D01*
X135939842Y-73368426D01*
X136038409Y-73422139D01*
X136038411Y-73422140D01*
X136096604Y-73441048D01*
X136096601Y-73441048D01*
X136191005Y-73456000D01*
X136191008Y-73456000D01*
X141095500Y-73456000D01*
X141153691Y-73474907D01*
X141189655Y-73524407D01*
X141194500Y-73555000D01*
X141194500Y-78101000D01*
X141175593Y-78159191D01*
X141126093Y-78195155D01*
X141095500Y-78200000D01*
X138852657Y-78200000D01*
X138794466Y-78181093D01*
X138758502Y-78131593D01*
X138758502Y-78070407D01*
X138770981Y-78045053D01*
X138772201Y-78043269D01*
X138772206Y-78043265D01*
X138817585Y-77940491D01*
X138820500Y-77915365D01*
X138820499Y-76225636D01*
X138817585Y-76200509D01*
X138772206Y-76097735D01*
X138692765Y-76018294D01*
X138589991Y-75972915D01*
X138589990Y-75972914D01*
X138589988Y-75972914D01*
X138564869Y-75970000D01*
X138564865Y-75970000D01*
X137801005Y-75970000D01*
X137742814Y-75951093D01*
X137731001Y-75941004D01*
X134134296Y-72344299D01*
X134106519Y-72289782D01*
X134105300Y-72274295D01*
X134105300Y-71776849D01*
X134124207Y-71718658D01*
X134173707Y-71682694D01*
X134234893Y-71682694D01*
X134274301Y-71706843D01*
G37*
%TD.AperFunction*%
%TA.AperFunction,Conductor*%
G36*
X146758691Y-57419907D02*
G01*
X146794655Y-57469407D01*
X146799500Y-57500000D01*
X146799500Y-60246000D01*
X146780593Y-60304191D01*
X146731093Y-60340155D01*
X146700500Y-60345000D01*
X146503191Y-60345000D01*
X146488127Y-60345450D01*
X146487935Y-60345456D01*
X146484978Y-60345500D01*
X144715023Y-60345500D01*
X144712067Y-60345456D01*
X144696809Y-60345000D01*
X144696804Y-60345000D01*
X144267550Y-60345000D01*
X144209359Y-60326093D01*
X144197546Y-60316004D01*
X144134496Y-60252954D01*
X144106719Y-60198437D01*
X144105500Y-60182950D01*
X144105500Y-58349506D01*
X144105500Y-58349500D01*
X144101739Y-58301714D01*
X144096894Y-58271121D01*
X144090487Y-58240746D01*
X144042309Y-58139338D01*
X144042304Y-58139331D01*
X144006348Y-58089842D01*
X144006347Y-58089841D01*
X144006345Y-58089838D01*
X143952177Y-58032581D01*
X143952176Y-58032580D01*
X143952175Y-58032579D01*
X143853598Y-57978860D01*
X143853596Y-57978859D01*
X143795403Y-57959951D01*
X143795406Y-57959951D01*
X143701003Y-57945000D01*
X143701000Y-57945000D01*
X139349000Y-57945000D01*
X139301214Y-57948761D01*
X139284800Y-57951360D01*
X139270619Y-57953606D01*
X139270614Y-57953606D01*
X139240247Y-57960012D01*
X139240242Y-57960014D01*
X139138841Y-58008189D01*
X139138829Y-58008196D01*
X139133130Y-58012337D01*
X139074939Y-58031242D01*
X139027571Y-58019172D01*
X138997013Y-58002520D01*
X138953595Y-57978859D01*
X138895403Y-57959951D01*
X138895406Y-57959951D01*
X138801003Y-57945000D01*
X138801000Y-57945000D01*
X134449000Y-57945000D01*
X134401214Y-57948761D01*
X134384800Y-57951360D01*
X134370619Y-57953606D01*
X134370614Y-57953606D01*
X134340247Y-57960012D01*
X134340242Y-57960014D01*
X134238841Y-58008189D01*
X134238831Y-58008195D01*
X134189342Y-58044151D01*
X134132079Y-58098324D01*
X134078360Y-58196901D01*
X134078359Y-58196903D01*
X134059451Y-58255095D01*
X134044500Y-58349496D01*
X134044500Y-59909481D01*
X134045442Y-59933469D01*
X134046664Y-59948994D01*
X134047294Y-59955972D01*
X134079015Y-60063670D01*
X134106792Y-60118187D01*
X134132662Y-60153794D01*
X134162970Y-60195511D01*
X134162972Y-60195513D01*
X134162975Y-60195517D01*
X134304983Y-60337525D01*
X134322601Y-60353811D01*
X134334414Y-60363900D01*
X134339831Y-60368419D01*
X134339837Y-60368422D01*
X134339842Y-60368426D01*
X134438409Y-60422139D01*
X134438411Y-60422140D01*
X134496604Y-60441048D01*
X134496601Y-60441048D01*
X134591005Y-60456000D01*
X134591008Y-60456000D01*
X135432450Y-60456000D01*
X135490641Y-60474907D01*
X135502454Y-60484996D01*
X140654983Y-65637525D01*
X140672601Y-65653811D01*
X140684414Y-65663900D01*
X140689831Y-65668419D01*
X140689837Y-65668422D01*
X140689842Y-65668426D01*
X140788409Y-65722139D01*
X140788411Y-65722140D01*
X140846604Y-65741048D01*
X140846601Y-65741048D01*
X140941005Y-65756000D01*
X140941008Y-65756000D01*
X141395500Y-65756000D01*
X141453691Y-65774907D01*
X141489655Y-65824407D01*
X141494500Y-65855000D01*
X141494500Y-67946000D01*
X141475593Y-68004191D01*
X141426093Y-68040155D01*
X141395500Y-68045000D01*
X139441008Y-68045000D01*
X139426025Y-68045588D01*
X139417030Y-68045942D01*
X139401505Y-68047164D01*
X139394527Y-68047794D01*
X139286829Y-68079515D01*
X139232310Y-68107293D01*
X139231405Y-68107951D01*
X139231047Y-68108067D01*
X139228991Y-68109327D01*
X139228688Y-68108833D01*
X139173211Y-68126850D01*
X139115023Y-68107935D01*
X139101309Y-68095887D01*
X139088721Y-68082582D01*
X139088718Y-68082579D01*
X138990141Y-68028860D01*
X138990139Y-68028859D01*
X138931946Y-68009951D01*
X138931949Y-68009951D01*
X138837546Y-67995000D01*
X138837543Y-67995000D01*
X138726571Y-67995000D01*
X138668380Y-67976093D01*
X138632416Y-67926593D01*
X138632416Y-67865407D01*
X138668380Y-67815907D01*
X138686578Y-67805437D01*
X138692765Y-67802706D01*
X138772206Y-67723265D01*
X138817585Y-67620491D01*
X138820500Y-67595365D01*
X138820499Y-65905636D01*
X138817585Y-65880509D01*
X138772206Y-65777735D01*
X138692765Y-65698294D01*
X138589991Y-65652915D01*
X138589990Y-65652914D01*
X138589988Y-65652914D01*
X138564869Y-65650000D01*
X138564865Y-65650000D01*
X137301005Y-65650000D01*
X137242814Y-65631093D01*
X137231002Y-65621004D01*
X136845687Y-65235690D01*
X136845682Y-65235686D01*
X136742416Y-65176065D01*
X136742418Y-65176065D01*
X136697724Y-65164089D01*
X136627225Y-65145200D01*
X136627223Y-65145200D01*
X135176206Y-65145200D01*
X135118015Y-65126293D01*
X135106202Y-65116204D01*
X134281896Y-64291898D01*
X134254119Y-64237381D01*
X134252900Y-64221894D01*
X134252900Y-63430876D01*
X134252900Y-63430875D01*
X134222036Y-63315687D01*
X134222034Y-63315684D01*
X134222034Y-63315682D01*
X134162413Y-63212417D01*
X134162409Y-63212412D01*
X134078087Y-63128089D01*
X134078087Y-63128090D01*
X133500215Y-62550218D01*
X133472438Y-62495701D01*
X133482008Y-62435273D01*
X133505220Y-62389719D01*
X133568477Y-62195034D01*
X133600500Y-61992852D01*
X133600500Y-61788148D01*
X133600500Y-61788144D01*
X133568478Y-61585970D01*
X133568477Y-61585966D01*
X133505220Y-61391281D01*
X133412287Y-61208890D01*
X133412285Y-61208886D01*
X133291970Y-61043286D01*
X133291967Y-61043283D01*
X133291966Y-61043281D01*
X133147219Y-60898534D01*
X133147215Y-60898531D01*
X133147213Y-60898529D01*
X132981613Y-60778214D01*
X132981609Y-60778212D01*
X132799219Y-60685280D01*
X132604529Y-60622021D01*
X132402355Y-60590000D01*
X132402352Y-60590000D01*
X131997648Y-60590000D01*
X131997645Y-60590000D01*
X131795470Y-60622021D01*
X131600780Y-60685280D01*
X131418390Y-60778212D01*
X131418386Y-60778214D01*
X131252786Y-60898529D01*
X131108032Y-61043283D01*
X131079593Y-61082427D01*
X131030093Y-61118391D01*
X130968907Y-61118391D01*
X130919407Y-61082427D01*
X130900500Y-61024236D01*
X130900500Y-57500000D01*
X130919407Y-57441809D01*
X130968907Y-57405845D01*
X130999500Y-57401000D01*
X146700500Y-57401000D01*
X146758691Y-57419907D01*
G37*
%TD.AperFunction*%
%TD*%
%TA.AperFunction,Conductor*%
%TO.N,Board_5-/OUT_B1*%
G36*
X163059191Y-82469407D02*
G01*
X163095155Y-82518907D01*
X163100000Y-82549500D01*
X163100000Y-84550500D01*
X163400000Y-84850500D01*
X163996809Y-84850500D01*
X164003933Y-84850926D01*
X164003940Y-84850823D01*
X164006895Y-84850999D01*
X164006898Y-84851000D01*
X164006901Y-84851000D01*
X165793099Y-84851000D01*
X165793102Y-84851000D01*
X165793104Y-84850999D01*
X165796060Y-84850823D01*
X165796066Y-84850926D01*
X165803191Y-84850500D01*
X166000500Y-84850500D01*
X166058691Y-84869407D01*
X166094655Y-84918907D01*
X166099500Y-84949500D01*
X166099500Y-87096000D01*
X166080593Y-87154191D01*
X166031093Y-87190155D01*
X166000500Y-87195000D01*
X161735508Y-87195000D01*
X161677317Y-87176093D01*
X161665504Y-87166004D01*
X158578996Y-84079496D01*
X158551219Y-84024979D01*
X158550000Y-84009492D01*
X158550000Y-82549500D01*
X158568907Y-82491309D01*
X158618407Y-82455345D01*
X158649000Y-82450500D01*
X163001000Y-82450500D01*
X163059191Y-82469407D01*
G37*
%TD.AperFunction*%
%TD*%
%TA.AperFunction,Conductor*%
%TO.N,Board_0-GND*%
G36*
X131079591Y-48658570D02*
G01*
X131079593Y-48658573D01*
X131108029Y-48697713D01*
X131108031Y-48697715D01*
X131108034Y-48697719D01*
X131252781Y-48842466D01*
X131252784Y-48842468D01*
X131252786Y-48842470D01*
X131418386Y-48962785D01*
X131418390Y-48962787D01*
X131600781Y-49055720D01*
X131795466Y-49118977D01*
X131795467Y-49118977D01*
X131795470Y-49118978D01*
X131997645Y-49151000D01*
X131997648Y-49151000D01*
X132402355Y-49151000D01*
X132604530Y-49118978D01*
X132604530Y-49118977D01*
X132604534Y-49118977D01*
X132640006Y-49107450D01*
X132701188Y-49107448D01*
X132740603Y-49131600D01*
X134698104Y-51089101D01*
X134725881Y-51143618D01*
X134727100Y-51159105D01*
X134727100Y-51671000D01*
X134708193Y-51729191D01*
X134658693Y-51765155D01*
X134628100Y-51770000D01*
X134335139Y-51770000D01*
X134335136Y-51770001D01*
X134310009Y-51772914D01*
X134207235Y-51818294D01*
X134127794Y-51897735D01*
X134082414Y-52000511D01*
X134079500Y-52025630D01*
X134079500Y-53715360D01*
X134079501Y-53715363D01*
X134082414Y-53740490D01*
X134105104Y-53791878D01*
X134127794Y-53843265D01*
X134127795Y-53843266D01*
X134129019Y-53845053D01*
X134129890Y-53848011D01*
X134131500Y-53851657D01*
X134131025Y-53851866D01*
X134146305Y-53903746D01*
X134125791Y-53961390D01*
X134075312Y-53995967D01*
X134047343Y-54000000D01*
X130999500Y-54000000D01*
X130941309Y-53981093D01*
X130905345Y-53931593D01*
X130900500Y-53901000D01*
X130900500Y-48716763D01*
X130919407Y-48658572D01*
X130968907Y-48622608D01*
X131030093Y-48622608D01*
X131079591Y-48658570D01*
G37*
%TD.AperFunction*%
%TA.AperFunction,Conductor*%
G36*
X134274301Y-47506843D02*
G01*
X135904983Y-49137525D01*
X135922601Y-49153811D01*
X135934414Y-49163900D01*
X135939831Y-49168419D01*
X135939837Y-49168422D01*
X135939842Y-49168426D01*
X136038409Y-49222139D01*
X136038411Y-49222140D01*
X136096604Y-49241048D01*
X136096601Y-49241048D01*
X136191005Y-49256000D01*
X136191008Y-49256000D01*
X141095500Y-49256000D01*
X141153691Y-49274907D01*
X141189655Y-49324407D01*
X141194500Y-49355000D01*
X141194500Y-53901000D01*
X141175593Y-53959191D01*
X141126093Y-53995155D01*
X141095500Y-54000000D01*
X138852657Y-54000000D01*
X138794466Y-53981093D01*
X138758502Y-53931593D01*
X138758502Y-53870407D01*
X138770981Y-53845053D01*
X138772201Y-53843269D01*
X138772206Y-53843265D01*
X138817585Y-53740491D01*
X138820500Y-53715365D01*
X138820499Y-52025636D01*
X138817585Y-52000509D01*
X138772206Y-51897735D01*
X138692765Y-51818294D01*
X138589991Y-51772915D01*
X138589990Y-51772914D01*
X138589988Y-51772914D01*
X138564869Y-51770000D01*
X138564865Y-51770000D01*
X137801005Y-51770000D01*
X137742814Y-51751093D01*
X137731001Y-51741004D01*
X134134296Y-48144299D01*
X134106519Y-48089782D01*
X134105300Y-48074295D01*
X134105300Y-47576849D01*
X134124207Y-47518658D01*
X134173707Y-47482694D01*
X134234893Y-47482694D01*
X134274301Y-47506843D01*
G37*
%TD.AperFunction*%
%TA.AperFunction,Conductor*%
G36*
X146758691Y-33219907D02*
G01*
X146794655Y-33269407D01*
X146799500Y-33300000D01*
X146799500Y-36046000D01*
X146780593Y-36104191D01*
X146731093Y-36140155D01*
X146700500Y-36145000D01*
X146503191Y-36145000D01*
X146488127Y-36145450D01*
X146487935Y-36145456D01*
X146484978Y-36145500D01*
X144715023Y-36145500D01*
X144712067Y-36145456D01*
X144696809Y-36145000D01*
X144696804Y-36145000D01*
X144267550Y-36145000D01*
X144209359Y-36126093D01*
X144197546Y-36116004D01*
X144134496Y-36052954D01*
X144106719Y-35998437D01*
X144105500Y-35982950D01*
X144105500Y-34149506D01*
X144105500Y-34149500D01*
X144101739Y-34101714D01*
X144096894Y-34071121D01*
X144090487Y-34040746D01*
X144042309Y-33939338D01*
X144042304Y-33939331D01*
X144006348Y-33889842D01*
X144006347Y-33889841D01*
X144006345Y-33889838D01*
X143952177Y-33832581D01*
X143952176Y-33832580D01*
X143952175Y-33832579D01*
X143853598Y-33778860D01*
X143853596Y-33778859D01*
X143795403Y-33759951D01*
X143795406Y-33759951D01*
X143701003Y-33745000D01*
X143701000Y-33745000D01*
X139349000Y-33745000D01*
X139301214Y-33748761D01*
X139284800Y-33751360D01*
X139270619Y-33753606D01*
X139270614Y-33753606D01*
X139240247Y-33760012D01*
X139240242Y-33760014D01*
X139138841Y-33808189D01*
X139138829Y-33808196D01*
X139133130Y-33812337D01*
X139074939Y-33831242D01*
X139027571Y-33819172D01*
X138997013Y-33802520D01*
X138953595Y-33778859D01*
X138895403Y-33759951D01*
X138895406Y-33759951D01*
X138801003Y-33745000D01*
X138801000Y-33745000D01*
X134449000Y-33745000D01*
X134401214Y-33748761D01*
X134384800Y-33751360D01*
X134370619Y-33753606D01*
X134370614Y-33753606D01*
X134340247Y-33760012D01*
X134340242Y-33760014D01*
X134238841Y-33808189D01*
X134238831Y-33808195D01*
X134189342Y-33844151D01*
X134132079Y-33898324D01*
X134078360Y-33996901D01*
X134078359Y-33996903D01*
X134059451Y-34055095D01*
X134044500Y-34149496D01*
X134044500Y-35709481D01*
X134045442Y-35733469D01*
X134046664Y-35748994D01*
X134047294Y-35755972D01*
X134079015Y-35863670D01*
X134106792Y-35918187D01*
X134132662Y-35953794D01*
X134162970Y-35995511D01*
X134162972Y-35995513D01*
X134162975Y-35995517D01*
X134304983Y-36137525D01*
X134322601Y-36153811D01*
X134334414Y-36163900D01*
X134339831Y-36168419D01*
X134339837Y-36168422D01*
X134339842Y-36168426D01*
X134438409Y-36222139D01*
X134438411Y-36222140D01*
X134496604Y-36241048D01*
X134496601Y-36241048D01*
X134591005Y-36256000D01*
X134591008Y-36256000D01*
X135432450Y-36256000D01*
X135490641Y-36274907D01*
X135502454Y-36284996D01*
X140654983Y-41437525D01*
X140672601Y-41453811D01*
X140684414Y-41463900D01*
X140689831Y-41468419D01*
X140689837Y-41468422D01*
X140689842Y-41468426D01*
X140788409Y-41522139D01*
X140788411Y-41522140D01*
X140846604Y-41541048D01*
X140846601Y-41541048D01*
X140941005Y-41556000D01*
X140941008Y-41556000D01*
X141395500Y-41556000D01*
X141453691Y-41574907D01*
X141489655Y-41624407D01*
X141494500Y-41655000D01*
X141494500Y-43746000D01*
X141475593Y-43804191D01*
X141426093Y-43840155D01*
X141395500Y-43845000D01*
X139441008Y-43845000D01*
X139426025Y-43845588D01*
X139417030Y-43845942D01*
X139401505Y-43847164D01*
X139394527Y-43847794D01*
X139286829Y-43879515D01*
X139232310Y-43907293D01*
X139231405Y-43907951D01*
X139231047Y-43908067D01*
X139228991Y-43909327D01*
X139228688Y-43908833D01*
X139173211Y-43926850D01*
X139115023Y-43907935D01*
X139101309Y-43895887D01*
X139088721Y-43882582D01*
X139088718Y-43882579D01*
X138990141Y-43828860D01*
X138990139Y-43828859D01*
X138931946Y-43809951D01*
X138931949Y-43809951D01*
X138837546Y-43795000D01*
X138837543Y-43795000D01*
X138726571Y-43795000D01*
X138668380Y-43776093D01*
X138632416Y-43726593D01*
X138632416Y-43665407D01*
X138668380Y-43615907D01*
X138686578Y-43605437D01*
X138692765Y-43602706D01*
X138772206Y-43523265D01*
X138817585Y-43420491D01*
X138820500Y-43395365D01*
X138820499Y-41705636D01*
X138817585Y-41680509D01*
X138772206Y-41577735D01*
X138692765Y-41498294D01*
X138589991Y-41452915D01*
X138589990Y-41452914D01*
X138589988Y-41452914D01*
X138564869Y-41450000D01*
X138564865Y-41450000D01*
X137301005Y-41450000D01*
X137242814Y-41431093D01*
X137231002Y-41421004D01*
X136845687Y-41035690D01*
X136845682Y-41035686D01*
X136742416Y-40976065D01*
X136742418Y-40976065D01*
X136697724Y-40964089D01*
X136627225Y-40945200D01*
X136627223Y-40945200D01*
X135176206Y-40945200D01*
X135118015Y-40926293D01*
X135106202Y-40916204D01*
X134281896Y-40091898D01*
X134254119Y-40037381D01*
X134252900Y-40021894D01*
X134252900Y-39230876D01*
X134252900Y-39230875D01*
X134222036Y-39115687D01*
X134222034Y-39115684D01*
X134222034Y-39115682D01*
X134162413Y-39012417D01*
X134162409Y-39012412D01*
X134078087Y-38928089D01*
X134078087Y-38928090D01*
X133500215Y-38350218D01*
X133472438Y-38295701D01*
X133482008Y-38235273D01*
X133505220Y-38189719D01*
X133568477Y-37995034D01*
X133600500Y-37792852D01*
X133600500Y-37588148D01*
X133600500Y-37588144D01*
X133568478Y-37385970D01*
X133568477Y-37385966D01*
X133505220Y-37191281D01*
X133412287Y-37008890D01*
X133412285Y-37008886D01*
X133291970Y-36843286D01*
X133291967Y-36843283D01*
X133291966Y-36843281D01*
X133147219Y-36698534D01*
X133147215Y-36698531D01*
X133147213Y-36698529D01*
X132981613Y-36578214D01*
X132981609Y-36578212D01*
X132799219Y-36485280D01*
X132604529Y-36422021D01*
X132402355Y-36390000D01*
X132402352Y-36390000D01*
X131997648Y-36390000D01*
X131997645Y-36390000D01*
X131795470Y-36422021D01*
X131600780Y-36485280D01*
X131418390Y-36578212D01*
X131418386Y-36578214D01*
X131252786Y-36698529D01*
X131108032Y-36843283D01*
X131079593Y-36882427D01*
X131030093Y-36918391D01*
X130968907Y-36918391D01*
X130919407Y-36882427D01*
X130900500Y-36824236D01*
X130900500Y-33300000D01*
X130919407Y-33241809D01*
X130968907Y-33205845D01*
X130999500Y-33201000D01*
X146700500Y-33201000D01*
X146758691Y-33219907D01*
G37*
%TD.AperFunction*%
%TD*%
%TA.AperFunction,Conductor*%
%TO.N,Board_0-/OUT_B1*%
G36*
X143759191Y-34069407D02*
G01*
X143795155Y-34118907D01*
X143800000Y-34149500D01*
X143800000Y-36150500D01*
X144100000Y-36450500D01*
X144696809Y-36450500D01*
X144703933Y-36450926D01*
X144703940Y-36450823D01*
X144706895Y-36450999D01*
X144706898Y-36451000D01*
X144706901Y-36451000D01*
X146493099Y-36451000D01*
X146493102Y-36451000D01*
X146493104Y-36450999D01*
X146496060Y-36450823D01*
X146496066Y-36450926D01*
X146503191Y-36450500D01*
X146700500Y-36450500D01*
X146758691Y-36469407D01*
X146794655Y-36518907D01*
X146799500Y-36549500D01*
X146799500Y-38696000D01*
X146780593Y-38754191D01*
X146731093Y-38790155D01*
X146700500Y-38795000D01*
X142435508Y-38795000D01*
X142377317Y-38776093D01*
X142365504Y-38766004D01*
X139278996Y-35679496D01*
X139251219Y-35624979D01*
X139250000Y-35609492D01*
X139250000Y-34149500D01*
X139268907Y-34091309D01*
X139318407Y-34055345D01*
X139349000Y-34050500D01*
X143701000Y-34050500D01*
X143759191Y-34069407D01*
G37*
%TD.AperFunction*%
%TD*%
%TA.AperFunction,Conductor*%
%TO.N,Board_3-/OUT_A1*%
G36*
X166058691Y-68369407D02*
G01*
X166094655Y-68418907D01*
X166099500Y-68449500D01*
X166099500Y-70651500D01*
X166080593Y-70709691D01*
X166031093Y-70745655D01*
X166000500Y-70750500D01*
X165112599Y-70750500D01*
X165104836Y-70750195D01*
X165102357Y-70750000D01*
X165102352Y-70750000D01*
X164697648Y-70750000D01*
X164697643Y-70750000D01*
X164695164Y-70750195D01*
X164687401Y-70750500D01*
X158941008Y-70750500D01*
X158882817Y-70731593D01*
X158871004Y-70721504D01*
X158528996Y-70379496D01*
X158501219Y-70324979D01*
X158500000Y-70309492D01*
X158500000Y-68591508D01*
X158518907Y-68533317D01*
X158528996Y-68521504D01*
X158671004Y-68379496D01*
X158725521Y-68351719D01*
X158741008Y-68350500D01*
X166000500Y-68350500D01*
X166058691Y-68369407D01*
G37*
%TD.AperFunction*%
%TD*%
%TA.AperFunction,Conductor*%
%TO.N,Board_0-/OUT_A1*%
G36*
X146758691Y-44169407D02*
G01*
X146794655Y-44218907D01*
X146799500Y-44249500D01*
X146799500Y-46451500D01*
X146780593Y-46509691D01*
X146731093Y-46545655D01*
X146700500Y-46550500D01*
X145812599Y-46550500D01*
X145804836Y-46550195D01*
X145802357Y-46550000D01*
X145802352Y-46550000D01*
X145397648Y-46550000D01*
X145397643Y-46550000D01*
X145395164Y-46550195D01*
X145387401Y-46550500D01*
X139641008Y-46550500D01*
X139582817Y-46531593D01*
X139571004Y-46521504D01*
X139228996Y-46179496D01*
X139201219Y-46124979D01*
X139200000Y-46109492D01*
X139200000Y-44391508D01*
X139218907Y-44333317D01*
X139228996Y-44321504D01*
X139371004Y-44179496D01*
X139425521Y-44151719D01*
X139441008Y-44150500D01*
X146700500Y-44150500D01*
X146758691Y-44169407D01*
G37*
%TD.AperFunction*%
%TD*%
%TA.AperFunction,Conductor*%
%TO.N,Board_2-/VM*%
G36*
X146758691Y-73474907D02*
G01*
X146794655Y-73524407D01*
X146799500Y-73555000D01*
X146799500Y-78101000D01*
X146780593Y-78159191D01*
X146731093Y-78195155D01*
X146700500Y-78200000D01*
X141599000Y-78200000D01*
X141540809Y-78181093D01*
X141504845Y-78131593D01*
X141500000Y-78101000D01*
X141500000Y-73555000D01*
X141518907Y-73496809D01*
X141568407Y-73460845D01*
X141599000Y-73456000D01*
X146700500Y-73456000D01*
X146758691Y-73474907D01*
G37*
%TD.AperFunction*%
%TD*%
%TA.AperFunction,Conductor*%
%TO.N,Board_3-/VM*%
G36*
X166058691Y-65774907D02*
G01*
X166094655Y-65824407D01*
X166099500Y-65855000D01*
X166099500Y-67946000D01*
X166080593Y-68004191D01*
X166031093Y-68040155D01*
X166000500Y-68045000D01*
X161199000Y-68045000D01*
X161140809Y-68026093D01*
X161104845Y-67976593D01*
X161100000Y-67946000D01*
X161100000Y-65855000D01*
X161118907Y-65796809D01*
X161168407Y-65760845D01*
X161199000Y-65756000D01*
X166000500Y-65756000D01*
X166058691Y-65774907D01*
G37*
%TD.AperFunction*%
%TD*%
%TA.AperFunction,Conductor*%
%TO.N,Board_4-/OUT_A1*%
G36*
X146758691Y-92569407D02*
G01*
X146794655Y-92618907D01*
X146799500Y-92649500D01*
X146799500Y-94851500D01*
X146780593Y-94909691D01*
X146731093Y-94945655D01*
X146700500Y-94950500D01*
X145812599Y-94950500D01*
X145804836Y-94950195D01*
X145802357Y-94950000D01*
X145802352Y-94950000D01*
X145397648Y-94950000D01*
X145397643Y-94950000D01*
X145395164Y-94950195D01*
X145387401Y-94950500D01*
X139641008Y-94950500D01*
X139582817Y-94931593D01*
X139571004Y-94921504D01*
X139228996Y-94579496D01*
X139201219Y-94524979D01*
X139200000Y-94509492D01*
X139200000Y-92791508D01*
X139218907Y-92733317D01*
X139228996Y-92721504D01*
X139371004Y-92579496D01*
X139425521Y-92551719D01*
X139441008Y-92550500D01*
X146700500Y-92550500D01*
X146758691Y-92569407D01*
G37*
%TD.AperFunction*%
%TD*%
%TA.AperFunction,Conductor*%
%TO.N,Board_2-/OUT_B2*%
G36*
X138859191Y-58269407D02*
G01*
X138895155Y-58318907D01*
X138900000Y-58349500D01*
X138900000Y-59950500D01*
X142250000Y-63300500D01*
X146700500Y-63300500D01*
X146758691Y-63319407D01*
X146794655Y-63368907D01*
X146799500Y-63399500D01*
X146799500Y-65351500D01*
X146780593Y-65409691D01*
X146731093Y-65445655D01*
X146700500Y-65450500D01*
X140941008Y-65450500D01*
X140882817Y-65431593D01*
X140871004Y-65421504D01*
X138750000Y-63300500D01*
X135600000Y-60150500D01*
X135599999Y-60150500D01*
X134591008Y-60150500D01*
X134532817Y-60131593D01*
X134521004Y-60121504D01*
X134378996Y-59979496D01*
X134351219Y-59924979D01*
X134350000Y-59909492D01*
X134350000Y-58349500D01*
X134368907Y-58291309D01*
X134418407Y-58255345D01*
X134449000Y-58250500D01*
X138801000Y-58250500D01*
X138859191Y-58269407D01*
G37*
%TD.AperFunction*%
%TD*%
%TA.AperFunction,Conductor*%
%TO.N,Board_4-/VM*%
G36*
X146758691Y-97674907D02*
G01*
X146794655Y-97724407D01*
X146799500Y-97755000D01*
X146799500Y-102301000D01*
X146780593Y-102359191D01*
X146731093Y-102395155D01*
X146700500Y-102400000D01*
X141599000Y-102400000D01*
X141540809Y-102381093D01*
X141504845Y-102331593D01*
X141500000Y-102301000D01*
X141500000Y-97755000D01*
X141518907Y-97696809D01*
X141568407Y-97660845D01*
X141599000Y-97656000D01*
X146700500Y-97656000D01*
X146758691Y-97674907D01*
G37*
%TD.AperFunction*%
%TD*%
%TA.AperFunction,Conductor*%
%TO.N,Board_4-GND*%
G36*
X131079591Y-97058570D02*
G01*
X131079593Y-97058573D01*
X131108029Y-97097713D01*
X131108031Y-97097715D01*
X131108034Y-97097719D01*
X131252781Y-97242466D01*
X131252784Y-97242468D01*
X131252786Y-97242470D01*
X131418386Y-97362785D01*
X131418390Y-97362787D01*
X131600781Y-97455720D01*
X131795466Y-97518977D01*
X131795467Y-97518977D01*
X131795470Y-97518978D01*
X131997645Y-97551000D01*
X131997648Y-97551000D01*
X132402355Y-97551000D01*
X132604530Y-97518978D01*
X132604530Y-97518977D01*
X132604534Y-97518977D01*
X132640006Y-97507450D01*
X132701188Y-97507448D01*
X132740603Y-97531600D01*
X134698104Y-99489101D01*
X134725881Y-99543618D01*
X134727100Y-99559105D01*
X134727100Y-100071000D01*
X134708193Y-100129191D01*
X134658693Y-100165155D01*
X134628100Y-100170000D01*
X134335139Y-100170000D01*
X134335136Y-100170001D01*
X134310009Y-100172914D01*
X134207235Y-100218294D01*
X134127794Y-100297735D01*
X134082414Y-100400511D01*
X134079500Y-100425630D01*
X134079500Y-102115360D01*
X134079501Y-102115363D01*
X134082414Y-102140490D01*
X134105104Y-102191878D01*
X134127794Y-102243265D01*
X134127795Y-102243266D01*
X134129019Y-102245053D01*
X134129890Y-102248011D01*
X134131500Y-102251657D01*
X134131025Y-102251866D01*
X134146305Y-102303746D01*
X134125791Y-102361390D01*
X134075312Y-102395967D01*
X134047343Y-102400000D01*
X130999500Y-102400000D01*
X130941309Y-102381093D01*
X130905345Y-102331593D01*
X130900500Y-102301000D01*
X130900500Y-97116763D01*
X130919407Y-97058572D01*
X130968907Y-97022608D01*
X131030093Y-97022608D01*
X131079591Y-97058570D01*
G37*
%TD.AperFunction*%
%TA.AperFunction,Conductor*%
G36*
X134274301Y-95906843D02*
G01*
X135904983Y-97537525D01*
X135922601Y-97553811D01*
X135934414Y-97563900D01*
X135939831Y-97568419D01*
X135939837Y-97568422D01*
X135939842Y-97568426D01*
X136038409Y-97622139D01*
X136038411Y-97622140D01*
X136096604Y-97641048D01*
X136096601Y-97641048D01*
X136191005Y-97656000D01*
X136191008Y-97656000D01*
X141095500Y-97656000D01*
X141153691Y-97674907D01*
X141189655Y-97724407D01*
X141194500Y-97755000D01*
X141194500Y-102301000D01*
X141175593Y-102359191D01*
X141126093Y-102395155D01*
X141095500Y-102400000D01*
X138852657Y-102400000D01*
X138794466Y-102381093D01*
X138758502Y-102331593D01*
X138758502Y-102270407D01*
X138770981Y-102245053D01*
X138772201Y-102243269D01*
X138772206Y-102243265D01*
X138817585Y-102140491D01*
X138820500Y-102115365D01*
X138820499Y-100425636D01*
X138817585Y-100400509D01*
X138772206Y-100297735D01*
X138692765Y-100218294D01*
X138589991Y-100172915D01*
X138589990Y-100172914D01*
X138589988Y-100172914D01*
X138564869Y-100170000D01*
X138564865Y-100170000D01*
X137801005Y-100170000D01*
X137742814Y-100151093D01*
X137731001Y-100141004D01*
X134134296Y-96544299D01*
X134106519Y-96489782D01*
X134105300Y-96474295D01*
X134105300Y-95976849D01*
X134124207Y-95918658D01*
X134173707Y-95882694D01*
X134234893Y-95882694D01*
X134274301Y-95906843D01*
G37*
%TD.AperFunction*%
%TA.AperFunction,Conductor*%
G36*
X146758691Y-81619907D02*
G01*
X146794655Y-81669407D01*
X146799500Y-81700000D01*
X146799500Y-84446000D01*
X146780593Y-84504191D01*
X146731093Y-84540155D01*
X146700500Y-84545000D01*
X146503191Y-84545000D01*
X146488127Y-84545450D01*
X146487935Y-84545456D01*
X146484978Y-84545500D01*
X144715023Y-84545500D01*
X144712067Y-84545456D01*
X144696809Y-84545000D01*
X144696804Y-84545000D01*
X144267550Y-84545000D01*
X144209359Y-84526093D01*
X144197546Y-84516004D01*
X144134496Y-84452954D01*
X144106719Y-84398437D01*
X144105500Y-84382950D01*
X144105500Y-82549506D01*
X144105500Y-82549500D01*
X144101739Y-82501714D01*
X144096894Y-82471121D01*
X144090487Y-82440746D01*
X144042309Y-82339338D01*
X144042304Y-82339331D01*
X144006348Y-82289842D01*
X144006347Y-82289841D01*
X144006345Y-82289838D01*
X143952177Y-82232581D01*
X143952176Y-82232580D01*
X143952175Y-82232579D01*
X143853598Y-82178860D01*
X143853596Y-82178859D01*
X143795403Y-82159951D01*
X143795406Y-82159951D01*
X143701003Y-82145000D01*
X143701000Y-82145000D01*
X139349000Y-82145000D01*
X139301214Y-82148761D01*
X139284800Y-82151360D01*
X139270619Y-82153606D01*
X139270614Y-82153606D01*
X139240247Y-82160012D01*
X139240242Y-82160014D01*
X139138841Y-82208189D01*
X139138829Y-82208196D01*
X139133130Y-82212337D01*
X139074939Y-82231242D01*
X139027571Y-82219172D01*
X138997013Y-82202520D01*
X138953595Y-82178859D01*
X138895403Y-82159951D01*
X138895406Y-82159951D01*
X138801003Y-82145000D01*
X138801000Y-82145000D01*
X134449000Y-82145000D01*
X134401214Y-82148761D01*
X134384800Y-82151360D01*
X134370619Y-82153606D01*
X134370614Y-82153606D01*
X134340247Y-82160012D01*
X134340242Y-82160014D01*
X134238841Y-82208189D01*
X134238831Y-82208195D01*
X134189342Y-82244151D01*
X134132079Y-82298324D01*
X134078360Y-82396901D01*
X134078359Y-82396903D01*
X134059451Y-82455095D01*
X134044500Y-82549496D01*
X134044500Y-84109481D01*
X134045442Y-84133469D01*
X134046664Y-84148994D01*
X134047294Y-84155972D01*
X134079015Y-84263670D01*
X134106792Y-84318187D01*
X134132662Y-84353794D01*
X134162970Y-84395511D01*
X134162972Y-84395513D01*
X134162975Y-84395517D01*
X134304983Y-84537525D01*
X134322601Y-84553811D01*
X134334414Y-84563900D01*
X134339831Y-84568419D01*
X134339837Y-84568422D01*
X134339842Y-84568426D01*
X134438409Y-84622139D01*
X134438411Y-84622140D01*
X134496604Y-84641048D01*
X134496601Y-84641048D01*
X134591005Y-84656000D01*
X134591008Y-84656000D01*
X135432450Y-84656000D01*
X135490641Y-84674907D01*
X135502454Y-84684996D01*
X140654983Y-89837525D01*
X140672601Y-89853811D01*
X140684414Y-89863900D01*
X140689831Y-89868419D01*
X140689837Y-89868422D01*
X140689842Y-89868426D01*
X140788409Y-89922139D01*
X140788411Y-89922140D01*
X140846604Y-89941048D01*
X140846601Y-89941048D01*
X140941005Y-89956000D01*
X140941008Y-89956000D01*
X141395500Y-89956000D01*
X141453691Y-89974907D01*
X141489655Y-90024407D01*
X141494500Y-90055000D01*
X141494500Y-92146000D01*
X141475593Y-92204191D01*
X141426093Y-92240155D01*
X141395500Y-92245000D01*
X139441008Y-92245000D01*
X139426025Y-92245588D01*
X139417030Y-92245942D01*
X139401505Y-92247164D01*
X139394527Y-92247794D01*
X139286829Y-92279515D01*
X139232310Y-92307293D01*
X139231405Y-92307951D01*
X139231047Y-92308067D01*
X139228991Y-92309327D01*
X139228688Y-92308833D01*
X139173211Y-92326850D01*
X139115023Y-92307935D01*
X139101309Y-92295887D01*
X139088721Y-92282582D01*
X139088718Y-92282579D01*
X138990141Y-92228860D01*
X138990139Y-92228859D01*
X138931946Y-92209951D01*
X138931949Y-92209951D01*
X138837546Y-92195000D01*
X138837543Y-92195000D01*
X138726571Y-92195000D01*
X138668380Y-92176093D01*
X138632416Y-92126593D01*
X138632416Y-92065407D01*
X138668380Y-92015907D01*
X138686578Y-92005437D01*
X138692765Y-92002706D01*
X138772206Y-91923265D01*
X138817585Y-91820491D01*
X138820500Y-91795365D01*
X138820499Y-90105636D01*
X138817585Y-90080509D01*
X138772206Y-89977735D01*
X138692765Y-89898294D01*
X138589991Y-89852915D01*
X138589990Y-89852914D01*
X138589988Y-89852914D01*
X138564869Y-89850000D01*
X138564865Y-89850000D01*
X137301005Y-89850000D01*
X137242814Y-89831093D01*
X137231002Y-89821004D01*
X136845687Y-89435690D01*
X136845682Y-89435686D01*
X136742416Y-89376065D01*
X136742418Y-89376065D01*
X136697724Y-89364089D01*
X136627225Y-89345200D01*
X136627223Y-89345200D01*
X135176206Y-89345200D01*
X135118015Y-89326293D01*
X135106202Y-89316204D01*
X134281896Y-88491898D01*
X134254119Y-88437381D01*
X134252900Y-88421894D01*
X134252900Y-87630876D01*
X134252900Y-87630875D01*
X134222036Y-87515687D01*
X134222034Y-87515684D01*
X134222034Y-87515682D01*
X134162413Y-87412417D01*
X134162409Y-87412412D01*
X134078087Y-87328089D01*
X134078087Y-87328090D01*
X133500215Y-86750218D01*
X133472438Y-86695701D01*
X133482008Y-86635273D01*
X133505220Y-86589719D01*
X133568477Y-86395034D01*
X133600500Y-86192852D01*
X133600500Y-85988148D01*
X133600500Y-85988144D01*
X133568478Y-85785970D01*
X133568477Y-85785966D01*
X133505220Y-85591281D01*
X133412287Y-85408890D01*
X133412285Y-85408886D01*
X133291970Y-85243286D01*
X133291967Y-85243283D01*
X133291966Y-85243281D01*
X133147219Y-85098534D01*
X133147215Y-85098531D01*
X133147213Y-85098529D01*
X132981613Y-84978214D01*
X132981609Y-84978212D01*
X132799219Y-84885280D01*
X132604529Y-84822021D01*
X132402355Y-84790000D01*
X132402352Y-84790000D01*
X131997648Y-84790000D01*
X131997645Y-84790000D01*
X131795470Y-84822021D01*
X131600780Y-84885280D01*
X131418390Y-84978212D01*
X131418386Y-84978214D01*
X131252786Y-85098529D01*
X131108032Y-85243283D01*
X131079593Y-85282427D01*
X131030093Y-85318391D01*
X130968907Y-85318391D01*
X130919407Y-85282427D01*
X130900500Y-85224236D01*
X130900500Y-81700000D01*
X130919407Y-81641809D01*
X130968907Y-81605845D01*
X130999500Y-81601000D01*
X146700500Y-81601000D01*
X146758691Y-81619907D01*
G37*
%TD.AperFunction*%
%TD*%
%TA.AperFunction,Conductor*%
%TO.N,Board_4-/OUT_A2*%
G36*
X138895734Y-92519407D02*
G01*
X138931698Y-92568907D01*
X138931698Y-92630093D01*
X138928474Y-92638648D01*
X138928357Y-92638919D01*
X138909451Y-92697103D01*
X138894500Y-92791504D01*
X138894500Y-94509481D01*
X138895442Y-94533469D01*
X138896664Y-94548994D01*
X138897294Y-94555972D01*
X138929015Y-94663670D01*
X138956792Y-94718187D01*
X138982662Y-94753794D01*
X139012970Y-94795511D01*
X139012972Y-94795513D01*
X139012975Y-94795517D01*
X139354983Y-95137525D01*
X139372601Y-95153811D01*
X139384414Y-95163900D01*
X139389831Y-95168419D01*
X139389837Y-95168422D01*
X139389842Y-95168426D01*
X139488409Y-95222139D01*
X139488411Y-95222140D01*
X139546604Y-95241048D01*
X139546601Y-95241048D01*
X139641005Y-95256000D01*
X139641008Y-95256000D01*
X145387396Y-95256000D01*
X145387401Y-95256000D01*
X145399395Y-95255764D01*
X145404180Y-95255576D01*
X145408066Y-95255500D01*
X145791934Y-95255500D01*
X145795820Y-95255576D01*
X145800605Y-95255764D01*
X145812599Y-95256000D01*
X145812604Y-95256000D01*
X146700500Y-95256000D01*
X146758691Y-95274907D01*
X146794655Y-95324407D01*
X146799500Y-95355000D01*
X146799500Y-97251500D01*
X146780593Y-97309691D01*
X146731093Y-97345655D01*
X146700500Y-97350500D01*
X136191008Y-97350500D01*
X136132817Y-97331593D01*
X136121004Y-97321504D01*
X134378996Y-95579496D01*
X134351219Y-95524979D01*
X134350000Y-95509492D01*
X134350000Y-92599500D01*
X134368907Y-92541309D01*
X134418407Y-92505345D01*
X134449000Y-92500500D01*
X138837543Y-92500500D01*
X138895734Y-92519407D01*
G37*
%TD.AperFunction*%
%TD*%
%TA.AperFunction,Conductor*%
%TO.N,Board_0-/OUT_B2*%
G36*
X138859191Y-34069407D02*
G01*
X138895155Y-34118907D01*
X138900000Y-34149500D01*
X138900000Y-35750500D01*
X142250000Y-39100500D01*
X146700500Y-39100500D01*
X146758691Y-39119407D01*
X146794655Y-39168907D01*
X146799500Y-39199500D01*
X146799500Y-41151500D01*
X146780593Y-41209691D01*
X146731093Y-41245655D01*
X146700500Y-41250500D01*
X140941008Y-41250500D01*
X140882817Y-41231593D01*
X140871004Y-41221504D01*
X138750000Y-39100500D01*
X135600000Y-35950500D01*
X135599999Y-35950500D01*
X134591008Y-35950500D01*
X134532817Y-35931593D01*
X134521004Y-35921504D01*
X134378996Y-35779496D01*
X134351219Y-35724979D01*
X134350000Y-35709492D01*
X134350000Y-34149500D01*
X134368907Y-34091309D01*
X134418407Y-34055345D01*
X134449000Y-34050500D01*
X138801000Y-34050500D01*
X138859191Y-34069407D01*
G37*
%TD.AperFunction*%
%TD*%
%TA.AperFunction,Conductor*%
%TO.N,Board_1-/VM*%
G36*
X166058691Y-49274907D02*
G01*
X166094655Y-49324407D01*
X166099500Y-49355000D01*
X166099500Y-53901000D01*
X166080593Y-53959191D01*
X166031093Y-53995155D01*
X166000500Y-54000000D01*
X160899000Y-54000000D01*
X160840809Y-53981093D01*
X160804845Y-53931593D01*
X160800000Y-53901000D01*
X160800000Y-49355000D01*
X160818907Y-49296809D01*
X160868407Y-49260845D01*
X160899000Y-49256000D01*
X166000500Y-49256000D01*
X166058691Y-49274907D01*
G37*
%TD.AperFunction*%
%TD*%
%TA.AperFunction,Conductor*%
%TO.N,Board_0-/VM*%
G36*
X146758691Y-41574907D02*
G01*
X146794655Y-41624407D01*
X146799500Y-41655000D01*
X146799500Y-43746000D01*
X146780593Y-43804191D01*
X146731093Y-43840155D01*
X146700500Y-43845000D01*
X141899000Y-43845000D01*
X141840809Y-43826093D01*
X141804845Y-43776593D01*
X141800000Y-43746000D01*
X141800000Y-41655000D01*
X141818907Y-41596809D01*
X141868407Y-41560845D01*
X141899000Y-41556000D01*
X146700500Y-41556000D01*
X146758691Y-41574907D01*
G37*
%TD.AperFunction*%
%TD*%
%TA.AperFunction,Conductor*%
%TO.N,Board_0-/VM*%
G36*
X146758691Y-49274907D02*
G01*
X146794655Y-49324407D01*
X146799500Y-49355000D01*
X146799500Y-53901000D01*
X146780593Y-53959191D01*
X146731093Y-53995155D01*
X146700500Y-54000000D01*
X141599000Y-54000000D01*
X141540809Y-53981093D01*
X141504845Y-53931593D01*
X141500000Y-53901000D01*
X141500000Y-49355000D01*
X141518907Y-49296809D01*
X141568407Y-49260845D01*
X141599000Y-49256000D01*
X146700500Y-49256000D01*
X146758691Y-49274907D01*
G37*
%TD.AperFunction*%
%TD*%
%TA.AperFunction,Conductor*%
%TO.N,Board_5-/OUT_A2*%
G36*
X158195734Y-92519407D02*
G01*
X158231698Y-92568907D01*
X158231698Y-92630093D01*
X158228474Y-92638648D01*
X158228357Y-92638919D01*
X158209451Y-92697103D01*
X158194500Y-92791504D01*
X158194500Y-94509481D01*
X158195442Y-94533469D01*
X158196664Y-94548994D01*
X158197294Y-94555972D01*
X158229015Y-94663670D01*
X158256792Y-94718187D01*
X158282662Y-94753794D01*
X158312970Y-94795511D01*
X158312972Y-94795513D01*
X158312975Y-94795517D01*
X158654983Y-95137525D01*
X158672601Y-95153811D01*
X158684414Y-95163900D01*
X158689831Y-95168419D01*
X158689837Y-95168422D01*
X158689842Y-95168426D01*
X158788409Y-95222139D01*
X158788411Y-95222140D01*
X158846604Y-95241048D01*
X158846601Y-95241048D01*
X158941005Y-95256000D01*
X158941008Y-95256000D01*
X164687396Y-95256000D01*
X164687401Y-95256000D01*
X164699395Y-95255764D01*
X164704180Y-95255576D01*
X164708066Y-95255500D01*
X165091934Y-95255500D01*
X165095820Y-95255576D01*
X165100605Y-95255764D01*
X165112599Y-95256000D01*
X165112604Y-95256000D01*
X166000500Y-95256000D01*
X166058691Y-95274907D01*
X166094655Y-95324407D01*
X166099500Y-95355000D01*
X166099500Y-97251500D01*
X166080593Y-97309691D01*
X166031093Y-97345655D01*
X166000500Y-97350500D01*
X155491008Y-97350500D01*
X155432817Y-97331593D01*
X155421004Y-97321504D01*
X153678996Y-95579496D01*
X153651219Y-95524979D01*
X153650000Y-95509492D01*
X153650000Y-92599500D01*
X153668907Y-92541309D01*
X153718407Y-92505345D01*
X153749000Y-92500500D01*
X158137543Y-92500500D01*
X158195734Y-92519407D01*
G37*
%TD.AperFunction*%
%TD*%
%TA.AperFunction,Conductor*%
%TO.N,Board_4-/OUT_B1*%
G36*
X143759191Y-82469407D02*
G01*
X143795155Y-82518907D01*
X143800000Y-82549500D01*
X143800000Y-84550500D01*
X144100000Y-84850500D01*
X144696809Y-84850500D01*
X144703933Y-84850926D01*
X144703940Y-84850823D01*
X144706895Y-84850999D01*
X144706898Y-84851000D01*
X144706901Y-84851000D01*
X146493099Y-84851000D01*
X146493102Y-84851000D01*
X146493104Y-84850999D01*
X146496060Y-84850823D01*
X146496066Y-84850926D01*
X146503191Y-84850500D01*
X146700500Y-84850500D01*
X146758691Y-84869407D01*
X146794655Y-84918907D01*
X146799500Y-84949500D01*
X146799500Y-87096000D01*
X146780593Y-87154191D01*
X146731093Y-87190155D01*
X146700500Y-87195000D01*
X142435508Y-87195000D01*
X142377317Y-87176093D01*
X142365504Y-87166004D01*
X139278996Y-84079496D01*
X139251219Y-84024979D01*
X139250000Y-84009492D01*
X139250000Y-82549500D01*
X139268907Y-82491309D01*
X139318407Y-82455345D01*
X139349000Y-82450500D01*
X143701000Y-82450500D01*
X143759191Y-82469407D01*
G37*
%TD.AperFunction*%
%TD*%
%TA.AperFunction,Conductor*%
%TO.N,Board_5-/OUT_A1*%
G36*
X166058691Y-92569407D02*
G01*
X166094655Y-92618907D01*
X166099500Y-92649500D01*
X166099500Y-94851500D01*
X166080593Y-94909691D01*
X166031093Y-94945655D01*
X166000500Y-94950500D01*
X165112599Y-94950500D01*
X165104836Y-94950195D01*
X165102357Y-94950000D01*
X165102352Y-94950000D01*
X164697648Y-94950000D01*
X164697643Y-94950000D01*
X164695164Y-94950195D01*
X164687401Y-94950500D01*
X158941008Y-94950500D01*
X158882817Y-94931593D01*
X158871004Y-94921504D01*
X158528996Y-94579496D01*
X158501219Y-94524979D01*
X158500000Y-94509492D01*
X158500000Y-92791508D01*
X158518907Y-92733317D01*
X158528996Y-92721504D01*
X158671004Y-92579496D01*
X158725521Y-92551719D01*
X158741008Y-92550500D01*
X166000500Y-92550500D01*
X166058691Y-92569407D01*
G37*
%TD.AperFunction*%
%TD*%
%TA.AperFunction,Conductor*%
%TO.N,Board_3-/OUT_B1*%
G36*
X163059191Y-58269407D02*
G01*
X163095155Y-58318907D01*
X163100000Y-58349500D01*
X163100000Y-60350500D01*
X163400000Y-60650500D01*
X163996809Y-60650500D01*
X164003933Y-60650926D01*
X164003940Y-60650823D01*
X164006895Y-60650999D01*
X164006898Y-60651000D01*
X164006901Y-60651000D01*
X165793099Y-60651000D01*
X165793102Y-60651000D01*
X165793104Y-60650999D01*
X165796060Y-60650823D01*
X165796066Y-60650926D01*
X165803191Y-60650500D01*
X166000500Y-60650500D01*
X166058691Y-60669407D01*
X166094655Y-60718907D01*
X166099500Y-60749500D01*
X166099500Y-62896000D01*
X166080593Y-62954191D01*
X166031093Y-62990155D01*
X166000500Y-62995000D01*
X161735508Y-62995000D01*
X161677317Y-62976093D01*
X161665504Y-62966004D01*
X158578996Y-59879496D01*
X158551219Y-59824979D01*
X158550000Y-59809492D01*
X158550000Y-58349500D01*
X158568907Y-58291309D01*
X158618407Y-58255345D01*
X158649000Y-58250500D01*
X163001000Y-58250500D01*
X163059191Y-58269407D01*
G37*
%TD.AperFunction*%
%TD*%
%TA.AperFunction,Conductor*%
%TO.N,Board_1-/VM*%
G36*
X166058691Y-41574907D02*
G01*
X166094655Y-41624407D01*
X166099500Y-41655000D01*
X166099500Y-43746000D01*
X166080593Y-43804191D01*
X166031093Y-43840155D01*
X166000500Y-43845000D01*
X161199000Y-43845000D01*
X161140809Y-43826093D01*
X161104845Y-43776593D01*
X161100000Y-43746000D01*
X161100000Y-41655000D01*
X161118907Y-41596809D01*
X161168407Y-41560845D01*
X161199000Y-41556000D01*
X166000500Y-41556000D01*
X166058691Y-41574907D01*
G37*
%TD.AperFunction*%
%TD*%
%TA.AperFunction,Conductor*%
%TO.N,Board_5-/OUT_B2*%
G36*
X158159191Y-82469407D02*
G01*
X158195155Y-82518907D01*
X158200000Y-82549500D01*
X158200000Y-84150500D01*
X161550000Y-87500500D01*
X166000500Y-87500500D01*
X166058691Y-87519407D01*
X166094655Y-87568907D01*
X166099500Y-87599500D01*
X166099500Y-89551500D01*
X166080593Y-89609691D01*
X166031093Y-89645655D01*
X166000500Y-89650500D01*
X160241008Y-89650500D01*
X160182817Y-89631593D01*
X160171004Y-89621504D01*
X158050000Y-87500500D01*
X154900000Y-84350500D01*
X154899999Y-84350500D01*
X153891008Y-84350500D01*
X153832817Y-84331593D01*
X153821004Y-84321504D01*
X153678996Y-84179496D01*
X153651219Y-84124979D01*
X153650000Y-84109492D01*
X153650000Y-82549500D01*
X153668907Y-82491309D01*
X153718407Y-82455345D01*
X153749000Y-82450500D01*
X158101000Y-82450500D01*
X158159191Y-82469407D01*
G37*
%TD.AperFunction*%
%TD*%
%TA.AperFunction,Conductor*%
%TO.N,Board_5-/VM*%
G36*
X166058691Y-89974907D02*
G01*
X166094655Y-90024407D01*
X166099500Y-90055000D01*
X166099500Y-92146000D01*
X166080593Y-92204191D01*
X166031093Y-92240155D01*
X166000500Y-92245000D01*
X161199000Y-92245000D01*
X161140809Y-92226093D01*
X161104845Y-92176593D01*
X161100000Y-92146000D01*
X161100000Y-90055000D01*
X161118907Y-89996809D01*
X161168407Y-89960845D01*
X161199000Y-89956000D01*
X166000500Y-89956000D01*
X166058691Y-89974907D01*
G37*
%TD.AperFunction*%
%TD*%
%TA.AperFunction,Conductor*%
%TO.N,Board_1-/OUT_A1*%
G36*
X166058691Y-44169407D02*
G01*
X166094655Y-44218907D01*
X166099500Y-44249500D01*
X166099500Y-46451500D01*
X166080593Y-46509691D01*
X166031093Y-46545655D01*
X166000500Y-46550500D01*
X165112599Y-46550500D01*
X165104836Y-46550195D01*
X165102357Y-46550000D01*
X165102352Y-46550000D01*
X164697648Y-46550000D01*
X164697643Y-46550000D01*
X164695164Y-46550195D01*
X164687401Y-46550500D01*
X158941008Y-46550500D01*
X158882817Y-46531593D01*
X158871004Y-46521504D01*
X158528996Y-46179496D01*
X158501219Y-46124979D01*
X158500000Y-46109492D01*
X158500000Y-44391508D01*
X158518907Y-44333317D01*
X158528996Y-44321504D01*
X158671004Y-44179496D01*
X158725521Y-44151719D01*
X158741008Y-44150500D01*
X166000500Y-44150500D01*
X166058691Y-44169407D01*
G37*
%TD.AperFunction*%
%TD*%
%TA.AperFunction,Conductor*%
%TO.N,Board_1-GND*%
G36*
X150379591Y-48658570D02*
G01*
X150379593Y-48658573D01*
X150408029Y-48697713D01*
X150408031Y-48697715D01*
X150408034Y-48697719D01*
X150552781Y-48842466D01*
X150552784Y-48842468D01*
X150552786Y-48842470D01*
X150718386Y-48962785D01*
X150718390Y-48962787D01*
X150900781Y-49055720D01*
X151095466Y-49118977D01*
X151095467Y-49118977D01*
X151095470Y-49118978D01*
X151297645Y-49151000D01*
X151297648Y-49151000D01*
X151702355Y-49151000D01*
X151904530Y-49118978D01*
X151904530Y-49118977D01*
X151904534Y-49118977D01*
X151940006Y-49107450D01*
X152001188Y-49107448D01*
X152040603Y-49131600D01*
X153998104Y-51089101D01*
X154025881Y-51143618D01*
X154027100Y-51159105D01*
X154027100Y-51671000D01*
X154008193Y-51729191D01*
X153958693Y-51765155D01*
X153928100Y-51770000D01*
X153635139Y-51770000D01*
X153635136Y-51770001D01*
X153610009Y-51772914D01*
X153507235Y-51818294D01*
X153427794Y-51897735D01*
X153382414Y-52000511D01*
X153379500Y-52025630D01*
X153379500Y-53715360D01*
X153379501Y-53715363D01*
X153382414Y-53740490D01*
X153405104Y-53791878D01*
X153427794Y-53843265D01*
X153427795Y-53843266D01*
X153429019Y-53845053D01*
X153429890Y-53848011D01*
X153431500Y-53851657D01*
X153431025Y-53851866D01*
X153446305Y-53903746D01*
X153425791Y-53961390D01*
X153375312Y-53995967D01*
X153347343Y-54000000D01*
X150299500Y-54000000D01*
X150241309Y-53981093D01*
X150205345Y-53931593D01*
X150200500Y-53901000D01*
X150200500Y-48716763D01*
X150219407Y-48658572D01*
X150268907Y-48622608D01*
X150330093Y-48622608D01*
X150379591Y-48658570D01*
G37*
%TD.AperFunction*%
%TA.AperFunction,Conductor*%
G36*
X153574301Y-47506843D02*
G01*
X155204983Y-49137525D01*
X155222601Y-49153811D01*
X155234414Y-49163900D01*
X155239831Y-49168419D01*
X155239837Y-49168422D01*
X155239842Y-49168426D01*
X155338409Y-49222139D01*
X155338411Y-49222140D01*
X155396604Y-49241048D01*
X155396601Y-49241048D01*
X155491005Y-49256000D01*
X155491008Y-49256000D01*
X160395500Y-49256000D01*
X160453691Y-49274907D01*
X160489655Y-49324407D01*
X160494500Y-49355000D01*
X160494500Y-53901000D01*
X160475593Y-53959191D01*
X160426093Y-53995155D01*
X160395500Y-54000000D01*
X158152657Y-54000000D01*
X158094466Y-53981093D01*
X158058502Y-53931593D01*
X158058502Y-53870407D01*
X158070981Y-53845053D01*
X158072201Y-53843269D01*
X158072206Y-53843265D01*
X158117585Y-53740491D01*
X158120500Y-53715365D01*
X158120499Y-52025636D01*
X158117585Y-52000509D01*
X158072206Y-51897735D01*
X157992765Y-51818294D01*
X157889991Y-51772915D01*
X157889990Y-51772914D01*
X157889988Y-51772914D01*
X157864869Y-51770000D01*
X157864865Y-51770000D01*
X157101005Y-51770000D01*
X157042814Y-51751093D01*
X157031001Y-51741004D01*
X153434296Y-48144299D01*
X153406519Y-48089782D01*
X153405300Y-48074295D01*
X153405300Y-47576849D01*
X153424207Y-47518658D01*
X153473707Y-47482694D01*
X153534893Y-47482694D01*
X153574301Y-47506843D01*
G37*
%TD.AperFunction*%
%TA.AperFunction,Conductor*%
G36*
X166058691Y-33219907D02*
G01*
X166094655Y-33269407D01*
X166099500Y-33300000D01*
X166099500Y-36046000D01*
X166080593Y-36104191D01*
X166031093Y-36140155D01*
X166000500Y-36145000D01*
X165803191Y-36145000D01*
X165788127Y-36145450D01*
X165787935Y-36145456D01*
X165784978Y-36145500D01*
X164015023Y-36145500D01*
X164012067Y-36145456D01*
X163996809Y-36145000D01*
X163996804Y-36145000D01*
X163567550Y-36145000D01*
X163509359Y-36126093D01*
X163497546Y-36116004D01*
X163434496Y-36052954D01*
X163406719Y-35998437D01*
X163405500Y-35982950D01*
X163405500Y-34149506D01*
X163405500Y-34149500D01*
X163401739Y-34101714D01*
X163396894Y-34071121D01*
X163390487Y-34040746D01*
X163342309Y-33939338D01*
X163342304Y-33939331D01*
X163306348Y-33889842D01*
X163306347Y-33889841D01*
X163306345Y-33889838D01*
X163252177Y-33832581D01*
X163252176Y-33832580D01*
X163252175Y-33832579D01*
X163153598Y-33778860D01*
X163153596Y-33778859D01*
X163095403Y-33759951D01*
X163095406Y-33759951D01*
X163001003Y-33745000D01*
X163001000Y-33745000D01*
X158649000Y-33745000D01*
X158601214Y-33748761D01*
X158584800Y-33751360D01*
X158570619Y-33753606D01*
X158570614Y-33753606D01*
X158540247Y-33760012D01*
X158540242Y-33760014D01*
X158438841Y-33808189D01*
X158438829Y-33808196D01*
X158433130Y-33812337D01*
X158374939Y-33831242D01*
X158327571Y-33819172D01*
X158297013Y-33802520D01*
X158253595Y-33778859D01*
X158195403Y-33759951D01*
X158195406Y-33759951D01*
X158101003Y-33745000D01*
X158101000Y-33745000D01*
X153749000Y-33745000D01*
X153701214Y-33748761D01*
X153684800Y-33751360D01*
X153670619Y-33753606D01*
X153670614Y-33753606D01*
X153640247Y-33760012D01*
X153640242Y-33760014D01*
X153538841Y-33808189D01*
X153538831Y-33808195D01*
X153489342Y-33844151D01*
X153432079Y-33898324D01*
X153378360Y-33996901D01*
X153378359Y-33996903D01*
X153359451Y-34055095D01*
X153344500Y-34149496D01*
X153344500Y-35709481D01*
X153345442Y-35733469D01*
X153346664Y-35748994D01*
X153347294Y-35755972D01*
X153379015Y-35863670D01*
X153406792Y-35918187D01*
X153432662Y-35953794D01*
X153462970Y-35995511D01*
X153462972Y-35995513D01*
X153462975Y-35995517D01*
X153604983Y-36137525D01*
X153622601Y-36153811D01*
X153634414Y-36163900D01*
X153639831Y-36168419D01*
X153639837Y-36168422D01*
X153639842Y-36168426D01*
X153738409Y-36222139D01*
X153738411Y-36222140D01*
X153796604Y-36241048D01*
X153796601Y-36241048D01*
X153891005Y-36256000D01*
X153891008Y-36256000D01*
X154732450Y-36256000D01*
X154790641Y-36274907D01*
X154802454Y-36284996D01*
X159954983Y-41437525D01*
X159972601Y-41453811D01*
X159984414Y-41463900D01*
X159989831Y-41468419D01*
X159989837Y-41468422D01*
X159989842Y-41468426D01*
X160088409Y-41522139D01*
X160088411Y-41522140D01*
X160146604Y-41541048D01*
X160146601Y-41541048D01*
X160241005Y-41556000D01*
X160241008Y-41556000D01*
X160695500Y-41556000D01*
X160753691Y-41574907D01*
X160789655Y-41624407D01*
X160794500Y-41655000D01*
X160794500Y-43746000D01*
X160775593Y-43804191D01*
X160726093Y-43840155D01*
X160695500Y-43845000D01*
X158741008Y-43845000D01*
X158726025Y-43845588D01*
X158717030Y-43845942D01*
X158701505Y-43847164D01*
X158694527Y-43847794D01*
X158586829Y-43879515D01*
X158532310Y-43907293D01*
X158531405Y-43907951D01*
X158531047Y-43908067D01*
X158528991Y-43909327D01*
X158528688Y-43908833D01*
X158473211Y-43926850D01*
X158415023Y-43907935D01*
X158401309Y-43895887D01*
X158388721Y-43882582D01*
X158388718Y-43882579D01*
X158290141Y-43828860D01*
X158290139Y-43828859D01*
X158231946Y-43809951D01*
X158231949Y-43809951D01*
X158137546Y-43795000D01*
X158137543Y-43795000D01*
X158026571Y-43795000D01*
X157968380Y-43776093D01*
X157932416Y-43726593D01*
X157932416Y-43665407D01*
X157968380Y-43615907D01*
X157986578Y-43605437D01*
X157992765Y-43602706D01*
X158072206Y-43523265D01*
X158117585Y-43420491D01*
X158120500Y-43395365D01*
X158120499Y-41705636D01*
X158117585Y-41680509D01*
X158072206Y-41577735D01*
X157992765Y-41498294D01*
X157889991Y-41452915D01*
X157889990Y-41452914D01*
X157889988Y-41452914D01*
X157864869Y-41450000D01*
X157864865Y-41450000D01*
X156601005Y-41450000D01*
X156542814Y-41431093D01*
X156531002Y-41421004D01*
X156145687Y-41035690D01*
X156145682Y-41035686D01*
X156042416Y-40976065D01*
X156042418Y-40976065D01*
X155997724Y-40964089D01*
X155927225Y-40945200D01*
X155927223Y-40945200D01*
X154476206Y-40945200D01*
X154418015Y-40926293D01*
X154406202Y-40916204D01*
X153581896Y-40091898D01*
X153554119Y-40037381D01*
X153552900Y-40021894D01*
X153552900Y-39230876D01*
X153552900Y-39230875D01*
X153522036Y-39115687D01*
X153522034Y-39115684D01*
X153522034Y-39115682D01*
X153462413Y-39012417D01*
X153462409Y-39012412D01*
X153378087Y-38928089D01*
X153378087Y-38928090D01*
X152800215Y-38350218D01*
X152772438Y-38295701D01*
X152782008Y-38235273D01*
X152805220Y-38189719D01*
X152868477Y-37995034D01*
X152900500Y-37792852D01*
X152900500Y-37588148D01*
X152900500Y-37588144D01*
X152868478Y-37385970D01*
X152868477Y-37385966D01*
X152805220Y-37191281D01*
X152712287Y-37008890D01*
X152712285Y-37008886D01*
X152591970Y-36843286D01*
X152591967Y-36843283D01*
X152591966Y-36843281D01*
X152447219Y-36698534D01*
X152447215Y-36698531D01*
X152447213Y-36698529D01*
X152281613Y-36578214D01*
X152281609Y-36578212D01*
X152099219Y-36485280D01*
X151904529Y-36422021D01*
X151702355Y-36390000D01*
X151702352Y-36390000D01*
X151297648Y-36390000D01*
X151297645Y-36390000D01*
X151095470Y-36422021D01*
X150900780Y-36485280D01*
X150718390Y-36578212D01*
X150718386Y-36578214D01*
X150552786Y-36698529D01*
X150408032Y-36843283D01*
X150379593Y-36882427D01*
X150330093Y-36918391D01*
X150268907Y-36918391D01*
X150219407Y-36882427D01*
X150200500Y-36824236D01*
X150200500Y-33300000D01*
X150219407Y-33241809D01*
X150268907Y-33205845D01*
X150299500Y-33201000D01*
X166000500Y-33201000D01*
X166058691Y-33219907D01*
G37*
%TD.AperFunction*%
%TD*%
%TA.AperFunction,Conductor*%
%TO.N,Board_2-/OUT_A2*%
G36*
X138895734Y-68319407D02*
G01*
X138931698Y-68368907D01*
X138931698Y-68430093D01*
X138928474Y-68438648D01*
X138928357Y-68438919D01*
X138909451Y-68497103D01*
X138894500Y-68591504D01*
X138894500Y-70309481D01*
X138895442Y-70333469D01*
X138896664Y-70348994D01*
X138897294Y-70355972D01*
X138929015Y-70463670D01*
X138956792Y-70518187D01*
X138982662Y-70553794D01*
X139012970Y-70595511D01*
X139012972Y-70595513D01*
X139012975Y-70595517D01*
X139354983Y-70937525D01*
X139372601Y-70953811D01*
X139384414Y-70963900D01*
X139389831Y-70968419D01*
X139389837Y-70968422D01*
X139389842Y-70968426D01*
X139488409Y-71022139D01*
X139488411Y-71022140D01*
X139546604Y-71041048D01*
X139546601Y-71041048D01*
X139641005Y-71056000D01*
X139641008Y-71056000D01*
X145387396Y-71056000D01*
X145387401Y-71056000D01*
X145399395Y-71055764D01*
X145404180Y-71055576D01*
X145408066Y-71055500D01*
X145791934Y-71055500D01*
X145795820Y-71055576D01*
X145800605Y-71055764D01*
X145812599Y-71056000D01*
X145812604Y-71056000D01*
X146700500Y-71056000D01*
X146758691Y-71074907D01*
X146794655Y-71124407D01*
X146799500Y-71155000D01*
X146799500Y-73051500D01*
X146780593Y-73109691D01*
X146731093Y-73145655D01*
X146700500Y-73150500D01*
X136191008Y-73150500D01*
X136132817Y-73131593D01*
X136121004Y-73121504D01*
X134378996Y-71379496D01*
X134351219Y-71324979D01*
X134350000Y-71309492D01*
X134350000Y-68399500D01*
X134368907Y-68341309D01*
X134418407Y-68305345D01*
X134449000Y-68300500D01*
X138837543Y-68300500D01*
X138895734Y-68319407D01*
G37*
%TD.AperFunction*%
%TD*%
%TA.AperFunction,Conductor*%
%TO.N,Board_4-/VM*%
G36*
X146758691Y-89974907D02*
G01*
X146794655Y-90024407D01*
X146799500Y-90055000D01*
X146799500Y-92146000D01*
X146780593Y-92204191D01*
X146731093Y-92240155D01*
X146700500Y-92245000D01*
X141899000Y-92245000D01*
X141840809Y-92226093D01*
X141804845Y-92176593D01*
X141800000Y-92146000D01*
X141800000Y-90055000D01*
X141818907Y-89996809D01*
X141868407Y-89960845D01*
X141899000Y-89956000D01*
X146700500Y-89956000D01*
X146758691Y-89974907D01*
G37*
%TD.AperFunction*%
%TD*%
%TA.AperFunction,Conductor*%
%TO.N,Board_3-GND*%
G36*
X150379591Y-72858570D02*
G01*
X150379593Y-72858573D01*
X150408029Y-72897713D01*
X150408031Y-72897715D01*
X150408034Y-72897719D01*
X150552781Y-73042466D01*
X150552784Y-73042468D01*
X150552786Y-73042470D01*
X150718386Y-73162785D01*
X150718390Y-73162787D01*
X150900781Y-73255720D01*
X151095466Y-73318977D01*
X151095467Y-73318977D01*
X151095470Y-73318978D01*
X151297645Y-73351000D01*
X151297648Y-73351000D01*
X151702355Y-73351000D01*
X151904530Y-73318978D01*
X151904530Y-73318977D01*
X151904534Y-73318977D01*
X151940006Y-73307450D01*
X152001188Y-73307448D01*
X152040603Y-73331600D01*
X153998104Y-75289101D01*
X154025881Y-75343618D01*
X154027100Y-75359105D01*
X154027100Y-75871000D01*
X154008193Y-75929191D01*
X153958693Y-75965155D01*
X153928100Y-75970000D01*
X153635139Y-75970000D01*
X153635136Y-75970001D01*
X153610009Y-75972914D01*
X153507235Y-76018294D01*
X153427794Y-76097735D01*
X153382414Y-76200511D01*
X153379500Y-76225630D01*
X153379500Y-77915360D01*
X153379501Y-77915363D01*
X153382414Y-77940490D01*
X153405104Y-77991878D01*
X153427794Y-78043265D01*
X153427795Y-78043266D01*
X153429019Y-78045053D01*
X153429890Y-78048011D01*
X153431500Y-78051657D01*
X153431025Y-78051866D01*
X153446305Y-78103746D01*
X153425791Y-78161390D01*
X153375312Y-78195967D01*
X153347343Y-78200000D01*
X150299500Y-78200000D01*
X150241309Y-78181093D01*
X150205345Y-78131593D01*
X150200500Y-78101000D01*
X150200500Y-72916763D01*
X150219407Y-72858572D01*
X150268907Y-72822608D01*
X150330093Y-72822608D01*
X150379591Y-72858570D01*
G37*
%TD.AperFunction*%
%TA.AperFunction,Conductor*%
G36*
X153574301Y-71706843D02*
G01*
X155204983Y-73337525D01*
X155222601Y-73353811D01*
X155234414Y-73363900D01*
X155239831Y-73368419D01*
X155239837Y-73368422D01*
X155239842Y-73368426D01*
X155338409Y-73422139D01*
X155338411Y-73422140D01*
X155396604Y-73441048D01*
X155396601Y-73441048D01*
X155491005Y-73456000D01*
X155491008Y-73456000D01*
X160395500Y-73456000D01*
X160453691Y-73474907D01*
X160489655Y-73524407D01*
X160494500Y-73555000D01*
X160494500Y-78101000D01*
X160475593Y-78159191D01*
X160426093Y-78195155D01*
X160395500Y-78200000D01*
X158152657Y-78200000D01*
X158094466Y-78181093D01*
X158058502Y-78131593D01*
X158058502Y-78070407D01*
X158070981Y-78045053D01*
X158072201Y-78043269D01*
X158072206Y-78043265D01*
X158117585Y-77940491D01*
X158120500Y-77915365D01*
X158120499Y-76225636D01*
X158117585Y-76200509D01*
X158072206Y-76097735D01*
X157992765Y-76018294D01*
X157889991Y-75972915D01*
X157889990Y-75972914D01*
X157889988Y-75972914D01*
X157864869Y-75970000D01*
X157864865Y-75970000D01*
X157101005Y-75970000D01*
X157042814Y-75951093D01*
X157031001Y-75941004D01*
X153434296Y-72344299D01*
X153406519Y-72289782D01*
X153405300Y-72274295D01*
X153405300Y-71776849D01*
X153424207Y-71718658D01*
X153473707Y-71682694D01*
X153534893Y-71682694D01*
X153574301Y-71706843D01*
G37*
%TD.AperFunction*%
%TA.AperFunction,Conductor*%
G36*
X166058691Y-57419907D02*
G01*
X166094655Y-57469407D01*
X166099500Y-57500000D01*
X166099500Y-60246000D01*
X166080593Y-60304191D01*
X166031093Y-60340155D01*
X166000500Y-60345000D01*
X165803191Y-60345000D01*
X165788127Y-60345450D01*
X165787935Y-60345456D01*
X165784978Y-60345500D01*
X164015023Y-60345500D01*
X164012067Y-60345456D01*
X163996809Y-60345000D01*
X163996804Y-60345000D01*
X163567550Y-60345000D01*
X163509359Y-60326093D01*
X163497546Y-60316004D01*
X163434496Y-60252954D01*
X163406719Y-60198437D01*
X163405500Y-60182950D01*
X163405500Y-58349506D01*
X163405500Y-58349500D01*
X163401739Y-58301714D01*
X163396894Y-58271121D01*
X163390487Y-58240746D01*
X163342309Y-58139338D01*
X163342304Y-58139331D01*
X163306348Y-58089842D01*
X163306347Y-58089841D01*
X163306345Y-58089838D01*
X163252177Y-58032581D01*
X163252176Y-58032580D01*
X163252175Y-58032579D01*
X163153598Y-57978860D01*
X163153596Y-57978859D01*
X163095403Y-57959951D01*
X163095406Y-57959951D01*
X163001003Y-57945000D01*
X163001000Y-57945000D01*
X158649000Y-57945000D01*
X158601214Y-57948761D01*
X158584800Y-57951360D01*
X158570619Y-57953606D01*
X158570614Y-57953606D01*
X158540247Y-57960012D01*
X158540242Y-57960014D01*
X158438841Y-58008189D01*
X158438829Y-58008196D01*
X158433130Y-58012337D01*
X158374939Y-58031242D01*
X158327571Y-58019172D01*
X158297013Y-58002520D01*
X158253595Y-57978859D01*
X158195403Y-57959951D01*
X158195406Y-57959951D01*
X158101003Y-57945000D01*
X158101000Y-57945000D01*
X153749000Y-57945000D01*
X153701214Y-57948761D01*
X153684800Y-57951360D01*
X153670619Y-57953606D01*
X153670614Y-57953606D01*
X153640247Y-57960012D01*
X153640242Y-57960014D01*
X153538841Y-58008189D01*
X153538831Y-58008195D01*
X153489342Y-58044151D01*
X153432079Y-58098324D01*
X153378360Y-58196901D01*
X153378359Y-58196903D01*
X153359451Y-58255095D01*
X153344500Y-58349496D01*
X153344500Y-59909481D01*
X153345442Y-59933469D01*
X153346664Y-59948994D01*
X153347294Y-59955972D01*
X153379015Y-60063670D01*
X153406792Y-60118187D01*
X153432662Y-60153794D01*
X153462970Y-60195511D01*
X153462972Y-60195513D01*
X153462975Y-60195517D01*
X153604983Y-60337525D01*
X153622601Y-60353811D01*
X153634414Y-60363900D01*
X153639831Y-60368419D01*
X153639837Y-60368422D01*
X153639842Y-60368426D01*
X153738409Y-60422139D01*
X153738411Y-60422140D01*
X153796604Y-60441048D01*
X153796601Y-60441048D01*
X153891005Y-60456000D01*
X153891008Y-60456000D01*
X154732450Y-60456000D01*
X154790641Y-60474907D01*
X154802454Y-60484996D01*
X159954983Y-65637525D01*
X159972601Y-65653811D01*
X159984414Y-65663900D01*
X159989831Y-65668419D01*
X159989837Y-65668422D01*
X159989842Y-65668426D01*
X160088409Y-65722139D01*
X160088411Y-65722140D01*
X160146604Y-65741048D01*
X160146601Y-65741048D01*
X160241005Y-65756000D01*
X160241008Y-65756000D01*
X160695500Y-65756000D01*
X160753691Y-65774907D01*
X160789655Y-65824407D01*
X160794500Y-65855000D01*
X160794500Y-67946000D01*
X160775593Y-68004191D01*
X160726093Y-68040155D01*
X160695500Y-68045000D01*
X158741008Y-68045000D01*
X158726025Y-68045588D01*
X158717030Y-68045942D01*
X158701505Y-68047164D01*
X158694527Y-68047794D01*
X158586829Y-68079515D01*
X158532310Y-68107293D01*
X158531405Y-68107951D01*
X158531047Y-68108067D01*
X158528991Y-68109327D01*
X158528688Y-68108833D01*
X158473211Y-68126850D01*
X158415023Y-68107935D01*
X158401309Y-68095887D01*
X158388721Y-68082582D01*
X158388718Y-68082579D01*
X158290141Y-68028860D01*
X158290139Y-68028859D01*
X158231946Y-68009951D01*
X158231949Y-68009951D01*
X158137546Y-67995000D01*
X158137543Y-67995000D01*
X158026571Y-67995000D01*
X157968380Y-67976093D01*
X157932416Y-67926593D01*
X157932416Y-67865407D01*
X157968380Y-67815907D01*
X157986578Y-67805437D01*
X157992765Y-67802706D01*
X158072206Y-67723265D01*
X158117585Y-67620491D01*
X158120500Y-67595365D01*
X158120499Y-65905636D01*
X158117585Y-65880509D01*
X158072206Y-65777735D01*
X157992765Y-65698294D01*
X157889991Y-65652915D01*
X157889990Y-65652914D01*
X157889988Y-65652914D01*
X157864869Y-65650000D01*
X157864865Y-65650000D01*
X156601005Y-65650000D01*
X156542814Y-65631093D01*
X156531002Y-65621004D01*
X156145687Y-65235690D01*
X156145682Y-65235686D01*
X156042416Y-65176065D01*
X156042418Y-65176065D01*
X155997724Y-65164089D01*
X155927225Y-65145200D01*
X155927223Y-65145200D01*
X154476206Y-65145200D01*
X154418015Y-65126293D01*
X154406202Y-65116204D01*
X153581896Y-64291898D01*
X153554119Y-64237381D01*
X153552900Y-64221894D01*
X153552900Y-63430876D01*
X153552900Y-63430875D01*
X153522036Y-63315687D01*
X153522034Y-63315684D01*
X153522034Y-63315682D01*
X153462413Y-63212417D01*
X153462409Y-63212412D01*
X153378087Y-63128089D01*
X153378087Y-63128090D01*
X152800215Y-62550218D01*
X152772438Y-62495701D01*
X152782008Y-62435273D01*
X152805220Y-62389719D01*
X152868477Y-62195034D01*
X152900500Y-61992852D01*
X152900500Y-61788148D01*
X152900500Y-61788144D01*
X152868478Y-61585970D01*
X152868477Y-61585966D01*
X152805220Y-61391281D01*
X152712287Y-61208890D01*
X152712285Y-61208886D01*
X152591970Y-61043286D01*
X152591967Y-61043283D01*
X152591966Y-61043281D01*
X152447219Y-60898534D01*
X152447215Y-60898531D01*
X152447213Y-60898529D01*
X152281613Y-60778214D01*
X152281609Y-60778212D01*
X152099219Y-60685280D01*
X151904529Y-60622021D01*
X151702355Y-60590000D01*
X151702352Y-60590000D01*
X151297648Y-60590000D01*
X151297645Y-60590000D01*
X151095470Y-60622021D01*
X150900780Y-60685280D01*
X150718390Y-60778212D01*
X150718386Y-60778214D01*
X150552786Y-60898529D01*
X150408032Y-61043283D01*
X150379593Y-61082427D01*
X150330093Y-61118391D01*
X150268907Y-61118391D01*
X150219407Y-61082427D01*
X150200500Y-61024236D01*
X150200500Y-57500000D01*
X150219407Y-57441809D01*
X150268907Y-57405845D01*
X150299500Y-57401000D01*
X166000500Y-57401000D01*
X166058691Y-57419907D01*
G37*
%TD.AperFunction*%
%TD*%
%TA.AperFunction,Conductor*%
%TO.N,Board_4-/OUT_B2*%
G36*
X138859191Y-82469407D02*
G01*
X138895155Y-82518907D01*
X138900000Y-82549500D01*
X138900000Y-84150500D01*
X142250000Y-87500500D01*
X146700500Y-87500500D01*
X146758691Y-87519407D01*
X146794655Y-87568907D01*
X146799500Y-87599500D01*
X146799500Y-89551500D01*
X146780593Y-89609691D01*
X146731093Y-89645655D01*
X146700500Y-89650500D01*
X140941008Y-89650500D01*
X140882817Y-89631593D01*
X140871004Y-89621504D01*
X138750000Y-87500500D01*
X135600000Y-84350500D01*
X135599999Y-84350500D01*
X134591008Y-84350500D01*
X134532817Y-84331593D01*
X134521004Y-84321504D01*
X134378996Y-84179496D01*
X134351219Y-84124979D01*
X134350000Y-84109492D01*
X134350000Y-82549500D01*
X134368907Y-82491309D01*
X134418407Y-82455345D01*
X134449000Y-82450500D01*
X138801000Y-82450500D01*
X138859191Y-82469407D01*
G37*
%TD.AperFunction*%
%TD*%
%TA.AperFunction,Conductor*%
%TO.N,Board_5-GND*%
G36*
X150379591Y-97058570D02*
G01*
X150379593Y-97058573D01*
X150408029Y-97097713D01*
X150408031Y-97097715D01*
X150408034Y-97097719D01*
X150552781Y-97242466D01*
X150552784Y-97242468D01*
X150552786Y-97242470D01*
X150718386Y-97362785D01*
X150718390Y-97362787D01*
X150900781Y-97455720D01*
X151095466Y-97518977D01*
X151095467Y-97518977D01*
X151095470Y-97518978D01*
X151297645Y-97551000D01*
X151297648Y-97551000D01*
X151702355Y-97551000D01*
X151904530Y-97518978D01*
X151904530Y-97518977D01*
X151904534Y-97518977D01*
X151940006Y-97507450D01*
X152001188Y-97507448D01*
X152040603Y-97531600D01*
X153998104Y-99489101D01*
X154025881Y-99543618D01*
X154027100Y-99559105D01*
X154027100Y-100071000D01*
X154008193Y-100129191D01*
X153958693Y-100165155D01*
X153928100Y-100170000D01*
X153635139Y-100170000D01*
X153635136Y-100170001D01*
X153610009Y-100172914D01*
X153507235Y-100218294D01*
X153427794Y-100297735D01*
X153382414Y-100400511D01*
X153379500Y-100425630D01*
X153379500Y-102115360D01*
X153379501Y-102115363D01*
X153382414Y-102140490D01*
X153405104Y-102191878D01*
X153427794Y-102243265D01*
X153427795Y-102243266D01*
X153429019Y-102245053D01*
X153429890Y-102248011D01*
X153431500Y-102251657D01*
X153431025Y-102251866D01*
X153446305Y-102303746D01*
X153425791Y-102361390D01*
X153375312Y-102395967D01*
X153347343Y-102400000D01*
X150299500Y-102400000D01*
X150241309Y-102381093D01*
X150205345Y-102331593D01*
X150200500Y-102301000D01*
X150200500Y-97116763D01*
X150219407Y-97058572D01*
X150268907Y-97022608D01*
X150330093Y-97022608D01*
X150379591Y-97058570D01*
G37*
%TD.AperFunction*%
%TA.AperFunction,Conductor*%
G36*
X153574301Y-95906843D02*
G01*
X155204983Y-97537525D01*
X155222601Y-97553811D01*
X155234414Y-97563900D01*
X155239831Y-97568419D01*
X155239837Y-97568422D01*
X155239842Y-97568426D01*
X155338409Y-97622139D01*
X155338411Y-97622140D01*
X155396604Y-97641048D01*
X155396601Y-97641048D01*
X155491005Y-97656000D01*
X155491008Y-97656000D01*
X160395500Y-97656000D01*
X160453691Y-97674907D01*
X160489655Y-97724407D01*
X160494500Y-97755000D01*
X160494500Y-102301000D01*
X160475593Y-102359191D01*
X160426093Y-102395155D01*
X160395500Y-102400000D01*
X158152657Y-102400000D01*
X158094466Y-102381093D01*
X158058502Y-102331593D01*
X158058502Y-102270407D01*
X158070981Y-102245053D01*
X158072201Y-102243269D01*
X158072206Y-102243265D01*
X158117585Y-102140491D01*
X158120500Y-102115365D01*
X158120499Y-100425636D01*
X158117585Y-100400509D01*
X158072206Y-100297735D01*
X157992765Y-100218294D01*
X157889991Y-100172915D01*
X157889990Y-100172914D01*
X157889988Y-100172914D01*
X157864869Y-100170000D01*
X157864865Y-100170000D01*
X157101005Y-100170000D01*
X157042814Y-100151093D01*
X157031001Y-100141004D01*
X153434296Y-96544299D01*
X153406519Y-96489782D01*
X153405300Y-96474295D01*
X153405300Y-95976849D01*
X153424207Y-95918658D01*
X153473707Y-95882694D01*
X153534893Y-95882694D01*
X153574301Y-95906843D01*
G37*
%TD.AperFunction*%
%TA.AperFunction,Conductor*%
G36*
X166058691Y-81619907D02*
G01*
X166094655Y-81669407D01*
X166099500Y-81700000D01*
X166099500Y-84446000D01*
X166080593Y-84504191D01*
X166031093Y-84540155D01*
X166000500Y-84545000D01*
X165803191Y-84545000D01*
X165788127Y-84545450D01*
X165787935Y-84545456D01*
X165784978Y-84545500D01*
X164015023Y-84545500D01*
X164012067Y-84545456D01*
X163996809Y-84545000D01*
X163996804Y-84545000D01*
X163567550Y-84545000D01*
X163509359Y-84526093D01*
X163497546Y-84516004D01*
X163434496Y-84452954D01*
X163406719Y-84398437D01*
X163405500Y-84382950D01*
X163405500Y-82549506D01*
X163405500Y-82549500D01*
X163401739Y-82501714D01*
X163396894Y-82471121D01*
X163390487Y-82440746D01*
X163342309Y-82339338D01*
X163342304Y-82339331D01*
X163306348Y-82289842D01*
X163306347Y-82289841D01*
X163306345Y-82289838D01*
X163252177Y-82232581D01*
X163252176Y-82232580D01*
X163252175Y-82232579D01*
X163153598Y-82178860D01*
X163153596Y-82178859D01*
X163095403Y-82159951D01*
X163095406Y-82159951D01*
X163001003Y-82145000D01*
X163001000Y-82145000D01*
X158649000Y-82145000D01*
X158601214Y-82148761D01*
X158584800Y-82151360D01*
X158570619Y-82153606D01*
X158570614Y-82153606D01*
X158540247Y-82160012D01*
X158540242Y-82160014D01*
X158438841Y-82208189D01*
X158438829Y-82208196D01*
X158433130Y-82212337D01*
X158374939Y-82231242D01*
X158327571Y-82219172D01*
X158297013Y-82202520D01*
X158253595Y-82178859D01*
X158195403Y-82159951D01*
X158195406Y-82159951D01*
X158101003Y-82145000D01*
X158101000Y-82145000D01*
X153749000Y-82145000D01*
X153701214Y-82148761D01*
X153684800Y-82151360D01*
X153670619Y-82153606D01*
X153670614Y-82153606D01*
X153640247Y-82160012D01*
X153640242Y-82160014D01*
X153538841Y-82208189D01*
X153538831Y-82208195D01*
X153489342Y-82244151D01*
X153432079Y-82298324D01*
X153378360Y-82396901D01*
X153378359Y-82396903D01*
X153359451Y-82455095D01*
X153344500Y-82549496D01*
X153344500Y-84109481D01*
X153345442Y-84133469D01*
X153346664Y-84148994D01*
X153347294Y-84155972D01*
X153379015Y-84263670D01*
X153406792Y-84318187D01*
X153432662Y-84353794D01*
X153462970Y-84395511D01*
X153462972Y-84395513D01*
X153462975Y-84395517D01*
X153604983Y-84537525D01*
X153622601Y-84553811D01*
X153634414Y-84563900D01*
X153639831Y-84568419D01*
X153639837Y-84568422D01*
X153639842Y-84568426D01*
X153738409Y-84622139D01*
X153738411Y-84622140D01*
X153796604Y-84641048D01*
X153796601Y-84641048D01*
X153891005Y-84656000D01*
X153891008Y-84656000D01*
X154732450Y-84656000D01*
X154790641Y-84674907D01*
X154802454Y-84684996D01*
X159954983Y-89837525D01*
X159972601Y-89853811D01*
X159984414Y-89863900D01*
X159989831Y-89868419D01*
X159989837Y-89868422D01*
X159989842Y-89868426D01*
X160088409Y-89922139D01*
X160088411Y-89922140D01*
X160146604Y-89941048D01*
X160146601Y-89941048D01*
X160241005Y-89956000D01*
X160241008Y-89956000D01*
X160695500Y-89956000D01*
X160753691Y-89974907D01*
X160789655Y-90024407D01*
X160794500Y-90055000D01*
X160794500Y-92146000D01*
X160775593Y-92204191D01*
X160726093Y-92240155D01*
X160695500Y-92245000D01*
X158741008Y-92245000D01*
X158726025Y-92245588D01*
X158717030Y-92245942D01*
X158701505Y-92247164D01*
X158694527Y-92247794D01*
X158586829Y-92279515D01*
X158532310Y-92307293D01*
X158531405Y-92307951D01*
X158531047Y-92308067D01*
X158528991Y-92309327D01*
X158528688Y-92308833D01*
X158473211Y-92326850D01*
X158415023Y-92307935D01*
X158401309Y-92295887D01*
X158388721Y-92282582D01*
X158388718Y-92282579D01*
X158290141Y-92228860D01*
X158290139Y-92228859D01*
X158231946Y-92209951D01*
X158231949Y-92209951D01*
X158137546Y-92195000D01*
X158137543Y-92195000D01*
X158026571Y-92195000D01*
X157968380Y-92176093D01*
X157932416Y-92126593D01*
X157932416Y-92065407D01*
X157968380Y-92015907D01*
X157986578Y-92005437D01*
X157992765Y-92002706D01*
X158072206Y-91923265D01*
X158117585Y-91820491D01*
X158120500Y-91795365D01*
X158120499Y-90105636D01*
X158117585Y-90080509D01*
X158072206Y-89977735D01*
X157992765Y-89898294D01*
X157889991Y-89852915D01*
X157889990Y-89852914D01*
X157889988Y-89852914D01*
X157864869Y-89850000D01*
X157864865Y-89850000D01*
X156601005Y-89850000D01*
X156542814Y-89831093D01*
X156531002Y-89821004D01*
X156145687Y-89435690D01*
X156145682Y-89435686D01*
X156042416Y-89376065D01*
X156042418Y-89376065D01*
X155997724Y-89364089D01*
X155927225Y-89345200D01*
X155927223Y-89345200D01*
X154476206Y-89345200D01*
X154418015Y-89326293D01*
X154406202Y-89316204D01*
X153581896Y-88491898D01*
X153554119Y-88437381D01*
X153552900Y-88421894D01*
X153552900Y-87630876D01*
X153552900Y-87630875D01*
X153522036Y-87515687D01*
X153522034Y-87515684D01*
X153522034Y-87515682D01*
X153462413Y-87412417D01*
X153462409Y-87412412D01*
X153378087Y-87328089D01*
X153378087Y-87328090D01*
X152800215Y-86750218D01*
X152772438Y-86695701D01*
X152782008Y-86635273D01*
X152805220Y-86589719D01*
X152868477Y-86395034D01*
X152900500Y-86192852D01*
X152900500Y-85988148D01*
X152900500Y-85988144D01*
X152868478Y-85785970D01*
X152868477Y-85785966D01*
X152805220Y-85591281D01*
X152712287Y-85408890D01*
X152712285Y-85408886D01*
X152591970Y-85243286D01*
X152591967Y-85243283D01*
X152591966Y-85243281D01*
X152447219Y-85098534D01*
X152447215Y-85098531D01*
X152447213Y-85098529D01*
X152281613Y-84978214D01*
X152281609Y-84978212D01*
X152099219Y-84885280D01*
X151904529Y-84822021D01*
X151702355Y-84790000D01*
X151702352Y-84790000D01*
X151297648Y-84790000D01*
X151297645Y-84790000D01*
X151095470Y-84822021D01*
X150900780Y-84885280D01*
X150718390Y-84978212D01*
X150718386Y-84978214D01*
X150552786Y-85098529D01*
X150408032Y-85243283D01*
X150379593Y-85282427D01*
X150330093Y-85318391D01*
X150268907Y-85318391D01*
X150219407Y-85282427D01*
X150200500Y-85224236D01*
X150200500Y-81700000D01*
X150219407Y-81641809D01*
X150268907Y-81605845D01*
X150299500Y-81601000D01*
X166000500Y-81601000D01*
X166058691Y-81619907D01*
G37*
%TD.AperFunction*%
%TD*%
%TA.AperFunction,Conductor*%
%TO.N,Board_1-/OUT_B1*%
G36*
X163059191Y-34069407D02*
G01*
X163095155Y-34118907D01*
X163100000Y-34149500D01*
X163100000Y-36150500D01*
X163400000Y-36450500D01*
X163996809Y-36450500D01*
X164003933Y-36450926D01*
X164003940Y-36450823D01*
X164006895Y-36450999D01*
X164006898Y-36451000D01*
X164006901Y-36451000D01*
X165793099Y-36451000D01*
X165793102Y-36451000D01*
X165793104Y-36450999D01*
X165796060Y-36450823D01*
X165796066Y-36450926D01*
X165803191Y-36450500D01*
X166000500Y-36450500D01*
X166058691Y-36469407D01*
X166094655Y-36518907D01*
X166099500Y-36549500D01*
X166099500Y-38696000D01*
X166080593Y-38754191D01*
X166031093Y-38790155D01*
X166000500Y-38795000D01*
X161735508Y-38795000D01*
X161677317Y-38776093D01*
X161665504Y-38766004D01*
X158578996Y-35679496D01*
X158551219Y-35624979D01*
X158550000Y-35609492D01*
X158550000Y-34149500D01*
X158568907Y-34091309D01*
X158618407Y-34055345D01*
X158649000Y-34050500D01*
X163001000Y-34050500D01*
X163059191Y-34069407D01*
G37*
%TD.AperFunction*%
%TD*%
%TA.AperFunction,Conductor*%
%TO.N,Board_2-/OUT_A1*%
G36*
X146758691Y-68369407D02*
G01*
X146794655Y-68418907D01*
X146799500Y-68449500D01*
X146799500Y-70651500D01*
X146780593Y-70709691D01*
X146731093Y-70745655D01*
X146700500Y-70750500D01*
X145812599Y-70750500D01*
X145804836Y-70750195D01*
X145802357Y-70750000D01*
X145802352Y-70750000D01*
X145397648Y-70750000D01*
X145397643Y-70750000D01*
X145395164Y-70750195D01*
X145387401Y-70750500D01*
X139641008Y-70750500D01*
X139582817Y-70731593D01*
X139571004Y-70721504D01*
X139228996Y-70379496D01*
X139201219Y-70324979D01*
X139200000Y-70309492D01*
X139200000Y-68591508D01*
X139218907Y-68533317D01*
X139228996Y-68521504D01*
X139371004Y-68379496D01*
X139425521Y-68351719D01*
X139441008Y-68350500D01*
X146700500Y-68350500D01*
X146758691Y-68369407D01*
G37*
%TD.AperFunction*%
%TD*%
%TA.AperFunction,Conductor*%
%TO.N,Board_1-/OUT_B2*%
G36*
X158159191Y-34069407D02*
G01*
X158195155Y-34118907D01*
X158200000Y-34149500D01*
X158200000Y-35750500D01*
X161550000Y-39100500D01*
X166000500Y-39100500D01*
X166058691Y-39119407D01*
X166094655Y-39168907D01*
X166099500Y-39199500D01*
X166099500Y-41151500D01*
X166080593Y-41209691D01*
X166031093Y-41245655D01*
X166000500Y-41250500D01*
X160241008Y-41250500D01*
X160182817Y-41231593D01*
X160171004Y-41221504D01*
X158050000Y-39100500D01*
X154900000Y-35950500D01*
X154899999Y-35950500D01*
X153891008Y-35950500D01*
X153832817Y-35931593D01*
X153821004Y-35921504D01*
X153678996Y-35779496D01*
X153651219Y-35724979D01*
X153650000Y-35709492D01*
X153650000Y-34149500D01*
X153668907Y-34091309D01*
X153718407Y-34055345D01*
X153749000Y-34050500D01*
X158101000Y-34050500D01*
X158159191Y-34069407D01*
G37*
%TD.AperFunction*%
%TD*%
%TA.AperFunction,Conductor*%
%TO.N,Board_3-/OUT_B2*%
G36*
X158159191Y-58269407D02*
G01*
X158195155Y-58318907D01*
X158200000Y-58349500D01*
X158200000Y-59950500D01*
X161550000Y-63300500D01*
X166000500Y-63300500D01*
X166058691Y-63319407D01*
X166094655Y-63368907D01*
X166099500Y-63399500D01*
X166099500Y-65351500D01*
X166080593Y-65409691D01*
X166031093Y-65445655D01*
X166000500Y-65450500D01*
X160241008Y-65450500D01*
X160182817Y-65431593D01*
X160171004Y-65421504D01*
X158050000Y-63300500D01*
X154900000Y-60150500D01*
X154899999Y-60150500D01*
X153891008Y-60150500D01*
X153832817Y-60131593D01*
X153821004Y-60121504D01*
X153678996Y-59979496D01*
X153651219Y-59924979D01*
X153650000Y-59909492D01*
X153650000Y-58349500D01*
X153668907Y-58291309D01*
X153718407Y-58255345D01*
X153749000Y-58250500D01*
X158101000Y-58250500D01*
X158159191Y-58269407D01*
G37*
%TD.AperFunction*%
%TD*%
%TA.AperFunction,Conductor*%
%TO.N,Board_5-/VM*%
G36*
X166058691Y-97674907D02*
G01*
X166094655Y-97724407D01*
X166099500Y-97755000D01*
X166099500Y-102301000D01*
X166080593Y-102359191D01*
X166031093Y-102395155D01*
X166000500Y-102400000D01*
X160899000Y-102400000D01*
X160840809Y-102381093D01*
X160804845Y-102331593D01*
X160800000Y-102301000D01*
X160800000Y-97755000D01*
X160818907Y-97696809D01*
X160868407Y-97660845D01*
X160899000Y-97656000D01*
X166000500Y-97656000D01*
X166058691Y-97674907D01*
G37*
%TD.AperFunction*%
%TD*%
%TA.AperFunction,Conductor*%
%TO.N,Board_1-/OUT_A2*%
G36*
X158195734Y-44119407D02*
G01*
X158231698Y-44168907D01*
X158231698Y-44230093D01*
X158228474Y-44238648D01*
X158228357Y-44238919D01*
X158209451Y-44297103D01*
X158194500Y-44391504D01*
X158194500Y-46109481D01*
X158195442Y-46133469D01*
X158196664Y-46148994D01*
X158197294Y-46155972D01*
X158229015Y-46263670D01*
X158256792Y-46318187D01*
X158282662Y-46353794D01*
X158312970Y-46395511D01*
X158312972Y-46395513D01*
X158312975Y-46395517D01*
X158654983Y-46737525D01*
X158672601Y-46753811D01*
X158684414Y-46763900D01*
X158689831Y-46768419D01*
X158689837Y-46768422D01*
X158689842Y-46768426D01*
X158788409Y-46822139D01*
X158788411Y-46822140D01*
X158846604Y-46841048D01*
X158846601Y-46841048D01*
X158941005Y-46856000D01*
X158941008Y-46856000D01*
X164687396Y-46856000D01*
X164687401Y-46856000D01*
X164699395Y-46855764D01*
X164704180Y-46855576D01*
X164708066Y-46855500D01*
X165091934Y-46855500D01*
X165095820Y-46855576D01*
X165100605Y-46855764D01*
X165112599Y-46856000D01*
X165112604Y-46856000D01*
X166000500Y-46856000D01*
X166058691Y-46874907D01*
X166094655Y-46924407D01*
X166099500Y-46955000D01*
X166099500Y-48851500D01*
X166080593Y-48909691D01*
X166031093Y-48945655D01*
X166000500Y-48950500D01*
X155491008Y-48950500D01*
X155432817Y-48931593D01*
X155421004Y-48921504D01*
X153678996Y-47179496D01*
X153651219Y-47124979D01*
X153650000Y-47109492D01*
X153650000Y-44199500D01*
X153668907Y-44141309D01*
X153718407Y-44105345D01*
X153749000Y-44100500D01*
X158137543Y-44100500D01*
X158195734Y-44119407D01*
G37*
%TD.AperFunction*%
%TD*%
%TA.AperFunction,Conductor*%
%TO.N,Board_0-/OUT_A2*%
G36*
X138895734Y-44119407D02*
G01*
X138931698Y-44168907D01*
X138931698Y-44230093D01*
X138928474Y-44238648D01*
X138928357Y-44238919D01*
X138909451Y-44297103D01*
X138894500Y-44391504D01*
X138894500Y-46109481D01*
X138895442Y-46133469D01*
X138896664Y-46148994D01*
X138897294Y-46155972D01*
X138929015Y-46263670D01*
X138956792Y-46318187D01*
X138982662Y-46353794D01*
X139012970Y-46395511D01*
X139012972Y-46395513D01*
X139012975Y-46395517D01*
X139354983Y-46737525D01*
X139372601Y-46753811D01*
X139384414Y-46763900D01*
X139389831Y-46768419D01*
X139389837Y-46768422D01*
X139389842Y-46768426D01*
X139488409Y-46822139D01*
X139488411Y-46822140D01*
X139546604Y-46841048D01*
X139546601Y-46841048D01*
X139641005Y-46856000D01*
X139641008Y-46856000D01*
X145387396Y-46856000D01*
X145387401Y-46856000D01*
X145399395Y-46855764D01*
X145404180Y-46855576D01*
X145408066Y-46855500D01*
X145791934Y-46855500D01*
X145795820Y-46855576D01*
X145800605Y-46855764D01*
X145812599Y-46856000D01*
X145812604Y-46856000D01*
X146700500Y-46856000D01*
X146758691Y-46874907D01*
X146794655Y-46924407D01*
X146799500Y-46955000D01*
X146799500Y-48851500D01*
X146780593Y-48909691D01*
X146731093Y-48945655D01*
X146700500Y-48950500D01*
X136191008Y-48950500D01*
X136132817Y-48931593D01*
X136121004Y-48921504D01*
X134378996Y-47179496D01*
X134351219Y-47124979D01*
X134350000Y-47109492D01*
X134350000Y-44199500D01*
X134368907Y-44141309D01*
X134418407Y-44105345D01*
X134449000Y-44100500D01*
X138837543Y-44100500D01*
X138895734Y-44119407D01*
G37*
%TD.AperFunction*%
%TD*%
M02*
