%TF.GenerationSoftware,KiCad,Pcbnew,8.0.4*%
%TF.CreationDate,2024-09-15T22:50:30-03:00*%
%TF.ProjectId,panelized_TA65,70616e65-6c69-47a6-9564-5f544136352e,rev?*%
%TF.SameCoordinates,Original*%
%TF.FileFunction,Legend,Bot*%
%TF.FilePolarity,Positive*%
%FSLAX46Y46*%
G04 Gerber Fmt 4.6, Leading zero omitted, Abs format (unit mm)*
G04 Created by KiCad (PCBNEW 8.0.4) date 2024-09-15 22:50:30*
%MOMM*%
%LPD*%
G01*
G04 APERTURE LIST*
%ADD10C,0.200000*%
%ADD11C,0.150000*%
%ADD12C,0.120000*%
G04 APERTURE END LIST*
D10*
X141000000Y-73025500D02*
X139536678Y-74275500D01*
X139536678Y-71775500D01*
X141000000Y-73025500D01*
G36*
X141000000Y-73025500D02*
G01*
X139536678Y-74275500D01*
X139536678Y-71775500D01*
X141000000Y-73025500D01*
G37*
X141000000Y-48825500D02*
X139536678Y-50075500D01*
X139536678Y-47575500D01*
X141000000Y-48825500D01*
G36*
X141000000Y-48825500D02*
G01*
X139536678Y-50075500D01*
X139536678Y-47575500D01*
X141000000Y-48825500D01*
G37*
X160300000Y-73025500D02*
X158836678Y-74275500D01*
X158836678Y-71775500D01*
X160300000Y-73025500D01*
G36*
X160300000Y-73025500D02*
G01*
X158836678Y-74275500D01*
X158836678Y-71775500D01*
X160300000Y-73025500D01*
G37*
X141000000Y-97225500D02*
X139536678Y-98475500D01*
X139536678Y-95975500D01*
X141000000Y-97225500D01*
G36*
X141000000Y-97225500D02*
G01*
X139536678Y-98475500D01*
X139536678Y-95975500D01*
X141000000Y-97225500D01*
G37*
X160300000Y-97225500D02*
X158836678Y-98475500D01*
X158836678Y-95975500D01*
X160300000Y-97225500D01*
G36*
X160300000Y-97225500D02*
G01*
X158836678Y-98475500D01*
X158836678Y-95975500D01*
X160300000Y-97225500D01*
G37*
X160300000Y-48825500D02*
X158836678Y-50075500D01*
X158836678Y-47575500D01*
X160300000Y-48825500D01*
G36*
X160300000Y-48825500D02*
G01*
X158836678Y-50075500D01*
X158836678Y-47575500D01*
X160300000Y-48825500D01*
G37*
D11*
X165233333Y-80675319D02*
X165233333Y-81389604D01*
X165233333Y-81389604D02*
X165280952Y-81532461D01*
X165280952Y-81532461D02*
X165376190Y-81627700D01*
X165376190Y-81627700D02*
X165519047Y-81675319D01*
X165519047Y-81675319D02*
X165614285Y-81675319D01*
X164804761Y-80770557D02*
X164757142Y-80722938D01*
X164757142Y-80722938D02*
X164661904Y-80675319D01*
X164661904Y-80675319D02*
X164423809Y-80675319D01*
X164423809Y-80675319D02*
X164328571Y-80722938D01*
X164328571Y-80722938D02*
X164280952Y-80770557D01*
X164280952Y-80770557D02*
X164233333Y-80865795D01*
X164233333Y-80865795D02*
X164233333Y-80961033D01*
X164233333Y-80961033D02*
X164280952Y-81103890D01*
X164280952Y-81103890D02*
X164852380Y-81675319D01*
X164852380Y-81675319D02*
X164233333Y-81675319D01*
X132533333Y-32275319D02*
X132533333Y-32989604D01*
X132533333Y-32989604D02*
X132580952Y-33132461D01*
X132580952Y-33132461D02*
X132676190Y-33227700D01*
X132676190Y-33227700D02*
X132819047Y-33275319D01*
X132819047Y-33275319D02*
X132914285Y-33275319D01*
X131533333Y-33275319D02*
X132104761Y-33275319D01*
X131819047Y-33275319D02*
X131819047Y-32275319D01*
X131819047Y-32275319D02*
X131914285Y-32418176D01*
X131914285Y-32418176D02*
X132009523Y-32513414D01*
X132009523Y-32513414D02*
X132104761Y-32561033D01*
X165233333Y-56475319D02*
X165233333Y-57189604D01*
X165233333Y-57189604D02*
X165280952Y-57332461D01*
X165280952Y-57332461D02*
X165376190Y-57427700D01*
X165376190Y-57427700D02*
X165519047Y-57475319D01*
X165519047Y-57475319D02*
X165614285Y-57475319D01*
X164804761Y-56570557D02*
X164757142Y-56522938D01*
X164757142Y-56522938D02*
X164661904Y-56475319D01*
X164661904Y-56475319D02*
X164423809Y-56475319D01*
X164423809Y-56475319D02*
X164328571Y-56522938D01*
X164328571Y-56522938D02*
X164280952Y-56570557D01*
X164280952Y-56570557D02*
X164233333Y-56665795D01*
X164233333Y-56665795D02*
X164233333Y-56761033D01*
X164233333Y-56761033D02*
X164280952Y-56903890D01*
X164280952Y-56903890D02*
X164852380Y-57475319D01*
X164852380Y-57475319D02*
X164233333Y-57475319D01*
X165233333Y-32275319D02*
X165233333Y-32989604D01*
X165233333Y-32989604D02*
X165280952Y-33132461D01*
X165280952Y-33132461D02*
X165376190Y-33227700D01*
X165376190Y-33227700D02*
X165519047Y-33275319D01*
X165519047Y-33275319D02*
X165614285Y-33275319D01*
X164804761Y-32370557D02*
X164757142Y-32322938D01*
X164757142Y-32322938D02*
X164661904Y-32275319D01*
X164661904Y-32275319D02*
X164423809Y-32275319D01*
X164423809Y-32275319D02*
X164328571Y-32322938D01*
X164328571Y-32322938D02*
X164280952Y-32370557D01*
X164280952Y-32370557D02*
X164233333Y-32465795D01*
X164233333Y-32465795D02*
X164233333Y-32561033D01*
X164233333Y-32561033D02*
X164280952Y-32703890D01*
X164280952Y-32703890D02*
X164852380Y-33275319D01*
X164852380Y-33275319D02*
X164233333Y-33275319D01*
X145933333Y-80675319D02*
X145933333Y-81389604D01*
X145933333Y-81389604D02*
X145980952Y-81532461D01*
X145980952Y-81532461D02*
X146076190Y-81627700D01*
X146076190Y-81627700D02*
X146219047Y-81675319D01*
X146219047Y-81675319D02*
X146314285Y-81675319D01*
X145504761Y-80770557D02*
X145457142Y-80722938D01*
X145457142Y-80722938D02*
X145361904Y-80675319D01*
X145361904Y-80675319D02*
X145123809Y-80675319D01*
X145123809Y-80675319D02*
X145028571Y-80722938D01*
X145028571Y-80722938D02*
X144980952Y-80770557D01*
X144980952Y-80770557D02*
X144933333Y-80865795D01*
X144933333Y-80865795D02*
X144933333Y-80961033D01*
X144933333Y-80961033D02*
X144980952Y-81103890D01*
X144980952Y-81103890D02*
X145552380Y-81675319D01*
X145552380Y-81675319D02*
X144933333Y-81675319D01*
X132533333Y-56475319D02*
X132533333Y-57189604D01*
X132533333Y-57189604D02*
X132580952Y-57332461D01*
X132580952Y-57332461D02*
X132676190Y-57427700D01*
X132676190Y-57427700D02*
X132819047Y-57475319D01*
X132819047Y-57475319D02*
X132914285Y-57475319D01*
X131533333Y-57475319D02*
X132104761Y-57475319D01*
X131819047Y-57475319D02*
X131819047Y-56475319D01*
X131819047Y-56475319D02*
X131914285Y-56618176D01*
X131914285Y-56618176D02*
X132009523Y-56713414D01*
X132009523Y-56713414D02*
X132104761Y-56761033D01*
X145933333Y-56475319D02*
X145933333Y-57189604D01*
X145933333Y-57189604D02*
X145980952Y-57332461D01*
X145980952Y-57332461D02*
X146076190Y-57427700D01*
X146076190Y-57427700D02*
X146219047Y-57475319D01*
X146219047Y-57475319D02*
X146314285Y-57475319D01*
X145504761Y-56570557D02*
X145457142Y-56522938D01*
X145457142Y-56522938D02*
X145361904Y-56475319D01*
X145361904Y-56475319D02*
X145123809Y-56475319D01*
X145123809Y-56475319D02*
X145028571Y-56522938D01*
X145028571Y-56522938D02*
X144980952Y-56570557D01*
X144980952Y-56570557D02*
X144933333Y-56665795D01*
X144933333Y-56665795D02*
X144933333Y-56761033D01*
X144933333Y-56761033D02*
X144980952Y-56903890D01*
X144980952Y-56903890D02*
X145552380Y-57475319D01*
X145552380Y-57475319D02*
X144933333Y-57475319D01*
X132533333Y-80675319D02*
X132533333Y-81389604D01*
X132533333Y-81389604D02*
X132580952Y-81532461D01*
X132580952Y-81532461D02*
X132676190Y-81627700D01*
X132676190Y-81627700D02*
X132819047Y-81675319D01*
X132819047Y-81675319D02*
X132914285Y-81675319D01*
X131533333Y-81675319D02*
X132104761Y-81675319D01*
X131819047Y-81675319D02*
X131819047Y-80675319D01*
X131819047Y-80675319D02*
X131914285Y-80818176D01*
X131914285Y-80818176D02*
X132009523Y-80913414D01*
X132009523Y-80913414D02*
X132104761Y-80961033D01*
X151833333Y-56475319D02*
X151833333Y-57189604D01*
X151833333Y-57189604D02*
X151880952Y-57332461D01*
X151880952Y-57332461D02*
X151976190Y-57427700D01*
X151976190Y-57427700D02*
X152119047Y-57475319D01*
X152119047Y-57475319D02*
X152214285Y-57475319D01*
X150833333Y-57475319D02*
X151404761Y-57475319D01*
X151119047Y-57475319D02*
X151119047Y-56475319D01*
X151119047Y-56475319D02*
X151214285Y-56618176D01*
X151214285Y-56618176D02*
X151309523Y-56713414D01*
X151309523Y-56713414D02*
X151404761Y-56761033D01*
X151833333Y-32275319D02*
X151833333Y-32989604D01*
X151833333Y-32989604D02*
X151880952Y-33132461D01*
X151880952Y-33132461D02*
X151976190Y-33227700D01*
X151976190Y-33227700D02*
X152119047Y-33275319D01*
X152119047Y-33275319D02*
X152214285Y-33275319D01*
X150833333Y-33275319D02*
X151404761Y-33275319D01*
X151119047Y-33275319D02*
X151119047Y-32275319D01*
X151119047Y-32275319D02*
X151214285Y-32418176D01*
X151214285Y-32418176D02*
X151309523Y-32513414D01*
X151309523Y-32513414D02*
X151404761Y-32561033D01*
X151833333Y-80675319D02*
X151833333Y-81389604D01*
X151833333Y-81389604D02*
X151880952Y-81532461D01*
X151880952Y-81532461D02*
X151976190Y-81627700D01*
X151976190Y-81627700D02*
X152119047Y-81675319D01*
X152119047Y-81675319D02*
X152214285Y-81675319D01*
X150833333Y-81675319D02*
X151404761Y-81675319D01*
X151119047Y-81675319D02*
X151119047Y-80675319D01*
X151119047Y-80675319D02*
X151214285Y-80818176D01*
X151214285Y-80818176D02*
X151309523Y-80913414D01*
X151309523Y-80913414D02*
X151404761Y-80961033D01*
X145933333Y-32275319D02*
X145933333Y-32989604D01*
X145933333Y-32989604D02*
X145980952Y-33132461D01*
X145980952Y-33132461D02*
X146076190Y-33227700D01*
X146076190Y-33227700D02*
X146219047Y-33275319D01*
X146219047Y-33275319D02*
X146314285Y-33275319D01*
X145504761Y-32370557D02*
X145457142Y-32322938D01*
X145457142Y-32322938D02*
X145361904Y-32275319D01*
X145361904Y-32275319D02*
X145123809Y-32275319D01*
X145123809Y-32275319D02*
X145028571Y-32322938D01*
X145028571Y-32322938D02*
X144980952Y-32370557D01*
X144980952Y-32370557D02*
X144933333Y-32465795D01*
X144933333Y-32465795D02*
X144933333Y-32561033D01*
X144933333Y-32561033D02*
X144980952Y-32703890D01*
X144980952Y-32703890D02*
X145552380Y-33275319D01*
X145552380Y-33275319D02*
X144933333Y-33275319D01*
D12*
%TO.C,C2*%
X142015000Y-46439248D02*
X142015000Y-46961752D01*
X143485000Y-46439248D02*
X143485000Y-46961752D01*
%TO.C,J2*%
X163570000Y-84820500D02*
X166230000Y-84820500D01*
X163570000Y-100120500D02*
X163570000Y-84820500D01*
X163570000Y-100120500D02*
X166230000Y-100120500D01*
X164900000Y-82220500D02*
X166230000Y-82220500D01*
X166230000Y-82220500D02*
X166230000Y-83550500D01*
X166230000Y-100120500D02*
X166230000Y-84820500D01*
%TO.C,J1*%
X130870000Y-36420500D02*
X133530000Y-36420500D01*
X130870000Y-51720500D02*
X130870000Y-36420500D01*
X130870000Y-51720500D02*
X133530000Y-51720500D01*
X132200000Y-33820500D02*
X133530000Y-33820500D01*
X133530000Y-33820500D02*
X133530000Y-35150500D01*
X133530000Y-51720500D02*
X133530000Y-36420500D01*
%TO.C,C1*%
X161315000Y-62889248D02*
X161315000Y-63411752D01*
X162785000Y-62889248D02*
X162785000Y-63411752D01*
%TO.C,J2*%
X163570000Y-60620500D02*
X166230000Y-60620500D01*
X163570000Y-75920500D02*
X163570000Y-60620500D01*
X163570000Y-75920500D02*
X166230000Y-75920500D01*
X164900000Y-58020500D02*
X166230000Y-58020500D01*
X166230000Y-58020500D02*
X166230000Y-59350500D01*
X166230000Y-75920500D02*
X166230000Y-60620500D01*
%TO.C,C2*%
X161315000Y-70639248D02*
X161315000Y-71161752D01*
X162785000Y-70639248D02*
X162785000Y-71161752D01*
%TO.C,J2*%
X163570000Y-36420500D02*
X166230000Y-36420500D01*
X163570000Y-51720500D02*
X163570000Y-36420500D01*
X163570000Y-51720500D02*
X166230000Y-51720500D01*
X164900000Y-33820500D02*
X166230000Y-33820500D01*
X166230000Y-33820500D02*
X166230000Y-35150500D01*
X166230000Y-51720500D02*
X166230000Y-36420500D01*
X144270000Y-84820500D02*
X146930000Y-84820500D01*
X144270000Y-100120500D02*
X144270000Y-84820500D01*
X144270000Y-100120500D02*
X146930000Y-100120500D01*
X145600000Y-82220500D02*
X146930000Y-82220500D01*
X146930000Y-82220500D02*
X146930000Y-83550500D01*
X146930000Y-100120500D02*
X146930000Y-84820500D01*
%TO.C,C2*%
X161315000Y-94839248D02*
X161315000Y-95361752D01*
X162785000Y-94839248D02*
X162785000Y-95361752D01*
X161315000Y-46439248D02*
X161315000Y-46961752D01*
X162785000Y-46439248D02*
X162785000Y-46961752D01*
%TO.C,J1*%
X130870000Y-60620500D02*
X133530000Y-60620500D01*
X130870000Y-75920500D02*
X130870000Y-60620500D01*
X130870000Y-75920500D02*
X133530000Y-75920500D01*
X132200000Y-58020500D02*
X133530000Y-58020500D01*
X133530000Y-58020500D02*
X133530000Y-59350500D01*
X133530000Y-75920500D02*
X133530000Y-60620500D01*
%TO.C,C1*%
X142015000Y-38689248D02*
X142015000Y-39211752D01*
X143485000Y-38689248D02*
X143485000Y-39211752D01*
%TO.C,C2*%
X142015000Y-94839248D02*
X142015000Y-95361752D01*
X143485000Y-94839248D02*
X143485000Y-95361752D01*
%TO.C,J2*%
X144270000Y-60620500D02*
X146930000Y-60620500D01*
X144270000Y-75920500D02*
X144270000Y-60620500D01*
X144270000Y-75920500D02*
X146930000Y-75920500D01*
X145600000Y-58020500D02*
X146930000Y-58020500D01*
X146930000Y-58020500D02*
X146930000Y-59350500D01*
X146930000Y-75920500D02*
X146930000Y-60620500D01*
%TO.C,J1*%
X130870000Y-84820500D02*
X133530000Y-84820500D01*
X130870000Y-100120500D02*
X130870000Y-84820500D01*
X130870000Y-100120500D02*
X133530000Y-100120500D01*
X132200000Y-82220500D02*
X133530000Y-82220500D01*
X133530000Y-82220500D02*
X133530000Y-83550500D01*
X133530000Y-100120500D02*
X133530000Y-84820500D01*
X150170000Y-60620500D02*
X152830000Y-60620500D01*
X150170000Y-75920500D02*
X150170000Y-60620500D01*
X150170000Y-75920500D02*
X152830000Y-75920500D01*
X151500000Y-58020500D02*
X152830000Y-58020500D01*
X152830000Y-58020500D02*
X152830000Y-59350500D01*
X152830000Y-75920500D02*
X152830000Y-60620500D01*
X150170000Y-36420500D02*
X152830000Y-36420500D01*
X150170000Y-51720500D02*
X150170000Y-36420500D01*
X150170000Y-51720500D02*
X152830000Y-51720500D01*
X151500000Y-33820500D02*
X152830000Y-33820500D01*
X152830000Y-33820500D02*
X152830000Y-35150500D01*
X152830000Y-51720500D02*
X152830000Y-36420500D01*
%TO.C,C1*%
X142015000Y-87089248D02*
X142015000Y-87611752D01*
X143485000Y-87089248D02*
X143485000Y-87611752D01*
%TO.C,J1*%
X150170000Y-84820500D02*
X152830000Y-84820500D01*
X150170000Y-100120500D02*
X150170000Y-84820500D01*
X150170000Y-100120500D02*
X152830000Y-100120500D01*
X151500000Y-82220500D02*
X152830000Y-82220500D01*
X152830000Y-82220500D02*
X152830000Y-83550500D01*
X152830000Y-100120500D02*
X152830000Y-84820500D01*
%TO.C,J2*%
X144270000Y-36420500D02*
X146930000Y-36420500D01*
X144270000Y-51720500D02*
X144270000Y-36420500D01*
X144270000Y-51720500D02*
X146930000Y-51720500D01*
X145600000Y-33820500D02*
X146930000Y-33820500D01*
X146930000Y-33820500D02*
X146930000Y-35150500D01*
X146930000Y-51720500D02*
X146930000Y-36420500D01*
%TO.C,C2*%
X142015000Y-70639248D02*
X142015000Y-71161752D01*
X143485000Y-70639248D02*
X143485000Y-71161752D01*
%TO.C,C1*%
X161315000Y-38689248D02*
X161315000Y-39211752D01*
X162785000Y-38689248D02*
X162785000Y-39211752D01*
X142015000Y-62889248D02*
X142015000Y-63411752D01*
X143485000Y-62889248D02*
X143485000Y-63411752D01*
X161315000Y-87089248D02*
X161315000Y-87611752D01*
X162785000Y-87089248D02*
X162785000Y-87611752D01*
%TD*%
M02*
