%TF.GenerationSoftware,KiCad,Pcbnew,8.0.4*%
%TF.CreationDate,2024-09-15T22:50:30-03:00*%
%TF.ProjectId,panelized_TA65,70616e65-6c69-47a6-9564-5f544136352e,rev?*%
%TF.SameCoordinates,Original*%
%TF.FileFunction,Soldermask,Top*%
%TF.FilePolarity,Negative*%
%FSLAX46Y46*%
G04 Gerber Fmt 4.6, Leading zero omitted, Abs format (unit mm)*
G04 Created by KiCad (PCBNEW 8.0.4) date 2024-09-15 22:50:30*
%MOMM*%
%LPD*%
G01*
G04 APERTURE LIST*
G04 Aperture macros list*
%AMRoundRect*
0 Rectangle with rounded corners*
0 $1 Rounding radius*
0 $2 $3 $4 $5 $6 $7 $8 $9 X,Y pos of 4 corners*
0 Add a 4 corners polygon primitive as box body*
4,1,4,$2,$3,$4,$5,$6,$7,$8,$9,$2,$3,0*
0 Add four circle primitives for the rounded corners*
1,1,$1+$1,$2,$3*
1,1,$1+$1,$4,$5*
1,1,$1+$1,$6,$7*
1,1,$1+$1,$8,$9*
0 Add four rect primitives between the rounded corners*
20,1,$1+$1,$2,$3,$4,$5,0*
20,1,$1+$1,$4,$5,$6,$7,0*
20,1,$1+$1,$6,$7,$8,$9,0*
20,1,$1+$1,$8,$9,$2,$3,0*%
G04 Aperture macros list end*
%ADD10C,0.500000*%
%ADD11R,1.600000X1.600000*%
%ADD12C,2.000000*%
%ADD13RoundRect,0.250000X0.850000X0.750000X-0.850000X0.750000X-0.850000X-0.750000X0.850000X-0.750000X0*%
%ADD14O,2.200000X2.000000*%
G04 APERTURE END LIST*
D10*
%TO.C,KiKit_MB_3_5*%
X139683333Y-32800500D03*
%TD*%
%TO.C,KiKit_MB_9_3*%
X147200000Y-64767166D03*
%TD*%
%TO.C,KiKit_MB_6_3*%
X149800000Y-46633833D03*
%TD*%
%TO.C,KiKit_MB_22_3*%
X149800000Y-95033833D03*
%TD*%
%TO.C,KiKit_MB_10_4*%
X147200000Y-72833833D03*
%TD*%
%TO.C,KiKit_MB_3_1*%
X136350000Y-32800500D03*
%TD*%
%TO.C,KiKit_MB_16_6*%
X156483333Y-78600500D03*
%TD*%
%TO.C,KiKit_MB_13_1*%
X149800000Y-65767166D03*
%TD*%
%TO.C,KiKit_MB_20_5*%
X138016667Y-102800500D03*
%TD*%
%TO.C,KiKit_MB_8_4*%
X158150000Y-54400500D03*
%TD*%
%TO.C,KiKit_MB_4_5*%
X138016667Y-54400500D03*
%TD*%
%TO.C,KiKit_MB_20_7*%
X136350000Y-102800500D03*
%TD*%
%TO.C,KiKit_MB_14_1*%
X149800000Y-72833833D03*
%TD*%
%TO.C,KiKit_MB_12_3*%
X139683333Y-78600500D03*
%TD*%
%TO.C,KiKit_MB_17_3*%
X147200000Y-88967166D03*
%TD*%
%TO.C,KiKit_MB_16_2*%
X159816666Y-78600500D03*
%TD*%
%TO.C,KiKit_MB_23_1*%
X155650000Y-81200500D03*
%TD*%
%TO.C,KiKit_MB_16_1*%
X160650000Y-78600500D03*
%TD*%
%TO.C,KiKit_MB_7_4*%
X158150000Y-32800500D03*
%TD*%
%TO.C,KiKit_MB_10_2*%
X147200000Y-70833833D03*
%TD*%
%TO.C,KiKit_MB_7_5*%
X158983333Y-32800500D03*
%TD*%
%TO.C,KiKit_MB_16_5*%
X157316666Y-78600500D03*
%TD*%
%TO.C,KiKit_MB_4_4*%
X138850000Y-54400500D03*
%TD*%
%TO.C,KiKit_MB_6_1*%
X149800000Y-48633833D03*
%TD*%
D11*
%TO.C,U1*%
X154480000Y-101270500D03*
X157020000Y-101270500D03*
X159560000Y-101270500D03*
X162100000Y-101270500D03*
X162100000Y-93650500D03*
X159560000Y-93650500D03*
X157020000Y-93650500D03*
X154480000Y-93650500D03*
%TD*%
D10*
%TO.C,KiKit_MB_9_1*%
X147200000Y-62767166D03*
%TD*%
%TO.C,KiKit_MB_19_5*%
X139683333Y-81200500D03*
%TD*%
D11*
%TO.C,U1*%
X154480000Y-52870500D03*
X157020000Y-52870500D03*
X159560000Y-52870500D03*
X162100000Y-52870500D03*
X162100000Y-45250500D03*
X159560000Y-45250500D03*
X157020000Y-45250500D03*
X154480000Y-45250500D03*
%TD*%
D10*
%TO.C,KiKit_MB_7_6*%
X159816666Y-32800500D03*
%TD*%
%TO.C,KiKit_MB_11_1*%
X136350000Y-57000500D03*
%TD*%
%TO.C,KiKit_MB_12_4*%
X138850000Y-78600500D03*
%TD*%
D11*
%TO.C,U2*%
X154480000Y-66750500D03*
X157020000Y-66750500D03*
X159560000Y-66750500D03*
X162100000Y-66750500D03*
X162100000Y-59130500D03*
X159560000Y-59130500D03*
X157020000Y-59130500D03*
X154480000Y-59130500D03*
%TD*%
D10*
%TO.C,KiKit_MB_20_1*%
X141350000Y-102800500D03*
%TD*%
%TO.C,KiKit_MB_10_1*%
X147200000Y-69833833D03*
%TD*%
%TO.C,KiKit_MB_17_2*%
X147200000Y-87967166D03*
%TD*%
%TO.C,KiKit_MB_1_4*%
X147200000Y-41567167D03*
%TD*%
%TO.C,KiKit_MB_13_3*%
X149800000Y-63767166D03*
%TD*%
%TO.C,KiKit_MB_14_2*%
X149800000Y-71833833D03*
%TD*%
%TO.C,KiKit_MB_2_3*%
X147200000Y-47633833D03*
%TD*%
%TO.C,KiKit_MB_7_7*%
X160650000Y-32800500D03*
%TD*%
%TO.C,KiKit_MB_1_3*%
X147200000Y-40567167D03*
%TD*%
%TO.C,KiKit_MB_18_4*%
X147200000Y-97033833D03*
%TD*%
%TO.C,KiKit_MB_7_2*%
X156483333Y-32800500D03*
%TD*%
D11*
%TO.C,U1*%
X135180000Y-52870500D03*
X137720000Y-52870500D03*
X140260000Y-52870500D03*
X142800000Y-52870500D03*
X142800000Y-45250500D03*
X140260000Y-45250500D03*
X137720000Y-45250500D03*
X135180000Y-45250500D03*
%TD*%
D10*
%TO.C,KiKit_MB_5_3*%
X149800000Y-39567167D03*
%TD*%
%TO.C,KiKit_MB_23_6*%
X159816666Y-81200500D03*
%TD*%
%TO.C,KiKit_MB_22_1*%
X149800000Y-97033833D03*
%TD*%
%TO.C,KiKit_MB_13_4*%
X149800000Y-62767166D03*
%TD*%
%TO.C,KiKit_MB_16_3*%
X158983333Y-78600500D03*
%TD*%
%TO.C,KiKit_MB_3_4*%
X138850000Y-32800500D03*
%TD*%
%TO.C,KiKit_MB_6_4*%
X149800000Y-45633833D03*
%TD*%
%TO.C,KiKit_MB_16_7*%
X155650000Y-78600500D03*
%TD*%
%TO.C,KiKit_MB_24_6*%
X156483333Y-102800500D03*
%TD*%
D11*
%TO.C,U1*%
X135180000Y-101270500D03*
X137720000Y-101270500D03*
X140260000Y-101270500D03*
X142800000Y-101270500D03*
X142800000Y-93650500D03*
X140260000Y-93650500D03*
X137720000Y-93650500D03*
X135180000Y-93650500D03*
%TD*%
%TO.C,U2*%
X154480000Y-42550500D03*
X157020000Y-42550500D03*
X159560000Y-42550500D03*
X162100000Y-42550500D03*
X162100000Y-34930500D03*
X159560000Y-34930500D03*
X157020000Y-34930500D03*
X154480000Y-34930500D03*
%TD*%
D12*
%TO.C,KiKit_TO_2*%
X166300000Y-20000000D03*
%TD*%
D10*
%TO.C,KiKit_MB_19_6*%
X140516666Y-81200500D03*
%TD*%
%TO.C,KiKit_MB_3_3*%
X138016667Y-32800500D03*
%TD*%
%TO.C,KiKit_MB_8_1*%
X160650000Y-54400500D03*
%TD*%
%TO.C,KiKit_MB_7_1*%
X155650000Y-32800500D03*
%TD*%
%TO.C,KiKit_MB_15_3*%
X157316666Y-57000500D03*
%TD*%
D11*
%TO.C,U1*%
X154480000Y-77070500D03*
X157020000Y-77070500D03*
X159560000Y-77070500D03*
X162100000Y-77070500D03*
X162100000Y-69450500D03*
X159560000Y-69450500D03*
X157020000Y-69450500D03*
X154480000Y-69450500D03*
%TD*%
D10*
%TO.C,KiKit_MB_21_1*%
X149800000Y-89967166D03*
%TD*%
%TO.C,KiKit_MB_20_6*%
X137183334Y-102800500D03*
%TD*%
%TO.C,KiKit_MB_17_1*%
X147200000Y-86967166D03*
%TD*%
%TO.C,KiKit_MB_8_5*%
X157316666Y-54400500D03*
%TD*%
%TO.C,KiKit_MB_7_3*%
X157316666Y-32800500D03*
%TD*%
%TO.C,KiKit_MB_4_7*%
X136350000Y-54400500D03*
%TD*%
%TO.C,KiKit_MB_8_3*%
X158983333Y-54400500D03*
%TD*%
%TO.C,KiKit_MB_21_4*%
X149800000Y-86967166D03*
%TD*%
%TO.C,KiKit_MB_20_4*%
X138850000Y-102800500D03*
%TD*%
D11*
%TO.C,U2*%
X135180000Y-90950500D03*
X137720000Y-90950500D03*
X140260000Y-90950500D03*
X142800000Y-90950500D03*
X142800000Y-83330500D03*
X140260000Y-83330500D03*
X137720000Y-83330500D03*
X135180000Y-83330500D03*
%TD*%
D10*
%TO.C,KiKit_MB_8_7*%
X155650000Y-54400500D03*
%TD*%
%TO.C,KiKit_MB_23_3*%
X157316666Y-81200500D03*
%TD*%
%TO.C,KiKit_MB_14_4*%
X149800000Y-69833833D03*
%TD*%
%TO.C,KiKit_MB_3_2*%
X137183334Y-32800500D03*
%TD*%
%TO.C,KiKit_MB_12_1*%
X141350000Y-78600500D03*
%TD*%
%TO.C,KiKit_MB_18_1*%
X147200000Y-94033833D03*
%TD*%
%TO.C,KiKit_MB_23_7*%
X160650000Y-81200500D03*
%TD*%
%TO.C,KiKit_MB_14_3*%
X149800000Y-70833833D03*
%TD*%
D12*
%TO.C,KiKit_TO_4*%
X166300000Y-115601500D03*
%TD*%
D10*
%TO.C,KiKit_MB_3_6*%
X140516666Y-32800500D03*
%TD*%
%TO.C,KiKit_MB_20_3*%
X139683333Y-102800500D03*
%TD*%
%TO.C,KiKit_MB_3_7*%
X141350000Y-32800500D03*
%TD*%
%TO.C,KiKit_MB_1_1*%
X147200000Y-38567167D03*
%TD*%
%TO.C,KiKit_MB_15_6*%
X159816666Y-57000500D03*
%TD*%
%TO.C,KiKit_MB_19_4*%
X138850000Y-81200500D03*
%TD*%
%TO.C,KiKit_MB_24_2*%
X159816666Y-102800500D03*
%TD*%
%TO.C,KiKit_MB_23_2*%
X156483333Y-81200500D03*
%TD*%
D11*
%TO.C,U2*%
X135180000Y-66750500D03*
X137720000Y-66750500D03*
X140260000Y-66750500D03*
X142800000Y-66750500D03*
X142800000Y-59130500D03*
X140260000Y-59130500D03*
X137720000Y-59130500D03*
X135180000Y-59130500D03*
%TD*%
D10*
%TO.C,KiKit_MB_4_6*%
X137183334Y-54400500D03*
%TD*%
%TO.C,KiKit_MB_22_4*%
X149800000Y-94033833D03*
%TD*%
%TO.C,KiKit_MB_11_7*%
X141350000Y-57000500D03*
%TD*%
%TO.C,KiKit_MB_9_4*%
X147200000Y-65767166D03*
%TD*%
%TO.C,KiKit_MB_11_6*%
X140516666Y-57000500D03*
%TD*%
%TO.C,KiKit_MB_6_2*%
X149800000Y-47633833D03*
%TD*%
%TO.C,KiKit_MB_24_4*%
X158150000Y-102800500D03*
%TD*%
%TO.C,KiKit_MB_13_2*%
X149800000Y-64767166D03*
%TD*%
%TO.C,KiKit_MB_2_4*%
X147200000Y-48633833D03*
%TD*%
%TO.C,KiKit_MB_5_2*%
X149800000Y-40567167D03*
%TD*%
%TO.C,KiKit_MB_10_3*%
X147200000Y-71833833D03*
%TD*%
%TO.C,KiKit_MB_15_4*%
X158150000Y-57000500D03*
%TD*%
D11*
%TO.C,U2*%
X135180000Y-42550500D03*
X137720000Y-42550500D03*
X140260000Y-42550500D03*
X142800000Y-42550500D03*
X142800000Y-34930500D03*
X140260000Y-34930500D03*
X137720000Y-34930500D03*
X135180000Y-34930500D03*
%TD*%
D10*
%TO.C,KiKit_MB_8_2*%
X159816666Y-54400500D03*
%TD*%
%TO.C,KiKit_MB_2_1*%
X147200000Y-45633833D03*
%TD*%
%TO.C,KiKit_MB_2_2*%
X147200000Y-46633833D03*
%TD*%
%TO.C,KiKit_MB_4_1*%
X141350000Y-54400500D03*
%TD*%
%TO.C,KiKit_MB_11_4*%
X138850000Y-57000500D03*
%TD*%
%TO.C,KiKit_MB_11_3*%
X138016667Y-57000500D03*
%TD*%
%TO.C,KiKit_MB_4_3*%
X139683333Y-54400500D03*
%TD*%
%TO.C,KiKit_MB_1_2*%
X147200000Y-39567167D03*
%TD*%
D12*
%TO.C,KiKit_TO_3*%
X130700000Y-115601500D03*
%TD*%
D10*
%TO.C,KiKit_MB_18_2*%
X147200000Y-95033833D03*
%TD*%
%TO.C,KiKit_MB_15_2*%
X156483333Y-57000500D03*
%TD*%
%TO.C,KiKit_MB_15_5*%
X158983333Y-57000500D03*
%TD*%
%TO.C,KiKit_MB_19_2*%
X137183334Y-81200500D03*
%TD*%
%TO.C,KiKit_MB_17_4*%
X147200000Y-89967166D03*
%TD*%
%TO.C,KiKit_MB_12_2*%
X140516666Y-78600500D03*
%TD*%
%TO.C,KiKit_MB_11_2*%
X137183334Y-57000500D03*
%TD*%
%TO.C,KiKit_MB_19_1*%
X136350000Y-81200500D03*
%TD*%
%TO.C,KiKit_MB_8_6*%
X156483333Y-54400500D03*
%TD*%
%TO.C,KiKit_MB_20_2*%
X140516666Y-102800500D03*
%TD*%
%TO.C,KiKit_MB_24_3*%
X158983333Y-102800500D03*
%TD*%
%TO.C,KiKit_MB_23_5*%
X158983333Y-81200500D03*
%TD*%
%TO.C,KiKit_MB_24_1*%
X160650000Y-102800500D03*
%TD*%
%TO.C,KiKit_MB_12_7*%
X136350000Y-78600500D03*
%TD*%
%TO.C,KiKit_MB_16_4*%
X158150000Y-78600500D03*
%TD*%
%TO.C,KiKit_MB_5_1*%
X149800000Y-41567167D03*
%TD*%
%TO.C,KiKit_MB_9_2*%
X147200000Y-63767166D03*
%TD*%
%TO.C,KiKit_MB_4_2*%
X140516666Y-54400500D03*
%TD*%
%TO.C,KiKit_MB_15_7*%
X160650000Y-57000500D03*
%TD*%
%TO.C,KiKit_MB_12_5*%
X138016667Y-78600500D03*
%TD*%
%TO.C,KiKit_MB_24_5*%
X157316666Y-102800500D03*
%TD*%
%TO.C,KiKit_MB_21_3*%
X149800000Y-87967166D03*
%TD*%
%TO.C,KiKit_MB_11_5*%
X139683333Y-57000500D03*
%TD*%
%TO.C,KiKit_MB_22_2*%
X149800000Y-96033833D03*
%TD*%
D11*
%TO.C,U1*%
X135180000Y-77070500D03*
X137720000Y-77070500D03*
X140260000Y-77070500D03*
X142800000Y-77070500D03*
X142800000Y-69450500D03*
X140260000Y-69450500D03*
X137720000Y-69450500D03*
X135180000Y-69450500D03*
%TD*%
D10*
%TO.C,KiKit_MB_15_1*%
X155650000Y-57000500D03*
%TD*%
D11*
%TO.C,U2*%
X154480000Y-90950500D03*
X157020000Y-90950500D03*
X159560000Y-90950500D03*
X162100000Y-90950500D03*
X162100000Y-83330500D03*
X159560000Y-83330500D03*
X157020000Y-83330500D03*
X154480000Y-83330500D03*
%TD*%
D10*
%TO.C,KiKit_MB_23_4*%
X158150000Y-81200500D03*
%TD*%
%TO.C,KiKit_MB_24_7*%
X155650000Y-102800500D03*
%TD*%
%TO.C,KiKit_MB_21_2*%
X149800000Y-88967166D03*
%TD*%
D12*
%TO.C,KiKit_TO_1*%
X130700000Y-20000000D03*
%TD*%
D10*
%TO.C,KiKit_MB_12_6*%
X137183334Y-78600500D03*
%TD*%
%TO.C,KiKit_MB_5_4*%
X149800000Y-38567167D03*
%TD*%
%TO.C,KiKit_MB_19_7*%
X141350000Y-81200500D03*
%TD*%
%TO.C,KiKit_MB_18_3*%
X147200000Y-96033833D03*
%TD*%
%TO.C,KiKit_MB_19_3*%
X138016667Y-81200500D03*
%TD*%
D13*
%TO.C,J2*%
X164900000Y-83550500D03*
D14*
X164900000Y-86090500D03*
X164900000Y-88630500D03*
X164900000Y-91170500D03*
X164900000Y-93710500D03*
X164900000Y-96250500D03*
X164900000Y-98790500D03*
%TD*%
D13*
%TO.C,J1*%
X132200000Y-35150500D03*
D14*
X132200000Y-37690500D03*
X132200000Y-40230500D03*
X132200000Y-45310500D03*
X132200000Y-47850500D03*
X132200000Y-50390500D03*
%TD*%
D13*
%TO.C,J2*%
X164900000Y-59350500D03*
D14*
X164900000Y-61890500D03*
X164900000Y-64430500D03*
X164900000Y-66970500D03*
X164900000Y-69510500D03*
X164900000Y-72050500D03*
X164900000Y-74590500D03*
%TD*%
D13*
%TO.C,J2*%
X164900000Y-35150500D03*
D14*
X164900000Y-37690500D03*
X164900000Y-40230500D03*
X164900000Y-42770500D03*
X164900000Y-45310500D03*
X164900000Y-47850500D03*
X164900000Y-50390500D03*
%TD*%
D13*
%TO.C,J2*%
X145600000Y-83550500D03*
D14*
X145600000Y-86090500D03*
X145600000Y-88630500D03*
X145600000Y-91170500D03*
X145600000Y-93710500D03*
X145600000Y-96250500D03*
X145600000Y-98790500D03*
%TD*%
D13*
%TO.C,J1*%
X132200000Y-59350500D03*
D14*
X132200000Y-61890500D03*
X132200000Y-64430500D03*
X132200000Y-69510500D03*
X132200000Y-72050500D03*
X132200000Y-74590500D03*
%TD*%
D13*
%TO.C,J2*%
X145600000Y-59350500D03*
D14*
X145600000Y-61890500D03*
X145600000Y-64430500D03*
X145600000Y-66970500D03*
X145600000Y-69510500D03*
X145600000Y-72050500D03*
X145600000Y-74590500D03*
%TD*%
D13*
%TO.C,J1*%
X132200000Y-83550500D03*
D14*
X132200000Y-86090500D03*
X132200000Y-88630500D03*
X132200000Y-93710500D03*
X132200000Y-96250500D03*
X132200000Y-98790500D03*
%TD*%
D13*
%TO.C,J1*%
X151500000Y-59350500D03*
D14*
X151500000Y-61890500D03*
X151500000Y-64430500D03*
X151500000Y-69510500D03*
X151500000Y-72050500D03*
X151500000Y-74590500D03*
%TD*%
D13*
%TO.C,J1*%
X151500000Y-35150500D03*
D14*
X151500000Y-37690500D03*
X151500000Y-40230500D03*
X151500000Y-45310500D03*
X151500000Y-47850500D03*
X151500000Y-50390500D03*
%TD*%
D13*
%TO.C,J1*%
X151500000Y-83550500D03*
D14*
X151500000Y-86090500D03*
X151500000Y-88630500D03*
X151500000Y-93710500D03*
X151500000Y-96250500D03*
X151500000Y-98790500D03*
%TD*%
D13*
%TO.C,J2*%
X145600000Y-35150500D03*
D14*
X145600000Y-37690500D03*
X145600000Y-40230500D03*
X145600000Y-42770500D03*
X145600000Y-45310500D03*
X145600000Y-47850500D03*
X145600000Y-50390500D03*
%TD*%
G36*
X141409191Y-90019407D02*
G01*
X141445155Y-90068907D01*
X141450000Y-90099500D01*
X141450000Y-92151500D01*
X141431093Y-92209691D01*
X141381593Y-92245655D01*
X141351000Y-92250500D01*
X138999000Y-92250500D01*
X138940809Y-92231593D01*
X138904845Y-92182093D01*
X138900000Y-92151500D01*
X138900000Y-90099500D01*
X138918907Y-90041309D01*
X138968407Y-90005345D01*
X138999000Y-90000500D01*
X141351000Y-90000500D01*
X141409191Y-90019407D01*
G37*
G36*
X141259191Y-51669407D02*
G01*
X141295155Y-51718907D01*
X141300000Y-51749500D01*
X141300000Y-53801500D01*
X141281093Y-53859691D01*
X141231593Y-53895655D01*
X141201000Y-53900500D01*
X138849000Y-53900500D01*
X138790809Y-53881593D01*
X138754845Y-53832093D01*
X138750000Y-53801500D01*
X138750000Y-51749500D01*
X138768907Y-51691309D01*
X138818407Y-51655345D01*
X138849000Y-51650500D01*
X141201000Y-51650500D01*
X141259191Y-51669407D01*
G37*
G36*
X141409191Y-65819407D02*
G01*
X141445155Y-65868907D01*
X141450000Y-65899500D01*
X141450000Y-67951500D01*
X141431093Y-68009691D01*
X141381593Y-68045655D01*
X141351000Y-68050500D01*
X138999000Y-68050500D01*
X138940809Y-68031593D01*
X138904845Y-67982093D01*
X138900000Y-67951500D01*
X138900000Y-65899500D01*
X138918907Y-65841309D01*
X138968407Y-65805345D01*
X138999000Y-65800500D01*
X141351000Y-65800500D01*
X141409191Y-65819407D01*
G37*
G36*
X160559191Y-75869407D02*
G01*
X160595155Y-75918907D01*
X160600000Y-75949500D01*
X160600000Y-78001500D01*
X160581093Y-78059691D01*
X160531593Y-78095655D01*
X160501000Y-78100500D01*
X158149000Y-78100500D01*
X158090809Y-78081593D01*
X158054845Y-78032093D01*
X158050000Y-78001500D01*
X158050000Y-75949500D01*
X158068907Y-75891309D01*
X158118407Y-75855345D01*
X158149000Y-75850500D01*
X160501000Y-75850500D01*
X160559191Y-75869407D01*
G37*
G36*
X141409191Y-41619407D02*
G01*
X141445155Y-41668907D01*
X141450000Y-41699500D01*
X141450000Y-43751500D01*
X141431093Y-43809691D01*
X141381593Y-43845655D01*
X141351000Y-43850500D01*
X138999000Y-43850500D01*
X138940809Y-43831593D01*
X138904845Y-43782093D01*
X138900000Y-43751500D01*
X138900000Y-41699500D01*
X138918907Y-41641309D01*
X138968407Y-41605345D01*
X138999000Y-41600500D01*
X141351000Y-41600500D01*
X141409191Y-41619407D01*
G37*
G36*
X160559191Y-100069407D02*
G01*
X160595155Y-100118907D01*
X160600000Y-100149500D01*
X160600000Y-102201500D01*
X160581093Y-102259691D01*
X160531593Y-102295655D01*
X160501000Y-102300500D01*
X158149000Y-102300500D01*
X158090809Y-102281593D01*
X158054845Y-102232093D01*
X158050000Y-102201500D01*
X158050000Y-100149500D01*
X158068907Y-100091309D01*
X158118407Y-100055345D01*
X158149000Y-100050500D01*
X160501000Y-100050500D01*
X160559191Y-100069407D01*
G37*
G36*
X160559191Y-51669407D02*
G01*
X160595155Y-51718907D01*
X160600000Y-51749500D01*
X160600000Y-53801500D01*
X160581093Y-53859691D01*
X160531593Y-53895655D01*
X160501000Y-53900500D01*
X158149000Y-53900500D01*
X158090809Y-53881593D01*
X158054845Y-53832093D01*
X158050000Y-53801500D01*
X158050000Y-51749500D01*
X158068907Y-51691309D01*
X158118407Y-51655345D01*
X158149000Y-51650500D01*
X160501000Y-51650500D01*
X160559191Y-51669407D01*
G37*
G36*
X160709191Y-65819407D02*
G01*
X160745155Y-65868907D01*
X160750000Y-65899500D01*
X160750000Y-67951500D01*
X160731093Y-68009691D01*
X160681593Y-68045655D01*
X160651000Y-68050500D01*
X158299000Y-68050500D01*
X158240809Y-68031593D01*
X158204845Y-67982093D01*
X158200000Y-67951500D01*
X158200000Y-65899500D01*
X158218907Y-65841309D01*
X158268407Y-65805345D01*
X158299000Y-65800500D01*
X160651000Y-65800500D01*
X160709191Y-65819407D01*
G37*
G36*
X141259191Y-75869407D02*
G01*
X141295155Y-75918907D01*
X141300000Y-75949500D01*
X141300000Y-78001500D01*
X141281093Y-78059691D01*
X141231593Y-78095655D01*
X141201000Y-78100500D01*
X138849000Y-78100500D01*
X138790809Y-78081593D01*
X138754845Y-78032093D01*
X138750000Y-78001500D01*
X138750000Y-75949500D01*
X138768907Y-75891309D01*
X138818407Y-75855345D01*
X138849000Y-75850500D01*
X141201000Y-75850500D01*
X141259191Y-75869407D01*
G37*
G36*
X160709191Y-41619407D02*
G01*
X160745155Y-41668907D01*
X160750000Y-41699500D01*
X160750000Y-43751500D01*
X160731093Y-43809691D01*
X160681593Y-43845655D01*
X160651000Y-43850500D01*
X158299000Y-43850500D01*
X158240809Y-43831593D01*
X158204845Y-43782093D01*
X158200000Y-43751500D01*
X158200000Y-41699500D01*
X158218907Y-41641309D01*
X158268407Y-41605345D01*
X158299000Y-41600500D01*
X160651000Y-41600500D01*
X160709191Y-41619407D01*
G37*
G36*
X160709191Y-90019407D02*
G01*
X160745155Y-90068907D01*
X160750000Y-90099500D01*
X160750000Y-92151500D01*
X160731093Y-92209691D01*
X160681593Y-92245655D01*
X160651000Y-92250500D01*
X158299000Y-92250500D01*
X158240809Y-92231593D01*
X158204845Y-92182093D01*
X158200000Y-92151500D01*
X158200000Y-90099500D01*
X158218907Y-90041309D01*
X158268407Y-90005345D01*
X158299000Y-90000500D01*
X160651000Y-90000500D01*
X160709191Y-90019407D01*
G37*
G36*
X141259191Y-100069407D02*
G01*
X141295155Y-100118907D01*
X141300000Y-100149500D01*
X141300000Y-102201500D01*
X141281093Y-102259691D01*
X141231593Y-102295655D01*
X141201000Y-102300500D01*
X138849000Y-102300500D01*
X138790809Y-102281593D01*
X138754845Y-102232093D01*
X138750000Y-102201500D01*
X138750000Y-100149500D01*
X138768907Y-100091309D01*
X138818407Y-100055345D01*
X138849000Y-100050500D01*
X141201000Y-100050500D01*
X141259191Y-100069407D01*
G37*
M02*
