%TF.GenerationSoftware,KiCad,Pcbnew,8.0.4*%
%TF.CreationDate,2024-09-19T15:03:18-03:00*%
%TF.ProjectId,PCBWay-Module_TA6586,50434257-6179-42d4-9d6f-64756c655f54,rev?*%
%TF.SameCoordinates,Original*%
%TF.FileFunction,Legend,Bot*%
%TF.FilePolarity,Positive*%
%FSLAX46Y46*%
G04 Gerber Fmt 4.6, Leading zero omitted, Abs format (unit mm)*
G04 Created by KiCad (PCBNEW 8.0.4) date 2024-09-19 15:03:18*
%MOMM*%
%LPD*%
G01*
G04 APERTURE LIST*
%ADD10C,0.200000*%
%ADD11C,0.150000*%
%ADD12C,0.120000*%
%ADD13C,0.350000*%
G04 APERTURE END LIST*
D10*
X148800000Y-83175000D02*
X147336678Y-84425000D01*
X147336678Y-81925000D01*
X148800000Y-83175000D01*
G36*
X148800000Y-83175000D02*
G01*
X147336678Y-84425000D01*
X147336678Y-81925000D01*
X148800000Y-83175000D01*
G37*
D11*
X140333333Y-66624819D02*
X140333333Y-67339104D01*
X140333333Y-67339104D02*
X140380952Y-67481961D01*
X140380952Y-67481961D02*
X140476190Y-67577200D01*
X140476190Y-67577200D02*
X140619047Y-67624819D01*
X140619047Y-67624819D02*
X140714285Y-67624819D01*
X139333333Y-67624819D02*
X139904761Y-67624819D01*
X139619047Y-67624819D02*
X139619047Y-66624819D01*
X139619047Y-66624819D02*
X139714285Y-66767676D01*
X139714285Y-66767676D02*
X139809523Y-66862914D01*
X139809523Y-66862914D02*
X139904761Y-66910533D01*
X153733333Y-66624819D02*
X153733333Y-67339104D01*
X153733333Y-67339104D02*
X153780952Y-67481961D01*
X153780952Y-67481961D02*
X153876190Y-67577200D01*
X153876190Y-67577200D02*
X154019047Y-67624819D01*
X154019047Y-67624819D02*
X154114285Y-67624819D01*
X153304761Y-66720057D02*
X153257142Y-66672438D01*
X153257142Y-66672438D02*
X153161904Y-66624819D01*
X153161904Y-66624819D02*
X152923809Y-66624819D01*
X152923809Y-66624819D02*
X152828571Y-66672438D01*
X152828571Y-66672438D02*
X152780952Y-66720057D01*
X152780952Y-66720057D02*
X152733333Y-66815295D01*
X152733333Y-66815295D02*
X152733333Y-66910533D01*
X152733333Y-66910533D02*
X152780952Y-67053390D01*
X152780952Y-67053390D02*
X153352380Y-67624819D01*
X153352380Y-67624819D02*
X152733333Y-67624819D01*
D12*
%TO.C,J1*%
X138670000Y-70770000D02*
X141330000Y-70770000D01*
X138670000Y-86070000D02*
X138670000Y-70770000D01*
X138670000Y-86070000D02*
X141330000Y-86070000D01*
X140000000Y-68170000D02*
X141330000Y-68170000D01*
X141330000Y-68170000D02*
X141330000Y-69500000D01*
X141330000Y-86070000D02*
X141330000Y-70770000D01*
%TO.C,C1*%
X149815000Y-73038748D02*
X149815000Y-73561252D01*
X151285000Y-73038748D02*
X151285000Y-73561252D01*
%TO.C,C2*%
X149815000Y-80788748D02*
X149815000Y-81311252D01*
X151285000Y-80788748D02*
X151285000Y-81311252D01*
%TO.C,J2*%
X152070000Y-70770000D02*
X154730000Y-70770000D01*
X152070000Y-86070000D02*
X152070000Y-70770000D01*
X152070000Y-86070000D02*
X154730000Y-86070000D01*
X153400000Y-68170000D02*
X154730000Y-68170000D01*
X154730000Y-68170000D02*
X154730000Y-69500000D01*
X154730000Y-86070000D02*
X154730000Y-70770000D01*
%TD*%
D13*
X140000000Y-69500000D03*
X140000000Y-72040000D03*
X140000000Y-74580000D03*
X140000000Y-77120000D03*
X140000000Y-79660000D03*
X140000000Y-82200000D03*
X140000000Y-84740000D03*
X153400000Y-69500000D03*
X153400000Y-72040000D03*
X153400000Y-74580000D03*
X153400000Y-77120000D03*
X153400000Y-79660000D03*
X153400000Y-82200000D03*
X153400000Y-84740000D03*
M02*
