%TF.GenerationSoftware,KiCad,Pcbnew,8.0.4*%
%TF.CreationDate,2024-09-19T15:03:18-03:00*%
%TF.ProjectId,PCBWay-Module_TA6586,50434257-6179-42d4-9d6f-64756c655f54,rev?*%
%TF.SameCoordinates,Original*%
%TF.FileFunction,Copper,L1,Top*%
%TF.FilePolarity,Positive*%
%FSLAX46Y46*%
G04 Gerber Fmt 4.6, Leading zero omitted, Abs format (unit mm)*
G04 Created by KiCad (PCBNEW 8.0.4) date 2024-09-19 15:03:18*
%MOMM*%
%LPD*%
G01*
G04 APERTURE LIST*
G04 Aperture macros list*
%AMRoundRect*
0 Rectangle with rounded corners*
0 $1 Rounding radius*
0 $2 $3 $4 $5 $6 $7 $8 $9 X,Y pos of 4 corners*
0 Add a 4 corners polygon primitive as box body*
4,1,4,$2,$3,$4,$5,$6,$7,$8,$9,$2,$3,0*
0 Add four circle primitives for the rounded corners*
1,1,$1+$1,$2,$3*
1,1,$1+$1,$4,$5*
1,1,$1+$1,$6,$7*
1,1,$1+$1,$8,$9*
0 Add four rect primitives between the rounded corners*
20,1,$1+$1,$2,$3,$4,$5,0*
20,1,$1+$1,$4,$5,$6,$7,0*
20,1,$1+$1,$6,$7,$8,$9,0*
20,1,$1+$1,$8,$9,$2,$3,0*%
G04 Aperture macros list end*
%TA.AperFunction,SMDPad,CuDef*%
%ADD10R,1.600000X1.600000*%
%TD*%
%TA.AperFunction,ComponentPad*%
%ADD11RoundRect,0.250000X0.850000X0.750000X-0.850000X0.750000X-0.850000X-0.750000X0.850000X-0.750000X0*%
%TD*%
%TA.AperFunction,ComponentPad*%
%ADD12O,2.200000X2.000000*%
%TD*%
%TA.AperFunction,ViaPad*%
%ADD13C,0.600000*%
%TD*%
%TA.AperFunction,Conductor*%
%ADD14C,0.304800*%
%TD*%
%ADD15C,0.300000*%
%ADD16C,0.350000*%
G04 APERTURE END LIST*
D10*
%TO.P,U1,1,IN1*%
%TO.N,/IN_A1*%
X142980000Y-87220000D03*
%TO.P,U1,2,IN2*%
%TO.N,/IN_A2*%
X145520000Y-87220000D03*
%TO.P,U1,3,GND*%
%TO.N,GND*%
X148060000Y-87220000D03*
%TO.P,U1,4,VM*%
%TO.N,/VM*%
X150600000Y-87220000D03*
%TO.P,U1,5,OUT1*%
%TO.N,/OUT_A1*%
X150600000Y-79600000D03*
%TO.P,U1,6,OUT1*%
X148060000Y-79600000D03*
%TO.P,U1,7,OUT2*%
%TO.N,/OUT_A2*%
X145520000Y-79600000D03*
%TO.P,U1,8,OUT2*%
X142980000Y-79600000D03*
%TD*%
%TO.P,U2,1,IN1*%
%TO.N,/IN_B1*%
X142980000Y-76900000D03*
%TO.P,U2,2,IN2*%
%TO.N,/IN_B2*%
X145520000Y-76900000D03*
%TO.P,U2,3,GND*%
%TO.N,GND*%
X148060000Y-76900000D03*
%TO.P,U2,4,VM*%
%TO.N,/VM*%
X150600000Y-76900000D03*
%TO.P,U2,5,OUT1*%
%TO.N,/OUT_B1*%
X150600000Y-69280000D03*
%TO.P,U2,6,OUT1*%
X148060000Y-69280000D03*
%TO.P,U2,7,OUT2*%
%TO.N,/OUT_B2*%
X145520000Y-69280000D03*
%TO.P,U2,8,OUT2*%
X142980000Y-69280000D03*
%TD*%
D11*
%TO.P,J1,1,Pin_1*%
%TO.N,GND*%
X140000000Y-69500000D03*
D12*
%TO.P,J1,2,Pin_2*%
%TO.N,/IN_B2*%
X140000000Y-72040000D03*
%TO.P,J1,3,Pin_3*%
%TO.N,/IN_B1*%
X140000000Y-74580000D03*
%TO.P,J1,5,Pin_5*%
%TO.N,/IN_A2*%
X140000000Y-79660000D03*
%TO.P,J1,6,Pin_6*%
%TO.N,/IN_A1*%
X140000000Y-82200000D03*
%TO.P,J1,7,Pin_7*%
%TO.N,GND*%
X140000000Y-84740000D03*
%TD*%
D11*
%TO.P,J2,1,Pin_1*%
%TO.N,GND*%
X153400000Y-69500000D03*
D12*
%TO.P,J2,2,Pin_2*%
%TO.N,/OUT_B1*%
X153400000Y-72040000D03*
%TO.P,J2,3,Pin_3*%
%TO.N,/OUT_B2*%
X153400000Y-74580000D03*
%TO.P,J2,4,Pin_4*%
%TO.N,/VM*%
X153400000Y-77120000D03*
%TO.P,J2,5,Pin_5*%
%TO.N,/OUT_A1*%
X153400000Y-79660000D03*
%TO.P,J2,6,Pin_6*%
%TO.N,/OUT_A2*%
X153400000Y-82200000D03*
%TO.P,J2,7,Pin_7*%
%TO.N,/VM*%
X153400000Y-84740000D03*
%TD*%
D13*
%TO.N,/OUT_B2*%
X145600000Y-70850000D03*
X142950000Y-69300000D03*
X144225000Y-69300000D03*
X149500000Y-74500000D03*
X146500000Y-71750000D03*
X150900000Y-74550000D03*
X145500000Y-69300000D03*
X147450000Y-72650000D03*
X148500000Y-73700000D03*
%TO.N,/OUT_B1*%
X148050000Y-69300000D03*
X150600000Y-69300000D03*
X150950000Y-71900000D03*
X149800000Y-70800000D03*
X149325000Y-69300000D03*
%TO.N,/OUT_A1*%
X148050000Y-79600000D03*
X149325000Y-79600000D03*
X150600000Y-79600000D03*
%TO.N,/OUT_A2*%
X151550000Y-82150000D03*
X145500000Y-79600000D03*
X147350000Y-82150000D03*
X149600000Y-82150000D03*
X144600000Y-82150000D03*
X142950000Y-79600000D03*
X142950000Y-81050000D03*
X145500000Y-81050000D03*
X144225000Y-79600000D03*
%TO.N,GND*%
X146100000Y-84250000D03*
X141350000Y-86650000D03*
X143150000Y-71600000D03*
X143950000Y-74450000D03*
X146050000Y-74450000D03*
X148060000Y-76900000D03*
X144950000Y-75250000D03*
X148050000Y-85550000D03*
X141950000Y-72500000D03*
X144050000Y-72500000D03*
X145000000Y-73400000D03*
X147050000Y-75250000D03*
X141350000Y-87650000D03*
X142900000Y-73400000D03*
X139350000Y-86650000D03*
X139350000Y-87650000D03*
X141650000Y-70900000D03*
X140350000Y-86650000D03*
X148060000Y-87220000D03*
X148050000Y-84250000D03*
X146100000Y-85550000D03*
X140350000Y-87650000D03*
%TO.N,/VM*%
X153750000Y-86600000D03*
X151800000Y-87900000D03*
X151850000Y-76900000D03*
X151800000Y-86600000D03*
X153750000Y-87900000D03*
X151800000Y-85550000D03*
X151800000Y-84250000D03*
X150600000Y-76900000D03*
X149850000Y-85550000D03*
X150600000Y-87220000D03*
X149850000Y-84250000D03*
%TD*%
D14*
%TO.N,/IN_B1*%
X141800000Y-76900000D02*
X142980000Y-76900000D01*
X140000000Y-75100000D02*
X141800000Y-76900000D01*
X140000000Y-74580000D02*
X140000000Y-75100000D01*
%TO.N,/IN_A2*%
X140647600Y-80847600D02*
X140660182Y-80847600D01*
X140660182Y-80847600D02*
X141452400Y-81639818D01*
X140000000Y-79660000D02*
X140000000Y-80200000D01*
X141452400Y-81639818D02*
X141452400Y-82652400D01*
X140000000Y-80200000D02*
X140647600Y-80847600D01*
X141452400Y-82652400D02*
X145520000Y-86720000D01*
%TO.N,/IN_A1*%
X140000000Y-82300000D02*
X142980000Y-85280000D01*
X142980000Y-85280000D02*
X142980000Y-87220000D01*
X140000000Y-82200000D02*
X140000000Y-82300000D01*
%TO.N,/IN_B2*%
X142747600Y-75747600D02*
X144367600Y-75747600D01*
X144367600Y-75747600D02*
X145520000Y-76900000D01*
X140000000Y-72040000D02*
X141600000Y-73640000D01*
X141600000Y-73640000D02*
X141600000Y-74600000D01*
X141600000Y-74600000D02*
X142747600Y-75747600D01*
%TD*%
%TA.AperFunction,Conductor*%
%TO.N,/VM*%
G36*
X154558691Y-83624407D02*
G01*
X154594655Y-83673907D01*
X154599500Y-83704500D01*
X154599500Y-88250500D01*
X154580593Y-88308691D01*
X154531093Y-88344655D01*
X154500500Y-88349500D01*
X149399000Y-88349500D01*
X149340809Y-88330593D01*
X149304845Y-88281093D01*
X149300000Y-88250500D01*
X149300000Y-83704500D01*
X149318907Y-83646309D01*
X149368407Y-83610345D01*
X149399000Y-83605500D01*
X154500500Y-83605500D01*
X154558691Y-83624407D01*
G37*
%TD.AperFunction*%
%TD*%
%TA.AperFunction,Conductor*%
%TO.N,/OUT_A1*%
G36*
X154558691Y-78518907D02*
G01*
X154594655Y-78568407D01*
X154599500Y-78599000D01*
X154599500Y-80801000D01*
X154580593Y-80859191D01*
X154531093Y-80895155D01*
X154500500Y-80900000D01*
X153612599Y-80900000D01*
X153604836Y-80899695D01*
X153602357Y-80899500D01*
X153602352Y-80899500D01*
X153197648Y-80899500D01*
X153197643Y-80899500D01*
X153195164Y-80899695D01*
X153187401Y-80900000D01*
X147441008Y-80900000D01*
X147382817Y-80881093D01*
X147371004Y-80871004D01*
X147028996Y-80528996D01*
X147001219Y-80474479D01*
X147000000Y-80458992D01*
X147000000Y-78741008D01*
X147018907Y-78682817D01*
X147028996Y-78671004D01*
X147171004Y-78528996D01*
X147225521Y-78501219D01*
X147241008Y-78500000D01*
X154500500Y-78500000D01*
X154558691Y-78518907D01*
G37*
%TD.AperFunction*%
%TD*%
%TA.AperFunction,Conductor*%
%TO.N,/OUT_B1*%
G36*
X151559191Y-68418907D02*
G01*
X151595155Y-68468407D01*
X151600000Y-68499000D01*
X151600000Y-70500000D01*
X151900000Y-70800000D01*
X152496809Y-70800000D01*
X152503933Y-70800426D01*
X152503940Y-70800323D01*
X152506895Y-70800499D01*
X152506898Y-70800500D01*
X152506901Y-70800500D01*
X154293099Y-70800500D01*
X154293102Y-70800500D01*
X154293104Y-70800499D01*
X154296060Y-70800323D01*
X154296066Y-70800426D01*
X154303191Y-70800000D01*
X154500500Y-70800000D01*
X154558691Y-70818907D01*
X154594655Y-70868407D01*
X154599500Y-70899000D01*
X154599500Y-73045500D01*
X154580593Y-73103691D01*
X154531093Y-73139655D01*
X154500500Y-73144500D01*
X150235508Y-73144500D01*
X150177317Y-73125593D01*
X150165504Y-73115504D01*
X147078996Y-70028996D01*
X147051219Y-69974479D01*
X147050000Y-69958992D01*
X147050000Y-68499000D01*
X147068907Y-68440809D01*
X147118407Y-68404845D01*
X147149000Y-68400000D01*
X151501000Y-68400000D01*
X151559191Y-68418907D01*
G37*
%TD.AperFunction*%
%TD*%
%TA.AperFunction,Conductor*%
%TO.N,/OUT_B2*%
G36*
X146659191Y-68418907D02*
G01*
X146695155Y-68468407D01*
X146700000Y-68499000D01*
X146700000Y-70100000D01*
X150050000Y-73450000D01*
X154500500Y-73450000D01*
X154558691Y-73468907D01*
X154594655Y-73518407D01*
X154599500Y-73549000D01*
X154599500Y-75501000D01*
X154580593Y-75559191D01*
X154531093Y-75595155D01*
X154500500Y-75600000D01*
X148741008Y-75600000D01*
X148682817Y-75581093D01*
X148671004Y-75571004D01*
X146550000Y-73450000D01*
X143400000Y-70300000D01*
X143399999Y-70300000D01*
X142391008Y-70300000D01*
X142332817Y-70281093D01*
X142321004Y-70271004D01*
X142178996Y-70128996D01*
X142151219Y-70074479D01*
X142150000Y-70058992D01*
X142150000Y-68499000D01*
X142168907Y-68440809D01*
X142218407Y-68404845D01*
X142249000Y-68400000D01*
X146601000Y-68400000D01*
X146659191Y-68418907D01*
G37*
%TD.AperFunction*%
%TD*%
%TA.AperFunction,Conductor*%
%TO.N,/VM*%
G36*
X154558691Y-75924407D02*
G01*
X154594655Y-75973907D01*
X154599500Y-76004500D01*
X154599500Y-78095500D01*
X154580593Y-78153691D01*
X154531093Y-78189655D01*
X154500500Y-78194500D01*
X149699000Y-78194500D01*
X149640809Y-78175593D01*
X149604845Y-78126093D01*
X149600000Y-78095500D01*
X149600000Y-76004500D01*
X149618907Y-75946309D01*
X149668407Y-75910345D01*
X149699000Y-75905500D01*
X154500500Y-75905500D01*
X154558691Y-75924407D01*
G37*
%TD.AperFunction*%
%TD*%
%TA.AperFunction,Conductor*%
%TO.N,/OUT_A2*%
G36*
X146695734Y-78468907D02*
G01*
X146731698Y-78518407D01*
X146731698Y-78579593D01*
X146728474Y-78588148D01*
X146728357Y-78588419D01*
X146709451Y-78646603D01*
X146694500Y-78741004D01*
X146694500Y-80458981D01*
X146695442Y-80482969D01*
X146696664Y-80498494D01*
X146697294Y-80505472D01*
X146729015Y-80613170D01*
X146756792Y-80667687D01*
X146782662Y-80703294D01*
X146812970Y-80745011D01*
X146812972Y-80745013D01*
X146812975Y-80745017D01*
X147154983Y-81087025D01*
X147172601Y-81103311D01*
X147184414Y-81113400D01*
X147189831Y-81117919D01*
X147189837Y-81117922D01*
X147189842Y-81117926D01*
X147288409Y-81171639D01*
X147288411Y-81171640D01*
X147346604Y-81190548D01*
X147346601Y-81190548D01*
X147441005Y-81205500D01*
X147441008Y-81205500D01*
X153187396Y-81205500D01*
X153187401Y-81205500D01*
X153199395Y-81205264D01*
X153204180Y-81205076D01*
X153208066Y-81205000D01*
X153591934Y-81205000D01*
X153595820Y-81205076D01*
X153600605Y-81205264D01*
X153612599Y-81205500D01*
X153612604Y-81205500D01*
X154500500Y-81205500D01*
X154558691Y-81224407D01*
X154594655Y-81273907D01*
X154599500Y-81304500D01*
X154599500Y-83201000D01*
X154580593Y-83259191D01*
X154531093Y-83295155D01*
X154500500Y-83300000D01*
X143991008Y-83300000D01*
X143932817Y-83281093D01*
X143921004Y-83271004D01*
X142178996Y-81528996D01*
X142151219Y-81474479D01*
X142150000Y-81458992D01*
X142150000Y-78549000D01*
X142168907Y-78490809D01*
X142218407Y-78454845D01*
X142249000Y-78450000D01*
X146637543Y-78450000D01*
X146695734Y-78468907D01*
G37*
%TD.AperFunction*%
%TD*%
%TA.AperFunction,Conductor*%
%TO.N,GND*%
G36*
X138879591Y-83008070D02*
G01*
X138879593Y-83008073D01*
X138908029Y-83047213D01*
X138908031Y-83047215D01*
X138908034Y-83047219D01*
X139052781Y-83191966D01*
X139052784Y-83191968D01*
X139052786Y-83191970D01*
X139218386Y-83312285D01*
X139218390Y-83312287D01*
X139400781Y-83405220D01*
X139595466Y-83468477D01*
X139595467Y-83468477D01*
X139595470Y-83468478D01*
X139797645Y-83500500D01*
X139797648Y-83500500D01*
X140202355Y-83500500D01*
X140404530Y-83468478D01*
X140404530Y-83468477D01*
X140404534Y-83468477D01*
X140440006Y-83456950D01*
X140501188Y-83456948D01*
X140540603Y-83481100D01*
X142498104Y-85438601D01*
X142525881Y-85493118D01*
X142527100Y-85508605D01*
X142527100Y-86020500D01*
X142508193Y-86078691D01*
X142458693Y-86114655D01*
X142428100Y-86119500D01*
X142135139Y-86119500D01*
X142135136Y-86119501D01*
X142110009Y-86122414D01*
X142007235Y-86167794D01*
X141927794Y-86247235D01*
X141882414Y-86350011D01*
X141879500Y-86375130D01*
X141879500Y-88064860D01*
X141879501Y-88064863D01*
X141882414Y-88089990D01*
X141905104Y-88141378D01*
X141927794Y-88192765D01*
X141927795Y-88192766D01*
X141929019Y-88194553D01*
X141929890Y-88197511D01*
X141931500Y-88201157D01*
X141931025Y-88201366D01*
X141946305Y-88253246D01*
X141925791Y-88310890D01*
X141875312Y-88345467D01*
X141847343Y-88349500D01*
X138799500Y-88349500D01*
X138741309Y-88330593D01*
X138705345Y-88281093D01*
X138700500Y-88250500D01*
X138700500Y-83066263D01*
X138719407Y-83008072D01*
X138768907Y-82972108D01*
X138830093Y-82972108D01*
X138879591Y-83008070D01*
G37*
%TD.AperFunction*%
%TA.AperFunction,Conductor*%
G36*
X142074301Y-81856343D02*
G01*
X143704983Y-83487025D01*
X143722601Y-83503311D01*
X143734414Y-83513400D01*
X143739831Y-83517919D01*
X143739837Y-83517922D01*
X143739842Y-83517926D01*
X143838409Y-83571639D01*
X143838411Y-83571640D01*
X143896604Y-83590548D01*
X143896601Y-83590548D01*
X143991005Y-83605500D01*
X143991008Y-83605500D01*
X148895500Y-83605500D01*
X148953691Y-83624407D01*
X148989655Y-83673907D01*
X148994500Y-83704500D01*
X148994500Y-88250500D01*
X148975593Y-88308691D01*
X148926093Y-88344655D01*
X148895500Y-88349500D01*
X146652657Y-88349500D01*
X146594466Y-88330593D01*
X146558502Y-88281093D01*
X146558502Y-88219907D01*
X146570981Y-88194553D01*
X146572201Y-88192769D01*
X146572206Y-88192765D01*
X146617585Y-88089991D01*
X146620500Y-88064865D01*
X146620499Y-86375136D01*
X146617585Y-86350009D01*
X146572206Y-86247235D01*
X146492765Y-86167794D01*
X146389991Y-86122415D01*
X146389990Y-86122414D01*
X146389988Y-86122414D01*
X146364869Y-86119500D01*
X146364865Y-86119500D01*
X145601005Y-86119500D01*
X145542814Y-86100593D01*
X145531001Y-86090504D01*
X141934296Y-82493799D01*
X141906519Y-82439282D01*
X141905300Y-82423795D01*
X141905300Y-81926349D01*
X141924207Y-81868158D01*
X141973707Y-81832194D01*
X142034893Y-81832194D01*
X142074301Y-81856343D01*
G37*
%TD.AperFunction*%
%TA.AperFunction,Conductor*%
G36*
X154558691Y-67569407D02*
G01*
X154594655Y-67618907D01*
X154599500Y-67649500D01*
X154599500Y-70395500D01*
X154580593Y-70453691D01*
X154531093Y-70489655D01*
X154500500Y-70494500D01*
X154303191Y-70494500D01*
X154288127Y-70494950D01*
X154287935Y-70494956D01*
X154284978Y-70495000D01*
X152515023Y-70495000D01*
X152512067Y-70494956D01*
X152496809Y-70494500D01*
X152496804Y-70494500D01*
X152067550Y-70494500D01*
X152009359Y-70475593D01*
X151997546Y-70465504D01*
X151934496Y-70402454D01*
X151906719Y-70347937D01*
X151905500Y-70332450D01*
X151905500Y-68499006D01*
X151905500Y-68499000D01*
X151901739Y-68451214D01*
X151896894Y-68420621D01*
X151890487Y-68390246D01*
X151842309Y-68288838D01*
X151842304Y-68288831D01*
X151806348Y-68239342D01*
X151806347Y-68239341D01*
X151806345Y-68239338D01*
X151752177Y-68182081D01*
X151752176Y-68182080D01*
X151752175Y-68182079D01*
X151653598Y-68128360D01*
X151653596Y-68128359D01*
X151595403Y-68109451D01*
X151595406Y-68109451D01*
X151501003Y-68094500D01*
X151501000Y-68094500D01*
X147149000Y-68094500D01*
X147101214Y-68098261D01*
X147084800Y-68100860D01*
X147070619Y-68103106D01*
X147070614Y-68103106D01*
X147040247Y-68109512D01*
X147040242Y-68109514D01*
X146938841Y-68157689D01*
X146938829Y-68157696D01*
X146933130Y-68161837D01*
X146874939Y-68180742D01*
X146827571Y-68168672D01*
X146797013Y-68152020D01*
X146753595Y-68128359D01*
X146695403Y-68109451D01*
X146695406Y-68109451D01*
X146601003Y-68094500D01*
X146601000Y-68094500D01*
X142249000Y-68094500D01*
X142201214Y-68098261D01*
X142184800Y-68100860D01*
X142170619Y-68103106D01*
X142170614Y-68103106D01*
X142140247Y-68109512D01*
X142140242Y-68109514D01*
X142038841Y-68157689D01*
X142038831Y-68157695D01*
X141989342Y-68193651D01*
X141932079Y-68247824D01*
X141878360Y-68346401D01*
X141878359Y-68346403D01*
X141859451Y-68404595D01*
X141844500Y-68498996D01*
X141844500Y-70058981D01*
X141845442Y-70082969D01*
X141846664Y-70098494D01*
X141847294Y-70105472D01*
X141879015Y-70213170D01*
X141906792Y-70267687D01*
X141932662Y-70303294D01*
X141962970Y-70345011D01*
X141962972Y-70345013D01*
X141962975Y-70345017D01*
X142104983Y-70487025D01*
X142122601Y-70503311D01*
X142134414Y-70513400D01*
X142139831Y-70517919D01*
X142139837Y-70517922D01*
X142139842Y-70517926D01*
X142238409Y-70571639D01*
X142238411Y-70571640D01*
X142296604Y-70590548D01*
X142296601Y-70590548D01*
X142391005Y-70605500D01*
X142391008Y-70605500D01*
X143232450Y-70605500D01*
X143290641Y-70624407D01*
X143302454Y-70634496D01*
X148454983Y-75787025D01*
X148472601Y-75803311D01*
X148484414Y-75813400D01*
X148489831Y-75817919D01*
X148489837Y-75817922D01*
X148489842Y-75817926D01*
X148588409Y-75871639D01*
X148588411Y-75871640D01*
X148646604Y-75890548D01*
X148646601Y-75890548D01*
X148741005Y-75905500D01*
X148741008Y-75905500D01*
X149195500Y-75905500D01*
X149253691Y-75924407D01*
X149289655Y-75973907D01*
X149294500Y-76004500D01*
X149294500Y-78095500D01*
X149275593Y-78153691D01*
X149226093Y-78189655D01*
X149195500Y-78194500D01*
X147241008Y-78194500D01*
X147226025Y-78195088D01*
X147217030Y-78195442D01*
X147201505Y-78196664D01*
X147194527Y-78197294D01*
X147086829Y-78229015D01*
X147032310Y-78256793D01*
X147031405Y-78257451D01*
X147031047Y-78257567D01*
X147028991Y-78258827D01*
X147028688Y-78258333D01*
X146973211Y-78276350D01*
X146915023Y-78257435D01*
X146901309Y-78245387D01*
X146888721Y-78232082D01*
X146888718Y-78232079D01*
X146790141Y-78178360D01*
X146790139Y-78178359D01*
X146731946Y-78159451D01*
X146731949Y-78159451D01*
X146637546Y-78144500D01*
X146637543Y-78144500D01*
X146526571Y-78144500D01*
X146468380Y-78125593D01*
X146432416Y-78076093D01*
X146432416Y-78014907D01*
X146468380Y-77965407D01*
X146486578Y-77954937D01*
X146492765Y-77952206D01*
X146572206Y-77872765D01*
X146617585Y-77769991D01*
X146620500Y-77744865D01*
X146620499Y-76055136D01*
X146617585Y-76030009D01*
X146572206Y-75927235D01*
X146492765Y-75847794D01*
X146389991Y-75802415D01*
X146389990Y-75802414D01*
X146389988Y-75802414D01*
X146364869Y-75799500D01*
X146364865Y-75799500D01*
X145101005Y-75799500D01*
X145042814Y-75780593D01*
X145031002Y-75770504D01*
X144645687Y-75385190D01*
X144645682Y-75385186D01*
X144542416Y-75325565D01*
X144542418Y-75325565D01*
X144497724Y-75313589D01*
X144427225Y-75294700D01*
X144427223Y-75294700D01*
X142976206Y-75294700D01*
X142918015Y-75275793D01*
X142906202Y-75265704D01*
X142081896Y-74441398D01*
X142054119Y-74386881D01*
X142052900Y-74371394D01*
X142052900Y-73580376D01*
X142052900Y-73580375D01*
X142022036Y-73465187D01*
X142022034Y-73465184D01*
X142022034Y-73465182D01*
X141962413Y-73361917D01*
X141962409Y-73361912D01*
X141878087Y-73277589D01*
X141878087Y-73277590D01*
X141300215Y-72699718D01*
X141272438Y-72645201D01*
X141282008Y-72584773D01*
X141305220Y-72539219D01*
X141368477Y-72344534D01*
X141400500Y-72142352D01*
X141400500Y-71937648D01*
X141400500Y-71937644D01*
X141368478Y-71735470D01*
X141368477Y-71735466D01*
X141305220Y-71540781D01*
X141212287Y-71358390D01*
X141212285Y-71358386D01*
X141091970Y-71192786D01*
X141091967Y-71192783D01*
X141091966Y-71192781D01*
X140947219Y-71048034D01*
X140947215Y-71048031D01*
X140947213Y-71048029D01*
X140781613Y-70927714D01*
X140781609Y-70927712D01*
X140599219Y-70834780D01*
X140404529Y-70771521D01*
X140202355Y-70739500D01*
X140202352Y-70739500D01*
X139797648Y-70739500D01*
X139797645Y-70739500D01*
X139595470Y-70771521D01*
X139400780Y-70834780D01*
X139218390Y-70927712D01*
X139218386Y-70927714D01*
X139052786Y-71048029D01*
X138908032Y-71192783D01*
X138879593Y-71231927D01*
X138830093Y-71267891D01*
X138768907Y-71267891D01*
X138719407Y-71231927D01*
X138700500Y-71173736D01*
X138700500Y-67649500D01*
X138719407Y-67591309D01*
X138768907Y-67555345D01*
X138799500Y-67550500D01*
X154500500Y-67550500D01*
X154558691Y-67569407D01*
G37*
%TD.AperFunction*%
%TD*%
D15*
X145600000Y-70850000D03*
X142950000Y-69300000D03*
X144225000Y-69300000D03*
X149500000Y-74500000D03*
X146500000Y-71750000D03*
X150900000Y-74550000D03*
X145500000Y-69300000D03*
X147450000Y-72650000D03*
X148500000Y-73700000D03*
X148050000Y-69300000D03*
X150600000Y-69300000D03*
X150950000Y-71900000D03*
X149800000Y-70800000D03*
X149325000Y-69300000D03*
X148050000Y-79600000D03*
X149325000Y-79600000D03*
X150600000Y-79600000D03*
X151550000Y-82150000D03*
X145500000Y-79600000D03*
X147350000Y-82150000D03*
X149600000Y-82150000D03*
X144600000Y-82150000D03*
X142950000Y-79600000D03*
X142950000Y-81050000D03*
X145500000Y-81050000D03*
X144225000Y-79600000D03*
X146100000Y-84250000D03*
X141350000Y-86650000D03*
X143150000Y-71600000D03*
X143950000Y-74450000D03*
X146050000Y-74450000D03*
X148060000Y-76900000D03*
X144950000Y-75250000D03*
X148050000Y-85550000D03*
X141950000Y-72500000D03*
X144050000Y-72500000D03*
X145000000Y-73400000D03*
X147050000Y-75250000D03*
X141350000Y-87650000D03*
X142900000Y-73400000D03*
X139350000Y-86650000D03*
X139350000Y-87650000D03*
X141650000Y-70900000D03*
X140350000Y-86650000D03*
X148060000Y-87220000D03*
X148050000Y-84250000D03*
X146100000Y-85550000D03*
X140350000Y-87650000D03*
X153750000Y-86600000D03*
X151800000Y-87900000D03*
X151850000Y-76900000D03*
X151800000Y-86600000D03*
X153750000Y-87900000D03*
X151800000Y-85550000D03*
X151800000Y-84250000D03*
X150600000Y-76900000D03*
X149850000Y-85550000D03*
X150600000Y-87220000D03*
X149850000Y-84250000D03*
D16*
X140000000Y-69500000D03*
X140000000Y-72040000D03*
X140000000Y-74580000D03*
X140000000Y-77120000D03*
X140000000Y-79660000D03*
X140000000Y-82200000D03*
X140000000Y-84740000D03*
X153400000Y-69500000D03*
X153400000Y-72040000D03*
X153400000Y-74580000D03*
X153400000Y-77120000D03*
X153400000Y-79660000D03*
X153400000Y-82200000D03*
X153400000Y-84740000D03*
M02*
