%TF.GenerationSoftware,KiCad,Pcbnew,8.0.4*%
%TF.CreationDate,2024-09-19T15:03:18-03:00*%
%TF.ProjectId,PCBWay-Module_TA6586,50434257-6179-42d4-9d6f-64756c655f54,rev?*%
%TF.SameCoordinates,Original*%
%TF.FileFunction,Legend,Top*%
%TF.FilePolarity,Positive*%
%FSLAX46Y46*%
G04 Gerber Fmt 4.6, Leading zero omitted, Abs format (unit mm)*
G04 Created by KiCad (PCBNEW 8.0.4) date 2024-09-19 15:03:18*
%MOMM*%
%LPD*%
G01*
G04 APERTURE LIST*
%ADD10C,0.120000*%
%ADD11C,0.350000*%
G04 APERTURE END LIST*
D10*
%TO.C,U1*%
X141590000Y-78270000D02*
X141590000Y-88550000D01*
X141590000Y-88550000D02*
X151990000Y-88550000D01*
X141650000Y-80760000D02*
X141650000Y-82410000D01*
X141650000Y-84410000D02*
X141650000Y-86060000D01*
X141650000Y-86060000D02*
X151930000Y-86060000D01*
X151930000Y-80760000D02*
X141650000Y-80760000D01*
X151930000Y-86060000D02*
X151930000Y-80760000D01*
X151990000Y-78270000D02*
X141590000Y-78270000D01*
X151990000Y-88550000D02*
X151990000Y-78270000D01*
X141650000Y-82410000D02*
G75*
G02*
X141650000Y-84410000I0J-1000000D01*
G01*
%TO.C,U2*%
X141590000Y-67950000D02*
X141590000Y-78230000D01*
X141590000Y-78230000D02*
X151990000Y-78230000D01*
X141650000Y-70440000D02*
X141650000Y-72090000D01*
X141650000Y-74090000D02*
X141650000Y-75740000D01*
X141650000Y-75740000D02*
X151930000Y-75740000D01*
X151930000Y-70440000D02*
X141650000Y-70440000D01*
X151930000Y-75740000D02*
X151930000Y-70440000D01*
X151990000Y-67950000D02*
X141590000Y-67950000D01*
X151990000Y-78230000D02*
X151990000Y-67950000D01*
X141650000Y-72090000D02*
G75*
G02*
X141650000Y-74090000I0J-1000000D01*
G01*
%TD*%
D11*
X140000000Y-69500000D03*
X140000000Y-72040000D03*
X140000000Y-74580000D03*
X140000000Y-77120000D03*
X140000000Y-79660000D03*
X140000000Y-82200000D03*
X140000000Y-84740000D03*
X153400000Y-69500000D03*
X153400000Y-72040000D03*
X153400000Y-74580000D03*
X153400000Y-77120000D03*
X153400000Y-79660000D03*
X153400000Y-82200000D03*
X153400000Y-84740000D03*
M02*
