%TF.GenerationSoftware,KiCad,Pcbnew,8.0.4*%
%TF.CreationDate,2024-09-19T15:03:18-03:00*%
%TF.ProjectId,PCBWay-Module_TA6586,50434257-6179-42d4-9d6f-64756c655f54,rev?*%
%TF.SameCoordinates,Original*%
%TF.FileFunction,Soldermask,Bot*%
%TF.FilePolarity,Negative*%
%FSLAX46Y46*%
G04 Gerber Fmt 4.6, Leading zero omitted, Abs format (unit mm)*
G04 Created by KiCad (PCBNEW 8.0.4) date 2024-09-19 15:03:18*
%MOMM*%
%LPD*%
G01*
G04 APERTURE LIST*
G04 Aperture macros list*
%AMRoundRect*
0 Rectangle with rounded corners*
0 $1 Rounding radius*
0 $2 $3 $4 $5 $6 $7 $8 $9 X,Y pos of 4 corners*
0 Add a 4 corners polygon primitive as box body*
4,1,4,$2,$3,$4,$5,$6,$7,$8,$9,$2,$3,0*
0 Add four circle primitives for the rounded corners*
1,1,$1+$1,$2,$3*
1,1,$1+$1,$4,$5*
1,1,$1+$1,$6,$7*
1,1,$1+$1,$8,$9*
0 Add four rect primitives between the rounded corners*
20,1,$1+$1,$2,$3,$4,$5,0*
20,1,$1+$1,$4,$5,$6,$7,0*
20,1,$1+$1,$6,$7,$8,$9,0*
20,1,$1+$1,$8,$9,$2,$3,0*%
G04 Aperture macros list end*
%ADD10RoundRect,0.250000X0.850000X0.750000X-0.850000X0.750000X-0.850000X-0.750000X0.850000X-0.750000X0*%
%ADD11O,2.200000X2.000000*%
%ADD12RoundRect,0.250000X0.475000X-0.250000X0.475000X0.250000X-0.475000X0.250000X-0.475000X-0.250000X0*%
G04 APERTURE END LIST*
D10*
%TO.C,J1*%
X140000000Y-69500000D03*
D11*
X140000000Y-72040000D03*
X140000000Y-74580000D03*
X140000000Y-84740000D03*
%TD*%
D12*
%TO.C,C1*%
X150550000Y-74250000D03*
X150550000Y-72350000D03*
%TD*%
%TO.C,C2*%
X150550000Y-82000000D03*
X150550000Y-80100000D03*
%TD*%
D10*
%TO.C,J2*%
X153400000Y-69500000D03*
D11*
X153400000Y-72040000D03*
X153400000Y-74580000D03*
X153400000Y-77120000D03*
X153400000Y-79660000D03*
X153400000Y-82200000D03*
X153400000Y-84740000D03*
%TD*%
G36*
X152093039Y-83619685D02*
G01*
X152138794Y-83672489D01*
X152150000Y-83724000D01*
X152150000Y-88276000D01*
X152130315Y-88343039D01*
X152077511Y-88388794D01*
X152026000Y-88400000D01*
X149424000Y-88400000D01*
X149356961Y-88380315D01*
X149311206Y-88327511D01*
X149300000Y-88276000D01*
X149300000Y-83724000D01*
X149319685Y-83656961D01*
X149372489Y-83611206D01*
X149424000Y-83600000D01*
X152026000Y-83600000D01*
X152093039Y-83619685D01*
G37*
G36*
X145243039Y-83619685D02*
G01*
X145288794Y-83672489D01*
X145300000Y-83724000D01*
X145300000Y-88276000D01*
X145280315Y-88343039D01*
X145227511Y-88388794D01*
X145176000Y-88400000D01*
X142574000Y-88400000D01*
X142506961Y-88380315D01*
X142461206Y-88327511D01*
X142450000Y-88276000D01*
X142450000Y-83724000D01*
X142469685Y-83656961D01*
X142522489Y-83611206D01*
X142574000Y-83600000D01*
X145176000Y-83600000D01*
X145243039Y-83619685D01*
G37*
M02*
