%TF.GenerationSoftware,KiCad,Pcbnew,8.0.4*%
%TF.CreationDate,2024-09-08T19:35:36-03:00*%
%TF.ProjectId,PCBWay-Module_TA6586,50434257-6179-42d4-9d6f-64756c655f54,rev?*%
%TF.SameCoordinates,Original*%
%TF.FileFunction,Soldermask,Bot*%
%TF.FilePolarity,Negative*%
%FSLAX46Y46*%
G04 Gerber Fmt 4.6, Leading zero omitted, Abs format (unit mm)*
G04 Created by KiCad (PCBNEW 8.0.4) date 2024-09-08 19:35:36*
%MOMM*%
%LPD*%
G01*
G04 APERTURE LIST*
G04 APERTURE END LIST*
G36*
X140198017Y-83744815D02*
G01*
X140390285Y-83783060D01*
X140571397Y-83858079D01*
X140734393Y-83966990D01*
X140873010Y-84105607D01*
X140981921Y-84268603D01*
X141056940Y-84449715D01*
X141095185Y-84641983D01*
X141095185Y-84838017D01*
X141056940Y-85030285D01*
X140981921Y-85211397D01*
X140873010Y-85374393D01*
X140734393Y-85513010D01*
X140571397Y-85621921D01*
X140390285Y-85696940D01*
X140198017Y-85735185D01*
X140100000Y-85740000D01*
X140098749Y-85740000D01*
X139901251Y-85740000D01*
X139900000Y-85740000D01*
X139801983Y-85735185D01*
X139609715Y-85696940D01*
X139428603Y-85621921D01*
X139265607Y-85513010D01*
X139126990Y-85374393D01*
X139018079Y-85211397D01*
X138943060Y-85030285D01*
X138904815Y-84838017D01*
X138904815Y-84641983D01*
X138943060Y-84449715D01*
X139018079Y-84268603D01*
X139126990Y-84105607D01*
X139265607Y-83966990D01*
X139428603Y-83858079D01*
X139609715Y-83783060D01*
X139801983Y-83744815D01*
X139900000Y-83740000D01*
X140100000Y-83740000D01*
X140198017Y-83744815D01*
G37*
G36*
X153598017Y-83744815D02*
G01*
X153790285Y-83783060D01*
X153971397Y-83858079D01*
X154134393Y-83966990D01*
X154273010Y-84105607D01*
X154381921Y-84268603D01*
X154456940Y-84449715D01*
X154495185Y-84641983D01*
X154495185Y-84838017D01*
X154456940Y-85030285D01*
X154381921Y-85211397D01*
X154273010Y-85374393D01*
X154134393Y-85513010D01*
X153971397Y-85621921D01*
X153790285Y-85696940D01*
X153598017Y-85735185D01*
X153500000Y-85740000D01*
X153498749Y-85740000D01*
X153301251Y-85740000D01*
X153300000Y-85740000D01*
X153201983Y-85735185D01*
X153009715Y-85696940D01*
X152828603Y-85621921D01*
X152665607Y-85513010D01*
X152526990Y-85374393D01*
X152418079Y-85211397D01*
X152343060Y-85030285D01*
X152304815Y-84838017D01*
X152304815Y-84641983D01*
X152343060Y-84449715D01*
X152418079Y-84268603D01*
X152526990Y-84105607D01*
X152665607Y-83966990D01*
X152828603Y-83858079D01*
X153009715Y-83783060D01*
X153201983Y-83744815D01*
X153300000Y-83740000D01*
X153500000Y-83740000D01*
X153598017Y-83744815D01*
G37*
G36*
X153598017Y-81204815D02*
G01*
X153790285Y-81243060D01*
X153971397Y-81318079D01*
X154134393Y-81426990D01*
X154273010Y-81565607D01*
X154381921Y-81728603D01*
X154456940Y-81909715D01*
X154495185Y-82101983D01*
X154495185Y-82298017D01*
X154456940Y-82490285D01*
X154381921Y-82671397D01*
X154273010Y-82834393D01*
X154134393Y-82973010D01*
X153971397Y-83081921D01*
X153790285Y-83156940D01*
X153598017Y-83195185D01*
X153500000Y-83200000D01*
X153498749Y-83200000D01*
X153301251Y-83200000D01*
X153300000Y-83200000D01*
X153201983Y-83195185D01*
X153009715Y-83156940D01*
X152828603Y-83081921D01*
X152665607Y-82973010D01*
X152526990Y-82834393D01*
X152418079Y-82671397D01*
X152343060Y-82490285D01*
X152304815Y-82298017D01*
X152304815Y-82101983D01*
X152343060Y-81909715D01*
X152418079Y-81728603D01*
X152526990Y-81565607D01*
X152665607Y-81426990D01*
X152828603Y-81318079D01*
X153009715Y-81243060D01*
X153201983Y-81204815D01*
X153300000Y-81200000D01*
X153500000Y-81200000D01*
X153598017Y-81204815D01*
G37*
G36*
X153598017Y-78664815D02*
G01*
X153790285Y-78703060D01*
X153971397Y-78778079D01*
X154134393Y-78886990D01*
X154273010Y-79025607D01*
X154381921Y-79188603D01*
X154456940Y-79369715D01*
X154495185Y-79561983D01*
X154495185Y-79758017D01*
X154456940Y-79950285D01*
X154381921Y-80131397D01*
X154273010Y-80294393D01*
X154134393Y-80433010D01*
X153971397Y-80541921D01*
X153790285Y-80616940D01*
X153598017Y-80655185D01*
X153500000Y-80660000D01*
X153498749Y-80660000D01*
X153301251Y-80660000D01*
X153300000Y-80660000D01*
X153201983Y-80655185D01*
X153009715Y-80616940D01*
X152828603Y-80541921D01*
X152665607Y-80433010D01*
X152526990Y-80294393D01*
X152418079Y-80131397D01*
X152343060Y-79950285D01*
X152304815Y-79758017D01*
X152304815Y-79561983D01*
X152343060Y-79369715D01*
X152418079Y-79188603D01*
X152526990Y-79025607D01*
X152665607Y-78886990D01*
X152828603Y-78778079D01*
X153009715Y-78703060D01*
X153201983Y-78664815D01*
X153300000Y-78660000D01*
X153500000Y-78660000D01*
X153598017Y-78664815D01*
G37*
G36*
X153598017Y-76124815D02*
G01*
X153790285Y-76163060D01*
X153971397Y-76238079D01*
X154134393Y-76346990D01*
X154273010Y-76485607D01*
X154381921Y-76648603D01*
X154456940Y-76829715D01*
X154495185Y-77021983D01*
X154495185Y-77218017D01*
X154456940Y-77410285D01*
X154381921Y-77591397D01*
X154273010Y-77754393D01*
X154134393Y-77893010D01*
X153971397Y-78001921D01*
X153790285Y-78076940D01*
X153598017Y-78115185D01*
X153500000Y-78120000D01*
X153498749Y-78120000D01*
X153301251Y-78120000D01*
X153300000Y-78120000D01*
X153201983Y-78115185D01*
X153009715Y-78076940D01*
X152828603Y-78001921D01*
X152665607Y-77893010D01*
X152526990Y-77754393D01*
X152418079Y-77591397D01*
X152343060Y-77410285D01*
X152304815Y-77218017D01*
X152304815Y-77021983D01*
X152343060Y-76829715D01*
X152418079Y-76648603D01*
X152526990Y-76485607D01*
X152665607Y-76346990D01*
X152828603Y-76238079D01*
X153009715Y-76163060D01*
X153201983Y-76124815D01*
X153300000Y-76120000D01*
X153500000Y-76120000D01*
X153598017Y-76124815D01*
G37*
G36*
X140198017Y-73584815D02*
G01*
X140390285Y-73623060D01*
X140571397Y-73698079D01*
X140734393Y-73806990D01*
X140873010Y-73945607D01*
X140981921Y-74108603D01*
X141056940Y-74289715D01*
X141095185Y-74481983D01*
X141095185Y-74678017D01*
X141056940Y-74870285D01*
X140981921Y-75051397D01*
X140873010Y-75214393D01*
X140734393Y-75353010D01*
X140571397Y-75461921D01*
X140390285Y-75536940D01*
X140198017Y-75575185D01*
X140100000Y-75580000D01*
X140098749Y-75580000D01*
X139901251Y-75580000D01*
X139900000Y-75580000D01*
X139801983Y-75575185D01*
X139609715Y-75536940D01*
X139428603Y-75461921D01*
X139265607Y-75353010D01*
X139126990Y-75214393D01*
X139018079Y-75051397D01*
X138943060Y-74870285D01*
X138904815Y-74678017D01*
X138904815Y-74481983D01*
X138943060Y-74289715D01*
X139018079Y-74108603D01*
X139126990Y-73945607D01*
X139265607Y-73806990D01*
X139428603Y-73698079D01*
X139609715Y-73623060D01*
X139801983Y-73584815D01*
X139900000Y-73580000D01*
X140100000Y-73580000D01*
X140198017Y-73584815D01*
G37*
G36*
X153598017Y-73584815D02*
G01*
X153790285Y-73623060D01*
X153971397Y-73698079D01*
X154134393Y-73806990D01*
X154273010Y-73945607D01*
X154381921Y-74108603D01*
X154456940Y-74289715D01*
X154495185Y-74481983D01*
X154495185Y-74678017D01*
X154456940Y-74870285D01*
X154381921Y-75051397D01*
X154273010Y-75214393D01*
X154134393Y-75353010D01*
X153971397Y-75461921D01*
X153790285Y-75536940D01*
X153598017Y-75575185D01*
X153500000Y-75580000D01*
X153498749Y-75580000D01*
X153301251Y-75580000D01*
X153300000Y-75580000D01*
X153201983Y-75575185D01*
X153009715Y-75536940D01*
X152828603Y-75461921D01*
X152665607Y-75353010D01*
X152526990Y-75214393D01*
X152418079Y-75051397D01*
X152343060Y-74870285D01*
X152304815Y-74678017D01*
X152304815Y-74481983D01*
X152343060Y-74289715D01*
X152418079Y-74108603D01*
X152526990Y-73945607D01*
X152665607Y-73806990D01*
X152828603Y-73698079D01*
X153009715Y-73623060D01*
X153201983Y-73584815D01*
X153300000Y-73580000D01*
X153500000Y-73580000D01*
X153598017Y-73584815D01*
G37*
G36*
X140198017Y-71044815D02*
G01*
X140390285Y-71083060D01*
X140571397Y-71158079D01*
X140734393Y-71266990D01*
X140873010Y-71405607D01*
X140981921Y-71568603D01*
X141056940Y-71749715D01*
X141095185Y-71941983D01*
X141095185Y-72138017D01*
X141056940Y-72330285D01*
X140981921Y-72511397D01*
X140873010Y-72674393D01*
X140734393Y-72813010D01*
X140571397Y-72921921D01*
X140390285Y-72996940D01*
X140198017Y-73035185D01*
X140100000Y-73040000D01*
X140098749Y-73040000D01*
X139901251Y-73040000D01*
X139900000Y-73040000D01*
X139801983Y-73035185D01*
X139609715Y-72996940D01*
X139428603Y-72921921D01*
X139265607Y-72813010D01*
X139126990Y-72674393D01*
X139018079Y-72511397D01*
X138943060Y-72330285D01*
X138904815Y-72138017D01*
X138904815Y-71941983D01*
X138943060Y-71749715D01*
X139018079Y-71568603D01*
X139126990Y-71405607D01*
X139265607Y-71266990D01*
X139428603Y-71158079D01*
X139609715Y-71083060D01*
X139801983Y-71044815D01*
X139900000Y-71040000D01*
X140100000Y-71040000D01*
X140198017Y-71044815D01*
G37*
G36*
X153598017Y-71044815D02*
G01*
X153790285Y-71083060D01*
X153971397Y-71158079D01*
X154134393Y-71266990D01*
X154273010Y-71405607D01*
X154381921Y-71568603D01*
X154456940Y-71749715D01*
X154495185Y-71941983D01*
X154495185Y-72138017D01*
X154456940Y-72330285D01*
X154381921Y-72511397D01*
X154273010Y-72674393D01*
X154134393Y-72813010D01*
X153971397Y-72921921D01*
X153790285Y-72996940D01*
X153598017Y-73035185D01*
X153500000Y-73040000D01*
X153498749Y-73040000D01*
X153301251Y-73040000D01*
X153300000Y-73040000D01*
X153201983Y-73035185D01*
X153009715Y-72996940D01*
X152828603Y-72921921D01*
X152665607Y-72813010D01*
X152526990Y-72674393D01*
X152418079Y-72511397D01*
X152343060Y-72330285D01*
X152304815Y-72138017D01*
X152304815Y-71941983D01*
X152343060Y-71749715D01*
X152418079Y-71568603D01*
X152526990Y-71405607D01*
X152665607Y-71266990D01*
X152828603Y-71158079D01*
X153009715Y-71083060D01*
X153201983Y-71044815D01*
X153300000Y-71040000D01*
X153500000Y-71040000D01*
X153598017Y-71044815D01*
G37*
G36*
X140854116Y-68500818D02*
G01*
X140905379Y-68506766D01*
X140922892Y-68514499D01*
X140945671Y-68519030D01*
X140970057Y-68535324D01*
X140990788Y-68544478D01*
X141004946Y-68558636D01*
X141026777Y-68573223D01*
X141041363Y-68595053D01*
X141055521Y-68609211D01*
X141064673Y-68629939D01*
X141080970Y-68654329D01*
X141085501Y-68677109D01*
X141093233Y-68694620D01*
X141099178Y-68745872D01*
X141100000Y-68750000D01*
X141100000Y-70250000D01*
X141099178Y-70254128D01*
X141093233Y-70305379D01*
X141085501Y-70322888D01*
X141080970Y-70345671D01*
X141064672Y-70370062D01*
X141055521Y-70390788D01*
X141041365Y-70404943D01*
X141026777Y-70426777D01*
X141004943Y-70441365D01*
X140990788Y-70455521D01*
X140970062Y-70464672D01*
X140945671Y-70480970D01*
X140922888Y-70485501D01*
X140905379Y-70493233D01*
X140854129Y-70499178D01*
X140850000Y-70500000D01*
X139150000Y-70500000D01*
X139145873Y-70499179D01*
X139094620Y-70493233D01*
X139077109Y-70485501D01*
X139054329Y-70480970D01*
X139029939Y-70464673D01*
X139009211Y-70455521D01*
X138995053Y-70441363D01*
X138973223Y-70426777D01*
X138958636Y-70404946D01*
X138944478Y-70390788D01*
X138935324Y-70370057D01*
X138919030Y-70345671D01*
X138914499Y-70322892D01*
X138906766Y-70305379D01*
X138900818Y-70254117D01*
X138900000Y-70250000D01*
X138900000Y-68750000D01*
X138900818Y-68745885D01*
X138906766Y-68694620D01*
X138914499Y-68677105D01*
X138919030Y-68654329D01*
X138935323Y-68629944D01*
X138944478Y-68609211D01*
X138958638Y-68595050D01*
X138973223Y-68573223D01*
X138995050Y-68558638D01*
X139009211Y-68544478D01*
X139029944Y-68535323D01*
X139054329Y-68519030D01*
X139077105Y-68514499D01*
X139094620Y-68506766D01*
X139145884Y-68500818D01*
X139150000Y-68500000D01*
X140850000Y-68500000D01*
X140854116Y-68500818D01*
G37*
G36*
X154254116Y-68500818D02*
G01*
X154305379Y-68506766D01*
X154322892Y-68514499D01*
X154345671Y-68519030D01*
X154370057Y-68535324D01*
X154390788Y-68544478D01*
X154404946Y-68558636D01*
X154426777Y-68573223D01*
X154441363Y-68595053D01*
X154455521Y-68609211D01*
X154464673Y-68629939D01*
X154480970Y-68654329D01*
X154485501Y-68677109D01*
X154493233Y-68694620D01*
X154499178Y-68745872D01*
X154500000Y-68750000D01*
X154500000Y-70250000D01*
X154499178Y-70254128D01*
X154493233Y-70305379D01*
X154485501Y-70322888D01*
X154480970Y-70345671D01*
X154464672Y-70370062D01*
X154455521Y-70390788D01*
X154441365Y-70404943D01*
X154426777Y-70426777D01*
X154404943Y-70441365D01*
X154390788Y-70455521D01*
X154370062Y-70464672D01*
X154345671Y-70480970D01*
X154322888Y-70485501D01*
X154305379Y-70493233D01*
X154254129Y-70499178D01*
X154250000Y-70500000D01*
X152550000Y-70500000D01*
X152545873Y-70499179D01*
X152494620Y-70493233D01*
X152477109Y-70485501D01*
X152454329Y-70480970D01*
X152429939Y-70464673D01*
X152409211Y-70455521D01*
X152395053Y-70441363D01*
X152373223Y-70426777D01*
X152358636Y-70404946D01*
X152344478Y-70390788D01*
X152335324Y-70370057D01*
X152319030Y-70345671D01*
X152314499Y-70322892D01*
X152306766Y-70305379D01*
X152300818Y-70254117D01*
X152300000Y-70250000D01*
X152300000Y-68750000D01*
X152300818Y-68745885D01*
X152306766Y-68694620D01*
X152314499Y-68677105D01*
X152319030Y-68654329D01*
X152335323Y-68629944D01*
X152344478Y-68609211D01*
X152358638Y-68595050D01*
X152373223Y-68573223D01*
X152395050Y-68558638D01*
X152409211Y-68544478D01*
X152429944Y-68535323D01*
X152454329Y-68519030D01*
X152477105Y-68514499D01*
X152494620Y-68506766D01*
X152545884Y-68500818D01*
X152550000Y-68500000D01*
X154250000Y-68500000D01*
X154254116Y-68500818D01*
G37*
M02*
