%TF.GenerationSoftware,KiCad,Pcbnew,8.0.4*%
%TF.CreationDate,2024-09-08T19:35:35-03:00*%
%TF.ProjectId,PCBWay-Module_TA6586,50434257-6179-42d4-9d6f-64756c655f54,rev?*%
%TF.SameCoordinates,Original*%
%TF.FileFunction,Copper,L2,Bot*%
%TF.FilePolarity,Positive*%
%FSLAX46Y46*%
G04 Gerber Fmt 4.6, Leading zero omitted, Abs format (unit mm)*
G04 Created by KiCad (PCBNEW 8.0.4) date 2024-09-08 19:35:35*
%MOMM*%
%LPD*%
G01*
G04 APERTURE LIST*
G04 Aperture macros list*
%AMRoundRect*
0 Rectangle with rounded corners*
0 $1 Rounding radius*
0 $2 $3 $4 $5 $6 $7 $8 $9 X,Y pos of 4 corners*
0 Add a 4 corners polygon primitive as box body*
4,1,4,$2,$3,$4,$5,$6,$7,$8,$9,$2,$3,0*
0 Add four circle primitives for the rounded corners*
1,1,$1+$1,$2,$3*
1,1,$1+$1,$4,$5*
1,1,$1+$1,$6,$7*
1,1,$1+$1,$8,$9*
0 Add four rect primitives between the rounded corners*
20,1,$1+$1,$2,$3,$4,$5,0*
20,1,$1+$1,$4,$5,$6,$7,0*
20,1,$1+$1,$6,$7,$8,$9,0*
20,1,$1+$1,$8,$9,$2,$3,0*%
G04 Aperture macros list end*
%TA.AperFunction,ComponentPad*%
%ADD10RoundRect,0.250000X0.850000X0.750000X-0.850000X0.750000X-0.850000X-0.750000X0.850000X-0.750000X0*%
%TD*%
%TA.AperFunction,ComponentPad*%
%ADD11O,2.200000X2.000000*%
%TD*%
%TA.AperFunction,ViaPad*%
%ADD12C,0.800000*%
%TD*%
G04 APERTURE END LIST*
D10*
%TO.P,J1,1,Pin_1*%
%TO.N,GND*%
X140000000Y-69500000D03*
D11*
%TO.P,J1,2,Pin_2*%
%TO.N,/IN_B2*%
X140000000Y-72040000D03*
%TO.P,J1,3,Pin_3*%
%TO.N,/IN_B1*%
X140000000Y-74580000D03*
%TO.P,J1,7,Pin_7*%
%TO.N,GND*%
X140000000Y-84740000D03*
%TD*%
D10*
%TO.P,J2,1,Pin_1*%
%TO.N,GND*%
X153400000Y-69500000D03*
D11*
%TO.P,J2,2,Pin_2*%
%TO.N,/OUT_B1*%
X153400000Y-72040000D03*
%TO.P,J2,3,Pin_3*%
%TO.N,/OUT_B2*%
X153400000Y-74580000D03*
%TO.P,J2,4,Pin_4*%
%TO.N,/VM*%
X153400000Y-77120000D03*
%TO.P,J2,5,Pin_5*%
%TO.N,/OUT_A1*%
X153400000Y-79660000D03*
%TO.P,J2,6,Pin_6*%
%TO.N,/OUT_A2*%
X153400000Y-82200000D03*
%TO.P,J2,7,Pin_7*%
%TO.N,/VM*%
X153400000Y-84740000D03*
%TD*%
D12*
%TO.N,/OUT_B2*%
X151400000Y-73900000D03*
X148500000Y-74600000D03*
X145900000Y-71900000D03*
X147200000Y-73200000D03*
X145500000Y-69300000D03*
X143000000Y-69300000D03*
X144900000Y-71000000D03*
X144200000Y-70000000D03*
X150100000Y-73900000D03*
X151400000Y-75100000D03*
X144200000Y-68900000D03*
X150100000Y-75100000D03*
X148600000Y-73100000D03*
X146400000Y-70700000D03*
X147300000Y-71700000D03*
%TO.N,/OUT_B1*%
X150400000Y-70700000D03*
X149300000Y-68800000D03*
X151600000Y-71200000D03*
X150400000Y-72100000D03*
X149300000Y-70000000D03*
X149300000Y-71400000D03*
X151600000Y-72600000D03*
X148100000Y-69300000D03*
X148300000Y-70600000D03*
X150600000Y-69300000D03*
%TO.N,/OUT_A1*%
X151800000Y-80500000D03*
X151800000Y-78900000D03*
X149300000Y-80200000D03*
X148000000Y-79600000D03*
X149300000Y-78900000D03*
%TO.N,/OUT_A2*%
X148100000Y-82900000D03*
X149800000Y-82900000D03*
X145000000Y-82600000D03*
X146500000Y-82500000D03*
X150500000Y-81700000D03*
X144200000Y-80200000D03*
X145000000Y-81400000D03*
X151400000Y-82800000D03*
X143000000Y-79600000D03*
X145500000Y-79700000D03*
X151700000Y-81600000D03*
X144200000Y-78800000D03*
X143500000Y-81200000D03*
X147600000Y-81700000D03*
X146300000Y-81100000D03*
X149100000Y-81700000D03*
%TO.N,GND*%
X143300000Y-83000000D03*
X141100000Y-78000000D03*
X142700000Y-74100000D03*
X139500000Y-86400000D03*
X145800000Y-85200000D03*
X140500000Y-68100000D03*
X147200000Y-76200000D03*
X139300000Y-68100000D03*
X139500000Y-87600000D03*
X141450000Y-69850000D03*
X144800000Y-74400000D03*
X143600000Y-74800000D03*
X147000000Y-84200000D03*
X144100000Y-83800000D03*
X141500000Y-70950000D03*
X145300000Y-73300000D03*
X145900000Y-75300000D03*
X140900000Y-87600000D03*
X148600000Y-87800000D03*
X147100000Y-77700000D03*
X143800000Y-73400000D03*
X144400000Y-72450000D03*
X141850000Y-72000000D03*
X142400000Y-82200000D03*
X147000000Y-75000000D03*
X148600000Y-85300000D03*
X141350000Y-68800000D03*
X142700000Y-72800000D03*
X147000000Y-86500000D03*
X148600000Y-86500000D03*
X143550000Y-71650000D03*
X148060000Y-76900000D03*
X147000000Y-85300000D03*
X147800000Y-87100000D03*
X145000000Y-84300000D03*
X140900000Y-86400000D03*
X148600000Y-84200000D03*
X148900000Y-76300000D03*
X147000000Y-87800000D03*
X146150000Y-74000000D03*
X148900000Y-77800000D03*
X142650000Y-71050000D03*
%TO.N,/VM*%
X151800000Y-76400000D03*
X153700000Y-87700000D03*
X149900000Y-84300000D03*
X151300000Y-85600000D03*
X153700000Y-86500000D03*
X152300000Y-86500000D03*
X152300000Y-87700000D03*
X151300000Y-84300000D03*
X150600000Y-76900000D03*
X149900000Y-85600000D03*
X150600000Y-87200000D03*
X151800000Y-77600000D03*
%TD*%
%TA.AperFunction,Conductor*%
%TO.N,/VM*%
G36*
X154558691Y-83624407D02*
G01*
X154594655Y-83673907D01*
X154599500Y-83704500D01*
X154599500Y-88250500D01*
X154580593Y-88308691D01*
X154531093Y-88344655D01*
X154500500Y-88349500D01*
X149399000Y-88349500D01*
X149340809Y-88330593D01*
X149304845Y-88281093D01*
X149300000Y-88250500D01*
X149300000Y-87852477D01*
X149300722Y-87840543D01*
X149305645Y-87800000D01*
X149305645Y-87799998D01*
X149300722Y-87759455D01*
X149300000Y-87747522D01*
X149300000Y-86552477D01*
X149300722Y-86540543D01*
X149305645Y-86500000D01*
X149305645Y-86499998D01*
X149300722Y-86459455D01*
X149300000Y-86447522D01*
X149300000Y-85352477D01*
X149300722Y-85340543D01*
X149305645Y-85300000D01*
X149305645Y-85299998D01*
X149300722Y-85259455D01*
X149300000Y-85247522D01*
X149300000Y-84252477D01*
X149300722Y-84240543D01*
X149305645Y-84200000D01*
X149305645Y-84199998D01*
X149300722Y-84159455D01*
X149300000Y-84147522D01*
X149300000Y-83704500D01*
X149318907Y-83646309D01*
X149368407Y-83610345D01*
X149399000Y-83605500D01*
X154500500Y-83605500D01*
X154558691Y-83624407D01*
G37*
%TD.AperFunction*%
%TD*%
%TA.AperFunction,Conductor*%
%TO.N,/OUT_A1*%
G36*
X148813111Y-78500500D02*
G01*
X148814944Y-78500500D01*
X148986889Y-78500500D01*
X148995162Y-78500000D01*
X154500500Y-78500000D01*
X154558691Y-78518907D01*
X154594655Y-78568407D01*
X154599500Y-78599000D01*
X154599500Y-80801000D01*
X154580593Y-80859191D01*
X154531093Y-80895155D01*
X154500500Y-80900000D01*
X153612599Y-80900000D01*
X153604836Y-80899695D01*
X153602357Y-80899500D01*
X153602352Y-80899500D01*
X153197648Y-80899500D01*
X153197643Y-80899500D01*
X153195164Y-80899695D01*
X153187401Y-80900000D01*
X151795162Y-80900000D01*
X151786889Y-80899500D01*
X151785056Y-80899500D01*
X151614944Y-80899500D01*
X151613111Y-80899500D01*
X151604838Y-80900000D01*
X147441008Y-80900000D01*
X147382817Y-80881093D01*
X147371004Y-80871004D01*
X147028996Y-80528996D01*
X147001219Y-80474479D01*
X147000000Y-80458992D01*
X147000000Y-78741008D01*
X147018907Y-78682817D01*
X147028996Y-78671004D01*
X147171004Y-78528996D01*
X147225521Y-78501219D01*
X147241008Y-78500000D01*
X148804838Y-78500000D01*
X148813111Y-78500500D01*
G37*
%TD.AperFunction*%
%TD*%
%TA.AperFunction,Conductor*%
%TO.N,/OUT_B1*%
G36*
X151559191Y-68418907D02*
G01*
X151595155Y-68468407D01*
X151600000Y-68499000D01*
X151600000Y-70500000D01*
X151900000Y-70800000D01*
X152496809Y-70800000D01*
X152503933Y-70800426D01*
X152503940Y-70800323D01*
X152506895Y-70800499D01*
X152506898Y-70800500D01*
X152506901Y-70800500D01*
X154293099Y-70800500D01*
X154293102Y-70800500D01*
X154293104Y-70800499D01*
X154296060Y-70800323D01*
X154296066Y-70800426D01*
X154303191Y-70800000D01*
X154500500Y-70800000D01*
X154558691Y-70818907D01*
X154594655Y-70868407D01*
X154599500Y-70899000D01*
X154599500Y-73045500D01*
X154580593Y-73103691D01*
X154531093Y-73139655D01*
X154500500Y-73144500D01*
X150235508Y-73144500D01*
X150177317Y-73125593D01*
X150165504Y-73115504D01*
X147078996Y-70028996D01*
X147051219Y-69974479D01*
X147050000Y-69958992D01*
X147050000Y-68499000D01*
X147068907Y-68440809D01*
X147118407Y-68404845D01*
X147149000Y-68400000D01*
X151501000Y-68400000D01*
X151559191Y-68418907D01*
G37*
%TD.AperFunction*%
%TD*%
%TA.AperFunction,Conductor*%
%TO.N,/OUT_B2*%
G36*
X146659191Y-68418907D02*
G01*
X146695155Y-68468407D01*
X146700000Y-68499000D01*
X146700000Y-70100000D01*
X150050000Y-73450000D01*
X154500500Y-73450000D01*
X154558691Y-73468907D01*
X154594655Y-73518407D01*
X154599500Y-73549000D01*
X154599500Y-75501000D01*
X154580593Y-75559191D01*
X154531093Y-75595155D01*
X154500500Y-75600000D01*
X148995162Y-75600000D01*
X148986889Y-75599500D01*
X148985056Y-75599500D01*
X148814944Y-75599500D01*
X148813111Y-75599500D01*
X148804838Y-75600000D01*
X148741008Y-75600000D01*
X148682817Y-75581093D01*
X148671004Y-75571004D01*
X146787301Y-73687301D01*
X146775830Y-73673536D01*
X146689868Y-73549000D01*
X146678183Y-73532071D01*
X146662759Y-73518407D01*
X146550852Y-73419266D01*
X146550851Y-73419265D01*
X146497719Y-73391379D01*
X146473723Y-73373723D01*
X143400000Y-70300000D01*
X143399999Y-70300000D01*
X142391008Y-70300000D01*
X142332817Y-70281093D01*
X142321004Y-70271004D01*
X142178996Y-70128996D01*
X142151219Y-70074479D01*
X142150000Y-70058992D01*
X142150000Y-69902477D01*
X142150722Y-69890543D01*
X142155645Y-69850000D01*
X142155645Y-69849998D01*
X142150722Y-69809455D01*
X142150000Y-69797522D01*
X142150000Y-68499000D01*
X142168907Y-68440809D01*
X142218407Y-68404845D01*
X142249000Y-68400000D01*
X146601000Y-68400000D01*
X146659191Y-68418907D01*
G37*
%TD.AperFunction*%
%TD*%
%TA.AperFunction,Conductor*%
%TO.N,/VM*%
G36*
X154558691Y-75924407D02*
G01*
X154594655Y-75973907D01*
X154599500Y-76004500D01*
X154599500Y-78095500D01*
X154580593Y-78153691D01*
X154531093Y-78189655D01*
X154500500Y-78194500D01*
X149699000Y-78194500D01*
X149640809Y-78175593D01*
X149604845Y-78126093D01*
X149600000Y-78095500D01*
X149600000Y-77852477D01*
X149600722Y-77840543D01*
X149605645Y-77800000D01*
X149605645Y-77799998D01*
X149600722Y-77759455D01*
X149600000Y-77747522D01*
X149600000Y-76352477D01*
X149600722Y-76340543D01*
X149605645Y-76300000D01*
X149605645Y-76299998D01*
X149600722Y-76259455D01*
X149600000Y-76247522D01*
X149600000Y-76004500D01*
X149618907Y-75946309D01*
X149668407Y-75910345D01*
X149699000Y-75905500D01*
X154500500Y-75905500D01*
X154558691Y-75924407D01*
G37*
%TD.AperFunction*%
%TD*%
%TA.AperFunction,Conductor*%
%TO.N,/OUT_A2*%
G36*
X146695734Y-78468907D02*
G01*
X146731698Y-78518407D01*
X146731698Y-78579593D01*
X146728474Y-78588148D01*
X146728357Y-78588419D01*
X146709451Y-78646603D01*
X146694500Y-78741004D01*
X146694500Y-80458981D01*
X146695442Y-80482969D01*
X146696664Y-80498494D01*
X146697294Y-80505472D01*
X146727784Y-80608992D01*
X146729015Y-80613170D01*
X146756792Y-80667687D01*
X146782662Y-80703294D01*
X146812970Y-80745011D01*
X146812972Y-80745013D01*
X146812975Y-80745017D01*
X147154983Y-81087025D01*
X147172601Y-81103311D01*
X147184414Y-81113400D01*
X147189831Y-81117919D01*
X147189837Y-81117922D01*
X147189842Y-81117926D01*
X147288409Y-81171639D01*
X147288411Y-81171640D01*
X147346604Y-81190548D01*
X147346601Y-81190548D01*
X147441005Y-81205500D01*
X147441008Y-81205500D01*
X151604838Y-81205500D01*
X151612661Y-81205264D01*
X151619920Y-81205044D01*
X151622905Y-81205000D01*
X151777095Y-81205000D01*
X151780079Y-81205044D01*
X151795162Y-81205500D01*
X153187396Y-81205500D01*
X153187401Y-81205500D01*
X153199395Y-81205264D01*
X153204180Y-81205076D01*
X153208066Y-81205000D01*
X153591934Y-81205000D01*
X153595820Y-81205076D01*
X153600605Y-81205264D01*
X153612599Y-81205500D01*
X153612604Y-81205500D01*
X154500500Y-81205500D01*
X154558691Y-81224407D01*
X154594655Y-81273907D01*
X154599500Y-81304500D01*
X154599500Y-83201000D01*
X154580593Y-83259191D01*
X154531093Y-83295155D01*
X154500500Y-83300000D01*
X144841008Y-83300000D01*
X144782817Y-83281093D01*
X144771004Y-83271004D01*
X142178996Y-80678996D01*
X142151219Y-80624479D01*
X142150000Y-80608992D01*
X142150000Y-78549000D01*
X142168907Y-78490809D01*
X142218407Y-78454845D01*
X142249000Y-78450000D01*
X146637543Y-78450000D01*
X146695734Y-78468907D01*
G37*
%TD.AperFunction*%
%TD*%
%TA.AperFunction,Conductor*%
%TO.N,GND*%
G36*
X154558691Y-67569407D02*
G01*
X154594655Y-67618907D01*
X154599500Y-67649500D01*
X154599500Y-70395500D01*
X154580593Y-70453691D01*
X154531093Y-70489655D01*
X154500500Y-70494500D01*
X154303191Y-70494500D01*
X154288127Y-70494950D01*
X154287935Y-70494956D01*
X154284978Y-70495000D01*
X152515023Y-70495000D01*
X152512067Y-70494956D01*
X152496809Y-70494500D01*
X152496804Y-70494500D01*
X152067550Y-70494500D01*
X152009359Y-70475593D01*
X151997546Y-70465504D01*
X151934496Y-70402454D01*
X151906719Y-70347937D01*
X151905500Y-70332450D01*
X151905500Y-68499006D01*
X151905500Y-68499000D01*
X151901739Y-68451214D01*
X151896894Y-68420621D01*
X151890487Y-68390246D01*
X151842309Y-68288838D01*
X151842304Y-68288831D01*
X151806348Y-68239342D01*
X151806347Y-68239341D01*
X151806345Y-68239338D01*
X151752177Y-68182081D01*
X151752176Y-68182080D01*
X151752175Y-68182079D01*
X151653598Y-68128360D01*
X151653596Y-68128359D01*
X151595403Y-68109451D01*
X151595406Y-68109451D01*
X151501003Y-68094500D01*
X151501000Y-68094500D01*
X147149000Y-68094500D01*
X147101214Y-68098261D01*
X147084800Y-68100860D01*
X147070619Y-68103106D01*
X147070614Y-68103106D01*
X147040247Y-68109512D01*
X147040242Y-68109514D01*
X146938841Y-68157689D01*
X146938829Y-68157696D01*
X146933130Y-68161837D01*
X146874939Y-68180742D01*
X146827571Y-68168672D01*
X146797013Y-68152020D01*
X146753595Y-68128359D01*
X146695403Y-68109451D01*
X146695406Y-68109451D01*
X146601003Y-68094500D01*
X146601000Y-68094500D01*
X142249000Y-68094500D01*
X142201214Y-68098261D01*
X142184800Y-68100860D01*
X142170619Y-68103106D01*
X142170614Y-68103106D01*
X142140247Y-68109512D01*
X142140242Y-68109514D01*
X142038841Y-68157689D01*
X142038831Y-68157695D01*
X141989342Y-68193651D01*
X141932079Y-68247824D01*
X141878360Y-68346401D01*
X141878359Y-68346403D01*
X141859451Y-68404595D01*
X141844500Y-68498996D01*
X141844500Y-69797516D01*
X141845058Y-69815981D01*
X141845780Y-69827908D01*
X141846973Y-69841044D01*
X141846973Y-69858952D01*
X141845780Y-69872084D01*
X141845058Y-69884018D01*
X141844500Y-69902482D01*
X141844500Y-70058981D01*
X141845442Y-70082969D01*
X141846664Y-70098494D01*
X141847294Y-70105472D01*
X141879015Y-70213170D01*
X141906792Y-70267687D01*
X141932662Y-70303294D01*
X141962970Y-70345011D01*
X141962972Y-70345013D01*
X141962975Y-70345017D01*
X142104983Y-70487025D01*
X142122601Y-70503311D01*
X142134414Y-70513400D01*
X142139831Y-70517919D01*
X142139837Y-70517922D01*
X142139842Y-70517926D01*
X142238409Y-70571639D01*
X142238411Y-70571640D01*
X142296604Y-70590548D01*
X142296601Y-70590548D01*
X142391005Y-70605500D01*
X142391008Y-70605500D01*
X143232450Y-70605500D01*
X143290641Y-70624407D01*
X143302454Y-70634496D01*
X146257705Y-73589747D01*
X146292666Y-73619789D01*
X146292676Y-73619796D01*
X146316653Y-73637439D01*
X146316660Y-73637443D01*
X146316665Y-73637447D01*
X146355745Y-73661885D01*
X146365387Y-73666945D01*
X146385024Y-73680499D01*
X146411932Y-73704337D01*
X146438836Y-73728173D01*
X146454661Y-73746036D01*
X146524402Y-73847071D01*
X146524409Y-73847081D01*
X146532653Y-73857938D01*
X146541128Y-73869099D01*
X146541138Y-73869111D01*
X146541140Y-73869114D01*
X146552611Y-73882879D01*
X146571280Y-73903322D01*
X148454983Y-75787025D01*
X148472601Y-75803311D01*
X148484414Y-75813400D01*
X148489831Y-75817919D01*
X148489837Y-75817922D01*
X148489842Y-75817926D01*
X148588409Y-75871639D01*
X148588411Y-75871640D01*
X148646604Y-75890548D01*
X148646601Y-75890548D01*
X148741005Y-75905500D01*
X148741008Y-75905500D01*
X148804838Y-75905500D01*
X148819920Y-75905045D01*
X148822905Y-75905000D01*
X148977095Y-75905000D01*
X148980079Y-75905044D01*
X148995162Y-75905500D01*
X149195500Y-75905500D01*
X149253691Y-75924407D01*
X149289655Y-75973907D01*
X149294500Y-76004500D01*
X149294500Y-76247516D01*
X149295058Y-76265981D01*
X149295780Y-76277908D01*
X149296973Y-76291044D01*
X149296973Y-76308952D01*
X149295780Y-76322084D01*
X149295058Y-76334018D01*
X149294500Y-76352482D01*
X149294500Y-77747516D01*
X149295058Y-77765981D01*
X149295780Y-77777908D01*
X149296973Y-77791044D01*
X149296973Y-77808952D01*
X149295780Y-77822084D01*
X149295058Y-77834018D01*
X149294500Y-77852482D01*
X149294500Y-78095500D01*
X149275593Y-78153691D01*
X149226093Y-78189655D01*
X149195500Y-78194500D01*
X148995162Y-78194500D01*
X148980080Y-78194955D01*
X148977095Y-78195000D01*
X148822905Y-78195000D01*
X148819920Y-78194955D01*
X148804838Y-78194500D01*
X147241008Y-78194500D01*
X147226025Y-78195088D01*
X147217030Y-78195442D01*
X147201505Y-78196664D01*
X147194527Y-78197294D01*
X147086829Y-78229015D01*
X147032310Y-78256793D01*
X147031405Y-78257451D01*
X147031047Y-78257567D01*
X147028991Y-78258827D01*
X147028688Y-78258333D01*
X146973211Y-78276350D01*
X146915023Y-78257435D01*
X146901309Y-78245387D01*
X146888721Y-78232082D01*
X146888718Y-78232079D01*
X146790141Y-78178360D01*
X146790139Y-78178359D01*
X146731946Y-78159451D01*
X146731949Y-78159451D01*
X146637546Y-78144500D01*
X146637543Y-78144500D01*
X144479650Y-78144500D01*
X144455958Y-78141623D01*
X144285058Y-78099500D01*
X144285056Y-78099500D01*
X144114944Y-78099500D01*
X144114941Y-78099500D01*
X143944042Y-78141623D01*
X143920350Y-78144500D01*
X142249000Y-78144500D01*
X142201214Y-78148261D01*
X142184800Y-78150860D01*
X142170619Y-78153106D01*
X142170614Y-78153106D01*
X142140247Y-78159512D01*
X142140242Y-78159514D01*
X142038841Y-78207689D01*
X142038831Y-78207695D01*
X141989342Y-78243651D01*
X141932079Y-78297824D01*
X141878360Y-78396401D01*
X141878359Y-78396403D01*
X141859451Y-78454595D01*
X141844500Y-78548996D01*
X141844500Y-80608981D01*
X141845442Y-80632969D01*
X141846664Y-80648494D01*
X141847294Y-80655472D01*
X141879015Y-80763170D01*
X141906792Y-80817687D01*
X141932662Y-80853294D01*
X141962970Y-80895011D01*
X141962972Y-80895013D01*
X141962975Y-80895017D01*
X144554983Y-83487025D01*
X144572601Y-83503311D01*
X144584414Y-83513400D01*
X144589831Y-83517919D01*
X144589837Y-83517922D01*
X144589842Y-83517926D01*
X144688409Y-83571639D01*
X144688411Y-83571640D01*
X144746604Y-83590548D01*
X144746601Y-83590548D01*
X144841005Y-83605500D01*
X144841008Y-83605500D01*
X148895500Y-83605500D01*
X148953691Y-83624407D01*
X148989655Y-83673907D01*
X148994500Y-83704500D01*
X148994500Y-84147516D01*
X148995058Y-84165981D01*
X148995780Y-84177908D01*
X148996973Y-84191044D01*
X148996973Y-84208952D01*
X148995780Y-84222084D01*
X148995058Y-84234018D01*
X148994500Y-84252482D01*
X148994500Y-85247516D01*
X148995058Y-85265981D01*
X148995780Y-85277908D01*
X148996973Y-85291044D01*
X148996973Y-85308952D01*
X148995780Y-85322084D01*
X148995058Y-85334018D01*
X148994500Y-85352482D01*
X148994500Y-86447516D01*
X148995058Y-86465981D01*
X148995780Y-86477908D01*
X148996973Y-86491044D01*
X148996973Y-86508952D01*
X148995780Y-86522084D01*
X148995058Y-86534018D01*
X148994500Y-86552482D01*
X148994500Y-87747516D01*
X148995058Y-87765981D01*
X148995780Y-87777908D01*
X148996973Y-87791044D01*
X148996973Y-87808952D01*
X148995780Y-87822084D01*
X148995058Y-87834018D01*
X148994500Y-87852482D01*
X148994500Y-88250500D01*
X148975593Y-88308691D01*
X148926093Y-88344655D01*
X148895500Y-88349500D01*
X138799500Y-88349500D01*
X138741309Y-88330593D01*
X138705345Y-88281093D01*
X138700500Y-88250500D01*
X138700500Y-82132875D01*
X139318500Y-82132875D01*
X139318500Y-82267124D01*
X139344690Y-82398785D01*
X139344690Y-82398787D01*
X139396060Y-82522806D01*
X139396066Y-82522817D01*
X139440934Y-82589965D01*
X139470645Y-82634431D01*
X139565569Y-82729355D01*
X139632114Y-82773819D01*
X139677182Y-82803933D01*
X139677193Y-82803939D01*
X139723005Y-82822914D01*
X139801214Y-82855310D01*
X139932878Y-82881500D01*
X139932879Y-82881500D01*
X140067121Y-82881500D01*
X140067122Y-82881500D01*
X140198786Y-82855310D01*
X140322811Y-82803937D01*
X140434431Y-82729355D01*
X140529355Y-82634431D01*
X140603937Y-82522811D01*
X140655310Y-82398786D01*
X140681500Y-82267122D01*
X140681500Y-82132878D01*
X140655310Y-82001214D01*
X140603937Y-81877189D01*
X140603936Y-81877187D01*
X140603933Y-81877182D01*
X140573819Y-81832114D01*
X140529355Y-81765569D01*
X140434431Y-81670645D01*
X140389965Y-81640934D01*
X140322817Y-81596066D01*
X140322806Y-81596060D01*
X140198786Y-81544690D01*
X140067124Y-81518500D01*
X140067122Y-81518500D01*
X139932878Y-81518500D01*
X139932875Y-81518500D01*
X139801214Y-81544690D01*
X139801212Y-81544690D01*
X139677193Y-81596060D01*
X139677182Y-81596066D01*
X139565569Y-81670645D01*
X139565565Y-81670648D01*
X139470648Y-81765565D01*
X139470645Y-81765569D01*
X139396066Y-81877182D01*
X139396060Y-81877193D01*
X139344690Y-82001212D01*
X139344690Y-82001214D01*
X139318500Y-82132875D01*
X138700500Y-82132875D01*
X138700500Y-79592875D01*
X139318500Y-79592875D01*
X139318500Y-79727124D01*
X139344690Y-79858785D01*
X139344690Y-79858787D01*
X139396060Y-79982806D01*
X139396066Y-79982817D01*
X139440934Y-80049965D01*
X139470645Y-80094431D01*
X139565569Y-80189355D01*
X139632114Y-80233819D01*
X139677182Y-80263933D01*
X139677193Y-80263939D01*
X139723005Y-80282914D01*
X139801214Y-80315310D01*
X139932878Y-80341500D01*
X139932879Y-80341500D01*
X140067121Y-80341500D01*
X140067122Y-80341500D01*
X140198786Y-80315310D01*
X140322811Y-80263937D01*
X140434431Y-80189355D01*
X140529355Y-80094431D01*
X140603937Y-79982811D01*
X140655310Y-79858786D01*
X140681500Y-79727122D01*
X140681500Y-79592878D01*
X140655310Y-79461214D01*
X140603937Y-79337189D01*
X140603936Y-79337187D01*
X140603933Y-79337182D01*
X140573819Y-79292114D01*
X140529355Y-79225569D01*
X140434431Y-79130645D01*
X140389965Y-79100934D01*
X140322817Y-79056066D01*
X140322806Y-79056060D01*
X140198786Y-79004690D01*
X140067124Y-78978500D01*
X140067122Y-78978500D01*
X139932878Y-78978500D01*
X139932875Y-78978500D01*
X139801214Y-79004690D01*
X139801212Y-79004690D01*
X139677193Y-79056060D01*
X139677182Y-79056066D01*
X139565569Y-79130645D01*
X139565565Y-79130648D01*
X139470648Y-79225565D01*
X139470645Y-79225569D01*
X139396066Y-79337182D01*
X139396060Y-79337193D01*
X139344690Y-79461212D01*
X139344690Y-79461214D01*
X139318500Y-79592875D01*
X138700500Y-79592875D01*
X138700500Y-77052875D01*
X139318500Y-77052875D01*
X139318500Y-77187124D01*
X139344690Y-77318785D01*
X139344690Y-77318787D01*
X139396060Y-77442806D01*
X139396066Y-77442817D01*
X139440934Y-77509965D01*
X139470645Y-77554431D01*
X139565569Y-77649355D01*
X139632114Y-77693819D01*
X139677182Y-77723933D01*
X139677193Y-77723939D01*
X139723005Y-77742914D01*
X139801214Y-77775310D01*
X139932878Y-77801500D01*
X139932879Y-77801500D01*
X140067121Y-77801500D01*
X140067122Y-77801500D01*
X140198786Y-77775310D01*
X140322811Y-77723937D01*
X140434431Y-77649355D01*
X140529355Y-77554431D01*
X140603937Y-77442811D01*
X140655310Y-77318786D01*
X140681500Y-77187122D01*
X140681500Y-77052878D01*
X140655310Y-76921214D01*
X140603937Y-76797189D01*
X140603936Y-76797187D01*
X140603933Y-76797182D01*
X140573819Y-76752114D01*
X140529355Y-76685569D01*
X140434431Y-76590645D01*
X140389965Y-76560934D01*
X140322817Y-76516066D01*
X140322806Y-76516060D01*
X140198786Y-76464690D01*
X140067124Y-76438500D01*
X140067122Y-76438500D01*
X139932878Y-76438500D01*
X139932875Y-76438500D01*
X139801214Y-76464690D01*
X139801212Y-76464690D01*
X139677193Y-76516060D01*
X139677182Y-76516066D01*
X139565569Y-76590645D01*
X139565565Y-76590648D01*
X139470648Y-76685565D01*
X139470645Y-76685569D01*
X139396066Y-76797182D01*
X139396060Y-76797193D01*
X139344690Y-76921212D01*
X139344690Y-76921214D01*
X139318500Y-77052875D01*
X138700500Y-77052875D01*
X138700500Y-75446263D01*
X138719407Y-75388072D01*
X138768907Y-75352108D01*
X138830093Y-75352108D01*
X138879591Y-75388070D01*
X138879593Y-75388073D01*
X138908029Y-75427213D01*
X138908031Y-75427215D01*
X138908034Y-75427219D01*
X139052781Y-75571966D01*
X139052784Y-75571968D01*
X139052786Y-75571970D01*
X139218386Y-75692285D01*
X139218390Y-75692287D01*
X139400781Y-75785220D01*
X139595466Y-75848477D01*
X139595467Y-75848477D01*
X139595470Y-75848478D01*
X139797645Y-75880500D01*
X139797648Y-75880500D01*
X140202355Y-75880500D01*
X140404529Y-75848478D01*
X140404530Y-75848477D01*
X140404534Y-75848477D01*
X140599219Y-75785220D01*
X140781610Y-75692287D01*
X140947219Y-75571966D01*
X141091966Y-75427219D01*
X141212287Y-75261610D01*
X141305220Y-75079219D01*
X141368477Y-74884534D01*
X141400500Y-74682352D01*
X141400500Y-74477648D01*
X141400500Y-74477644D01*
X141368478Y-74275470D01*
X141368477Y-74275466D01*
X141305220Y-74080781D01*
X141212287Y-73898390D01*
X141212285Y-73898386D01*
X141091970Y-73732786D01*
X141091967Y-73732783D01*
X141091966Y-73732781D01*
X140947219Y-73588034D01*
X140947215Y-73588031D01*
X140947213Y-73588029D01*
X140781613Y-73467714D01*
X140781609Y-73467712D01*
X140710847Y-73431657D01*
X140645201Y-73398209D01*
X140601937Y-73354945D01*
X140592366Y-73294513D01*
X140620143Y-73239997D01*
X140645199Y-73221791D01*
X140781610Y-73152287D01*
X140947219Y-73031966D01*
X141091966Y-72887219D01*
X141212287Y-72721610D01*
X141305220Y-72539219D01*
X141368477Y-72344534D01*
X141400500Y-72142352D01*
X141400500Y-71937648D01*
X141400500Y-71937644D01*
X141368478Y-71735470D01*
X141368477Y-71735466D01*
X141305220Y-71540781D01*
X141212287Y-71358390D01*
X141212285Y-71358386D01*
X141091970Y-71192786D01*
X141091967Y-71192783D01*
X141091966Y-71192781D01*
X140947219Y-71048034D01*
X140947215Y-71048031D01*
X140947213Y-71048029D01*
X140781613Y-70927714D01*
X140781609Y-70927712D01*
X140599219Y-70834780D01*
X140404529Y-70771521D01*
X140202355Y-70739500D01*
X140202352Y-70739500D01*
X139797648Y-70739500D01*
X139797645Y-70739500D01*
X139595470Y-70771521D01*
X139400780Y-70834780D01*
X139218390Y-70927712D01*
X139218386Y-70927714D01*
X139052786Y-71048029D01*
X138908032Y-71192783D01*
X138879593Y-71231927D01*
X138830093Y-71267891D01*
X138768907Y-71267891D01*
X138719407Y-71231927D01*
X138700500Y-71173736D01*
X138700500Y-67649500D01*
X138719407Y-67591309D01*
X138768907Y-67555345D01*
X138799500Y-67550500D01*
X154500500Y-67550500D01*
X154558691Y-67569407D01*
G37*
%TD.AperFunction*%
%TD*%
M02*
