%TF.GenerationSoftware,KiCad,Pcbnew,8.0.4*%
%TF.CreationDate,2024-09-08T19:35:35-03:00*%
%TF.ProjectId,PCBWay-Module_TA6586,50434257-6179-42d4-9d6f-64756c655f54,rev?*%
%TF.SameCoordinates,Original*%
%TF.FileFunction,Legend,Top*%
%TF.FilePolarity,Positive*%
%FSLAX46Y46*%
G04 Gerber Fmt 4.6, Leading zero omitted, Abs format (unit mm)*
G04 Created by KiCad (PCBNEW 8.0.4) date 2024-09-08 19:35:35*
%MOMM*%
%LPD*%
G01*
G04 APERTURE LIST*
%ADD10C,0.150000*%
%ADD11C,0.120000*%
G04 APERTURE END LIST*
D10*
X140104819Y-84171904D02*
X140914342Y-84171904D01*
X140914342Y-84171904D02*
X141009580Y-84124285D01*
X141009580Y-84124285D02*
X141057200Y-84076666D01*
X141057200Y-84076666D02*
X141104819Y-83981428D01*
X141104819Y-83981428D02*
X141104819Y-83790952D01*
X141104819Y-83790952D02*
X141057200Y-83695714D01*
X141057200Y-83695714D02*
X141009580Y-83648095D01*
X141009580Y-83648095D02*
X140914342Y-83600476D01*
X140914342Y-83600476D02*
X140104819Y-83600476D01*
X141104819Y-82600476D02*
X141104819Y-83171904D01*
X141104819Y-82886190D02*
X140104819Y-82886190D01*
X140104819Y-82886190D02*
X140247676Y-82981428D01*
X140247676Y-82981428D02*
X140342914Y-83076666D01*
X140342914Y-83076666D02*
X140390533Y-83171904D01*
X140104819Y-73851904D02*
X140914342Y-73851904D01*
X140914342Y-73851904D02*
X141009580Y-73804285D01*
X141009580Y-73804285D02*
X141057200Y-73756666D01*
X141057200Y-73756666D02*
X141104819Y-73661428D01*
X141104819Y-73661428D02*
X141104819Y-73470952D01*
X141104819Y-73470952D02*
X141057200Y-73375714D01*
X141057200Y-73375714D02*
X141009580Y-73328095D01*
X141009580Y-73328095D02*
X140914342Y-73280476D01*
X140914342Y-73280476D02*
X140104819Y-73280476D01*
X140200057Y-72851904D02*
X140152438Y-72804285D01*
X140152438Y-72804285D02*
X140104819Y-72709047D01*
X140104819Y-72709047D02*
X140104819Y-72470952D01*
X140104819Y-72470952D02*
X140152438Y-72375714D01*
X140152438Y-72375714D02*
X140200057Y-72328095D01*
X140200057Y-72328095D02*
X140295295Y-72280476D01*
X140295295Y-72280476D02*
X140390533Y-72280476D01*
X140390533Y-72280476D02*
X140533390Y-72328095D01*
X140533390Y-72328095D02*
X141104819Y-72899523D01*
X141104819Y-72899523D02*
X141104819Y-72280476D01*
D11*
%TO.C,U1*%
X141590000Y-78270000D02*
X141590000Y-88550000D01*
X141590000Y-88550000D02*
X151990000Y-88550000D01*
X141650000Y-80760000D02*
X141650000Y-82410000D01*
X141650000Y-84410000D02*
X141650000Y-86060000D01*
X141650000Y-86060000D02*
X151930000Y-86060000D01*
X151930000Y-80760000D02*
X141650000Y-80760000D01*
X151930000Y-86060000D02*
X151930000Y-80760000D01*
X151990000Y-78270000D02*
X141590000Y-78270000D01*
X151990000Y-88550000D02*
X151990000Y-78270000D01*
X141650000Y-82410000D02*
G75*
G02*
X141650000Y-84410000I0J-1000000D01*
G01*
%TO.C,U2*%
X141590000Y-67950000D02*
X141590000Y-78230000D01*
X141590000Y-78230000D02*
X151990000Y-78230000D01*
X141650000Y-70440000D02*
X141650000Y-72090000D01*
X141650000Y-74090000D02*
X141650000Y-75740000D01*
X141650000Y-75740000D02*
X151930000Y-75740000D01*
X151930000Y-70440000D02*
X141650000Y-70440000D01*
X151930000Y-75740000D02*
X151930000Y-70440000D01*
X151990000Y-67950000D02*
X141590000Y-67950000D01*
X151990000Y-78230000D02*
X151990000Y-67950000D01*
X141650000Y-72090000D02*
G75*
G02*
X141650000Y-74090000I0J-1000000D01*
G01*
%TD*%
M02*
