M48
METRIC,TZ
T1C0.300
T2C0.762
T3C1.000
%
G90
G05
T1
X139350Y-86650
X139350Y-87650
X140350Y-86650
X140350Y-87650
X141350Y-86650
X141350Y-87650
X141650Y-70900
X141950Y-72500
X142900Y-73400
X142950Y-69300
X142950Y-79600
X142950Y-81050
X143150Y-71600
X143950Y-74450
X144050Y-72500
X144225Y-69300
X144225Y-79600
X144600Y-82150
X144950Y-75250
X145000Y-73400
X145500Y-69300
X145500Y-79600
X145500Y-81050
X145600Y-70850
X146050Y-74450
X146100Y-84250
X146100Y-85550
X146500Y-71750
X147050Y-75250
X147350Y-82150
X147450Y-72650
X148050Y-69300
X148050Y-79600
X148050Y-84250
X148050Y-85550
X148060Y-76900
X148060Y-87220
X148500Y-73700
X149325Y-69300
X149325Y-79600
X149500Y-74500
X149600Y-82150
X149800Y-70800
X149850Y-84250
X149850Y-85550
X150600Y-69300
X150600Y-76900
X150600Y-79600
X150600Y-87220
X150900Y-74550
X150950Y-71900
X151550Y-82150
X151800Y-84250
X151800Y-85550
X151800Y-86600
X151800Y-87900
X151850Y-76900
X153750Y-86600
X153750Y-87900
T2
X140000Y-77120
T3
X140000Y-69500
X140000Y-72040
X140000Y-74580
X140000Y-79660
X140000Y-82200
X140000Y-84740
X153400Y-69500
X153400Y-72040
X153400Y-74580
X153400Y-77120
X153400Y-79660
X153400Y-82200
X153400Y-84740
M30
